<svg xmlns="http://www.w3.org/2000/svg" xmlns:xlink="http://www.w3.org/1999/xlink" width="1122" zoomAndPan="magnify" viewBox="0 0 841.92 595.499987" height="793" preserveAspectRatio="xMidYMid meet" version="1.0"><path fill="#000000" d="M 581.421875 358.636719 C 523.832031 358.636719 476.996094 405.527344 476.996094 463.132812 C 476.996094 520.757812 523.851562 567.628906 581.421875 567.628906 C 639.011719 567.628906 685.847656 520.738281 685.847656 463.132812 C 685.847656 405.503906 638.988281 358.636719 581.421875 358.636719 Z M 541.25 541.785156 L 541.25 527.429688 C 541.25 505.273438 559.28125 487.234375 581.421875 487.234375 C 603.5625 487.234375 621.59375 505.273438 621.59375 527.429688 L 621.59375 541.785156 C 609.527344 547.980469 595.902344 551.550781 581.421875 551.550781 C 566.960938 551.550781 553.316406 547.980469 541.25 541.785156 Z M 637.65625 531.296875 L 637.65625 527.453125 C 637.65625 496.433594 612.417969 471.179688 581.421875 471.179688 C 550.425781 471.179688 525.1875 496.433594 525.1875 527.453125 L 525.1875 531.296875 C 505.578125 515.0625 493.0625 490.535156 493.0625 463.136719 C 493.0625 414.371094 532.710938 374.71875 581.417969 374.71875 C 630.152344 374.71875 669.777344 414.394531 669.777344 463.136719 C 669.777344 490.535156 657.261719 515.066406 637.652344 531.296875 Z M 637.65625 531.296875 " fill-opacity="1" fill-rule="nonzero"/><path fill="#000000" d="M 581.421875 390.78125 C 563.707031 390.78125 549.292969 405.203125 549.292969 422.929688 C 549.292969 440.652344 563.707031 455.078125 581.421875 455.078125 C 599.132812 455.078125 613.550781 440.652344 613.550781 422.929688 C 613.550781 405.203125 599.132812 390.78125 581.421875 390.78125 Z M 581.421875 439.003906 C 572.566406 439.003906 565.359375 431.792969 565.359375 422.929688 C 565.359375 414.066406 572.566406 406.855469 581.421875 406.855469 C 590.277344 406.855469 597.484375 414.066406 597.484375 422.929688 C 597.484375 431.792969 590.277344 439.003906 581.421875 439.003906 Z M 581.421875 439.003906 " fill-opacity="1" fill-rule="nonzero"/><path fill="#000000" d="M 308.300781 37.105469 L 195.835938 37.105469 C 173.695312 37.105469 155.664062 55.148438 155.664062 77.300781 L 155.664062 254.144531 C 155.664062 276.296875 173.695312 294.339844 195.835938 294.339844 L 308.300781 294.339844 C 330.441406 294.339844 348.46875 276.296875 348.46875 254.144531 L 348.46875 77.277344 C 348.46875 55.125 330.441406 37.082031 308.300781 37.082031 Z M 332.40625 254.140625 C 332.40625 267.433594 321.609375 278.265625 308.300781 278.265625 L 195.835938 278.265625 C 182.550781 278.265625 171.726562 267.457031 171.726562 254.140625 L 171.75 77.277344 C 171.75 63.984375 182.550781 53.15625 195.855469 53.15625 L 308.324219 53.15625 C 321.609375 53.15625 332.429688 63.960938 332.429688 77.277344 L 332.429688 254.117188 Z M 332.40625 254.140625 " fill-opacity="1" fill-rule="nonzero"/><path fill="#000000" d="M 292.234375 69.253906 L 211.890625 69.253906 C 198.605469 69.253906 187.785156 80.0625 187.785156 93.375 L 187.785156 109.449219 C 187.785156 122.746094 198.582031 133.574219 211.890625 133.574219 L 292.234375 133.574219 C 305.515625 133.574219 316.339844 122.765625 316.339844 109.449219 L 316.339844 93.375 C 316.339844 80.082031 305.539062 69.253906 292.234375 69.253906 Z M 300.277344 109.449219 C 300.277344 113.882812 296.660156 117.5 292.234375 117.5 L 211.890625 117.5 C 207.460938 117.5 203.847656 113.90625 203.847656 109.449219 L 203.847656 93.375 C 203.847656 88.945312 207.460938 85.328125 211.890625 85.328125 L 292.234375 85.328125 C 296.660156 85.328125 300.277344 88.921875 300.277344 93.375 Z M 300.277344 109.449219 " fill-opacity="1" fill-rule="nonzero"/><path fill="#000000" d="M 211.917969 149.621094 L 195.855469 149.621094 C 191.429688 149.621094 187.8125 153.21875 187.8125 157.671875 C 187.8125 162.125 191.40625 165.71875 195.855469 165.71875 L 211.917969 165.71875 C 216.347656 165.71875 219.960938 162.125 219.960938 157.671875 C 219.960938 153.21875 216.371094 149.621094 211.917969 149.621094 Z M 211.917969 149.621094 " fill-opacity="1" fill-rule="nonzero"/><path fill="#000000" d="M 260.109375 149.621094 L 244.046875 149.621094 C 239.617188 149.621094 236.003906 153.21875 236.003906 157.671875 C 236.003906 162.125 239.597656 165.71875 244.046875 165.71875 L 260.109375 165.71875 C 264.539062 165.71875 268.152344 162.125 268.152344 157.671875 C 268.152344 153.21875 264.558594 149.621094 260.109375 149.621094 Z M 260.109375 149.621094 " fill-opacity="1" fill-rule="nonzero"/><path fill="#000000" d="M 308.300781 149.621094 L 292.238281 149.621094 C 287.808594 149.621094 284.195312 153.21875 284.195312 157.671875 C 284.195312 162.125 287.785156 165.71875 292.238281 165.71875 L 308.300781 165.71875 C 312.726562 165.71875 316.34375 162.125 316.34375 157.671875 C 316.34375 153.21875 312.75 149.621094 308.300781 149.621094 Z M 308.300781 149.621094 " fill-opacity="1" fill-rule="nonzero"/><path fill="#000000" d="M 211.917969 181.796875 L 195.855469 181.796875 C 191.429688 181.796875 187.8125 185.390625 187.8125 189.84375 C 187.8125 194.296875 191.40625 197.890625 195.855469 197.890625 L 211.917969 197.890625 C 216.347656 197.890625 219.960938 194.296875 219.960938 189.84375 C 219.960938 185.390625 216.371094 181.796875 211.917969 181.796875 Z M 211.917969 181.796875 " fill-opacity="1" fill-rule="nonzero"/><path fill="#000000" d="M 260.109375 181.796875 L 244.046875 181.796875 C 239.617188 181.796875 236.003906 185.390625 236.003906 189.84375 C 236.003906 194.296875 239.597656 197.890625 244.046875 197.890625 L 260.109375 197.890625 C 264.539062 197.890625 268.152344 194.296875 268.152344 189.84375 C 268.152344 185.390625 264.558594 181.796875 260.109375 181.796875 Z M 260.109375 181.796875 " fill-opacity="1" fill-rule="nonzero"/><path fill="#000000" d="M 308.300781 181.796875 L 292.238281 181.796875 C 287.808594 181.796875 284.195312 185.390625 284.195312 189.84375 C 284.195312 194.296875 287.785156 197.890625 292.238281 197.890625 L 308.300781 197.890625 C 312.726562 197.890625 316.34375 194.296875 316.34375 189.84375 C 316.34375 185.390625 312.75 181.796875 308.300781 181.796875 Z M 308.300781 181.796875 " fill-opacity="1" fill-rule="nonzero"/><path fill="#000000" d="M 211.917969 213.945312 L 195.855469 213.945312 C 191.429688 213.945312 187.8125 217.539062 187.8125 221.996094 C 187.8125 226.449219 191.40625 230.042969 195.855469 230.042969 L 211.917969 230.042969 C 216.347656 230.042969 219.960938 226.449219 219.960938 221.996094 C 219.960938 217.539062 216.371094 213.945312 211.917969 213.945312 Z M 211.917969 213.945312 " fill-opacity="1" fill-rule="nonzero"/><path fill="#000000" d="M 260.109375 213.945312 L 244.046875 213.945312 C 239.617188 213.945312 236.003906 217.539062 236.003906 221.996094 C 236.003906 226.449219 239.597656 230.042969 244.046875 230.042969 L 260.109375 230.042969 C 264.539062 230.042969 268.152344 226.449219 268.152344 221.996094 C 268.152344 217.539062 264.558594 213.945312 260.109375 213.945312 Z M 260.109375 213.945312 " fill-opacity="1" fill-rule="nonzero"/><path fill="#000000" d="M 308.300781 213.945312 L 292.238281 213.945312 C 287.808594 213.945312 284.195312 217.539062 284.195312 221.996094 C 284.195312 226.449219 287.785156 230.042969 292.238281 230.042969 L 308.300781 230.042969 C 312.726562 230.042969 316.34375 226.449219 316.34375 221.996094 C 316.34375 217.539062 312.75 213.945312 308.300781 213.945312 Z M 308.300781 213.945312 " fill-opacity="1" fill-rule="nonzero"/><path fill="#000000" d="M 211.917969 246.089844 L 195.855469 246.089844 C 191.429688 246.089844 187.8125 249.683594 187.8125 254.140625 C 187.8125 258.59375 191.40625 262.1875 195.855469 262.1875 L 211.917969 262.1875 C 216.347656 262.1875 219.960938 258.59375 219.960938 254.140625 C 219.960938 249.683594 216.371094 246.089844 211.917969 246.089844 Z M 211.917969 246.089844 " fill-opacity="1" fill-rule="nonzero"/><path fill="#000000" d="M 260.109375 246.089844 L 244.046875 246.089844 C 239.617188 246.089844 236.003906 249.683594 236.003906 254.140625 C 236.003906 258.59375 239.597656 262.1875 244.046875 262.1875 L 260.109375 262.1875 C 264.539062 262.1875 268.152344 258.59375 268.152344 254.140625 C 268.152344 249.683594 264.558594 246.089844 260.109375 246.089844 Z M 260.109375 246.089844 " fill-opacity="1" fill-rule="nonzero"/><path fill="#000000" d="M 308.300781 246.089844 L 292.238281 246.089844 C 287.808594 246.089844 284.195312 249.683594 284.195312 254.140625 C 284.195312 258.59375 287.785156 262.1875 292.238281 262.1875 L 308.300781 262.1875 C 312.726562 262.1875 316.34375 258.59375 316.34375 254.140625 C 316.34375 249.683594 312.75 246.089844 308.300781 246.089844 Z M 308.300781 246.089844 " fill-opacity="1" fill-rule="nonzero"/><path fill="#000000" d="M 565.359375 101.398438 L 364.53125 101.398438 L 364.53125 254.140625 C 364.53125 285.160156 339.316406 310.414062 308.296875 310.414062 L 236 310.414062 L 236 463.152344 C 236 485.332031 253.984375 503.351562 276.167969 503.351562 L 467.847656 503.351562 C 463.351562 490.800781 460.9375 477.304688 460.9375 463.152344 C 460.9375 396.6875 515 342.585938 581.421875 342.585938 C 589.691406 342.585938 597.734375 343.398438 605.53125 345.003906 L 605.53125 141.621094 C 605.53125 119.445312 587.546875 101.425781 565.359375 101.425781 Z M 407.027344 240.394531 L 455.21875 192.171875 C 458.359375 189.03125 463.488281 189.03125 466.628906 192.171875 L 493.0625 218.691406 L 545.996094 165.722656 L 541.253906 165.722656 C 536.824219 165.722656 533.210938 162.105469 533.210938 157.671875 C 533.210938 153.242188 536.824219 149.625 541.253906 149.625 L 565.359375 149.625 C 569.789062 149.625 573.402344 153.242188 573.402344 157.671875 L 573.402344 181.796875 C 573.402344 186.226562 569.789062 189.84375 565.359375 189.84375 C 560.933594 189.84375 557.316406 186.226562 557.316406 181.796875 L 557.316406 177.050781 L 498.757812 235.742188 C 495.617188 238.882812 490.488281 238.882812 487.347656 235.742188 L 460.914062 209.222656 L 418.414062 251.816406 C 416.8125 253.351562 414.800781 254.144531 412.722656 254.144531 C 410.644531 254.144531 408.632812 253.332031 407.027344 251.816406 C 403.886719 248.671875 403.886719 243.542969 407.027344 240.398438 Z M 324.363281 382.757812 L 356.488281 382.757812 C 374.246094 382.757812 388.617188 397.136719 388.617188 414.90625 C 388.617188 429.851562 378.335938 442.308594 364.507812 445.925781 L 364.507812 455.082031 C 364.507812 459.511719 360.894531 463.128906 356.464844 463.128906 C 352.039062 463.128906 348.421875 459.511719 348.421875 455.082031 L 348.421875 447.035156 L 332.359375 447.035156 L 332.359375 455.082031 C 332.359375 459.511719 328.746094 463.128906 324.316406 463.128906 C 319.890625 463.128906 316.273438 459.511719 316.273438 455.082031 L 316.273438 445.925781 C 302.449219 442.308594 292.167969 429.851562 292.167969 414.90625 C 292.167969 410.476562 295.78125 406.859375 300.210938 406.859375 C 304.636719 406.859375 308.253906 410.476562 308.253906 414.90625 C 308.253906 423.746094 315.484375 430.980469 324.316406 430.980469 L 356.445312 430.980469 C 365.277344 430.980469 372.507812 423.746094 372.507812 414.90625 C 372.507812 406.070312 365.277344 398.832031 356.445312 398.832031 L 324.316406 398.832031 C 306.558594 398.832031 292.191406 384.457031 292.191406 366.683594 C 292.191406 351.742188 302.46875 339.285156 316.296875 335.667969 L 316.296875 326.511719 C 316.296875 322.082031 319.910156 318.464844 324.339844 318.464844 C 328.765625 318.464844 332.382812 322.082031 332.382812 326.511719 L 332.382812 334.558594 L 348.445312 334.558594 L 348.445312 326.511719 C 348.445312 322.082031 352.058594 318.464844 356.488281 318.464844 C 360.917969 318.464844 364.53125 322.082031 364.53125 326.511719 L 364.53125 335.667969 C 378.359375 339.285156 388.636719 351.742188 388.636719 366.683594 C 388.636719 371.117188 385.023438 374.734375 380.59375 374.734375 C 376.167969 374.734375 372.550781 371.117188 372.550781 366.683594 C 372.550781 357.847656 365.324219 350.613281 356.488281 350.613281 L 324.363281 350.613281 C 315.527344 350.613281 308.296875 357.847656 308.296875 366.683594 C 308.296875 375.523438 315.527344 382.757812 324.363281 382.757812 Z M 573.40625 294.320312 L 412.75 294.320312 C 390.585938 294.320312 372.578125 276.324219 372.578125 254.121094 L 372.578125 141.582031 C 372.578125 137.152344 376.195312 133.535156 380.621094 133.535156 C 385.050781 133.535156 388.664062 137.152344 388.664062 141.582031 L 388.664062 254.121094 C 388.664062 267.394531 399.507812 278.246094 412.773438 278.246094 L 573.429688 278.246094 C 577.855469 278.246094 581.472656 281.863281 581.472656 286.292969 C 581.472656 290.722656 577.855469 294.339844 573.429688 294.339844 Z M 573.40625 294.320312 " fill-opacity="1" fill-rule="nonzero"/></svg>