<svg xmlns="http://www.w3.org/2000/svg" xmlns:xlink="http://www.w3.org/1999/xlink" width="1122" zoomAndPan="magnify" viewBox="0 0 841.92 595.499987" height="793" preserveAspectRatio="xMidYMid meet" version="1.0"><defs><clipPath id="40dd3bffd8"><path d="M 95.433594 255 L 792.347656 255 L 792.347656 385 L 95.433594 385 Z M 95.433594 255 " clip-rule="nonzero"/></clipPath></defs><g clip-path="url(#40dd3bffd8)"><path fill="#000000" d="M 728.320312 384.660156 L 159.460938 384.660156 C 124.179688 384.660156 95.433594 355.902344 95.433594 320.605469 C 95.433594 284.546875 124.179688 255.785156 159.460938 255.785156 L 728.320312 255.785156 C 763.601562 255.785156 792.347656 284.546875 792.347656 319.84375 C 792.347656 355.902344 763.601562 384.660156 728.320312 384.660156 Z M 159.460938 266.570312 C 130.0625 266.570312 106.214844 290.539062 106.214844 319.84375 C 106.214844 350.019531 130.167969 373.875 159.460938 373.875 L 728.320312 373.875 C 757.71875 373.875 781.566406 349.910156 781.566406 320.605469 C 781.566406 290.429688 757.609375 266.570312 728.320312 266.570312 Z M 159.460938 266.570312 " fill-opacity="1" fill-rule="nonzero"/></g><path fill="#000000" d="M 422.765625 266.570312 C 419.824219 266.570312 417.429688 264.175781 417.429688 261.234375 L 417.429688 103.707031 L 265.304688 103.707031 L 265.304688 261.234375 C 265.304688 264.175781 262.910156 266.570312 259.96875 266.570312 C 257.03125 266.570312 254.632812 264.175781 254.632812 261.234375 L 254.632812 98.367188 C 254.632812 95.425781 257.03125 93.03125 259.96875 93.03125 L 422.765625 93.03125 C 425.707031 93.03125 428.101562 95.425781 428.101562 98.367188 L 428.101562 261.234375 C 428.101562 264.175781 425.703125 266.570312 422.765625 266.570312 Z M 422.765625 266.570312 " fill-opacity="1" fill-rule="nonzero"/><path fill="#000000" d="M 377.140625 189.222656 C 376.050781 189.222656 374.960938 188.898438 374.089844 188.242188 L 341.3125 165.148438 L 312.675781 184.324219 C 311.039062 185.410156 308.863281 185.519531 307.121094 184.539062 C 305.378906 183.558594 304.289062 181.816406 304.289062 179.855469 L 304.289062 98.476562 C 304.289062 95.535156 306.683594 93.140625 309.625 93.140625 C 312.566406 93.140625 314.960938 95.535156 314.960938 98.476562 L 314.960938 169.832031 L 338.371094 154.253906 C 340.222656 153.058594 342.621094 153.058594 344.472656 154.363281 L 371.804688 173.429688 L 371.804688 98.261719 C 371.804688 95.320312 374.199219 92.921875 377.140625 92.921875 C 380.078125 92.921875 382.472656 95.320312 382.472656 98.261719 L 382.472656 183.777344 C 382.472656 185.738281 381.386719 187.589844 379.535156 188.570312 C 378.882812 189.007812 378.011719 189.222656 377.140625 189.222656 Z M 377.140625 189.222656 " fill-opacity="1" fill-rule="nonzero"/><path fill="#000000" d="M 627.808594 266.570312 C 624.871094 266.570312 622.472656 264.175781 622.472656 261.234375 L 622.472656 103.707031 L 470.460938 103.707031 L 470.460938 261.234375 C 470.460938 264.175781 468.0625 266.570312 465.125 266.570312 C 462.183594 266.570312 459.789062 264.175781 459.789062 261.234375 L 459.789062 98.367188 C 459.789062 95.425781 462.183594 93.03125 465.125 93.03125 L 627.917969 93.03125 C 630.859375 93.03125 633.253906 95.425781 633.253906 98.367188 L 633.253906 261.234375 C 633.253906 264.175781 630.859375 266.570312 627.808594 266.570312 Z M 627.808594 266.570312 " fill-opacity="1" fill-rule="nonzero"/><path fill="#000000" d="M 582.292969 189.222656 C 581.203125 189.222656 580.113281 188.898438 579.242188 188.242188 L 546.46875 165.148438 L 517.828125 184.324219 C 516.195312 185.410156 514.015625 185.519531 512.273438 184.539062 C 510.53125 183.558594 509.445312 181.816406 509.445312 179.855469 L 509.445312 98.476562 C 509.445312 95.535156 511.839844 93.140625 514.78125 93.140625 C 517.71875 93.140625 520.117188 95.535156 520.117188 98.476562 L 520.117188 169.832031 L 543.527344 154.253906 C 545.378906 153.058594 547.773438 153.058594 549.625 154.363281 L 576.957031 173.429688 L 576.957031 98.261719 C 576.957031 95.320312 579.351562 92.921875 582.292969 92.921875 C 585.234375 92.921875 587.628906 95.320312 587.628906 98.261719 L 587.628906 183.777344 C 587.628906 185.738281 586.539062 187.589844 584.6875 188.570312 C 583.925781 189.007812 583.164062 189.222656 582.292969 189.222656 Z M 582.292969 189.222656 " fill-opacity="1" fill-rule="nonzero"/><path fill="#000000" d="M 157.609375 347.1875 C 142.800781 347.1875 130.714844 335.09375 130.714844 320.277344 C 130.714844 305.464844 142.800781 293.371094 157.609375 293.371094 C 172.421875 293.371094 184.507812 305.464844 184.507812 320.277344 C 184.507812 335.09375 172.421875 347.1875 157.609375 347.1875 Z M 157.609375 304.046875 C 148.679688 304.046875 141.386719 311.34375 141.386719 320.277344 C 141.386719 329.210938 148.679688 336.511719 157.609375 336.511719 C 166.539062 336.511719 173.835938 329.210938 173.835938 320.277344 C 173.726562 311.238281 166.539062 304.046875 157.609375 304.046875 Z M 157.609375 304.046875 " fill-opacity="1" fill-rule="nonzero"/><path fill="#000000" d="M 308.320312 347.1875 C 293.507812 347.1875 281.421875 335.09375 281.421875 320.277344 C 281.421875 305.464844 293.507812 293.371094 308.320312 293.371094 C 323.128906 293.371094 335.214844 305.464844 335.214844 320.277344 C 335.324219 335.09375 323.238281 347.1875 308.320312 347.1875 Z M 308.320312 304.046875 C 299.390625 304.046875 292.09375 311.34375 292.09375 320.277344 C 292.09375 329.210938 299.390625 336.511719 308.320312 336.511719 C 317.246094 336.511719 324.542969 329.210938 324.542969 320.277344 C 324.542969 311.238281 317.246094 304.046875 308.320312 304.046875 Z M 308.320312 304.046875 " fill-opacity="1" fill-rule="nonzero"/><path fill="#000000" d="M 443.890625 347.1875 C 429.082031 347.1875 416.992188 335.09375 416.992188 320.277344 C 416.992188 305.464844 429.082031 293.371094 443.890625 293.371094 C 458.699219 293.371094 470.785156 305.464844 470.785156 320.277344 C 470.785156 335.09375 458.699219 347.1875 443.890625 347.1875 Z M 443.890625 304.046875 C 434.960938 304.046875 427.664062 311.34375 427.664062 320.277344 C 427.664062 329.210938 434.960938 336.511719 443.890625 336.511719 C 452.820312 336.511719 460.117188 329.210938 460.117188 320.277344 C 460.117188 311.238281 452.820312 304.046875 443.890625 304.046875 Z M 443.890625 304.046875 " fill-opacity="1" fill-rule="nonzero"/><path fill="#000000" d="M 580.222656 347.1875 C 565.414062 347.1875 553.328125 335.09375 553.328125 320.277344 C 553.328125 305.464844 565.414062 293.371094 580.222656 293.371094 C 595.035156 293.371094 607.121094 305.464844 607.121094 320.277344 C 607.121094 335.09375 595.035156 347.1875 580.222656 347.1875 Z M 580.222656 304.046875 C 571.296875 304.046875 564 311.34375 564 320.277344 C 564 329.210938 571.292969 336.511719 580.222656 336.511719 C 589.152344 336.511719 596.449219 329.210938 596.449219 320.277344 C 596.449219 311.238281 589.152344 304.046875 580.222656 304.046875 Z M 580.222656 304.046875 " fill-opacity="1" fill-rule="nonzero"/><path fill="#000000" d="M 728.425781 347.1875 C 713.617188 347.1875 701.53125 335.09375 701.53125 320.277344 C 701.53125 305.464844 713.617188 293.371094 728.425781 293.371094 C 743.238281 293.371094 755.324219 305.464844 755.324219 320.277344 C 755.324219 335.09375 743.238281 347.1875 728.425781 347.1875 Z M 728.425781 304.046875 C 719.5 304.046875 712.203125 311.34375 712.203125 320.277344 C 712.203125 329.210938 719.5 336.511719 728.425781 336.511719 C 737.355469 336.511719 744.652344 329.210938 744.652344 320.277344 C 744.542969 311.238281 737.355469 304.046875 728.425781 304.046875 Z M 728.425781 304.046875 " fill-opacity="1" fill-rule="nonzero"/></svg>