<svg xmlns="http://www.w3.org/2000/svg" xmlns:xlink="http://www.w3.org/1999/xlink" width="1122" zoomAndPan="magnify" viewBox="0 0 841.92 595.499987" height="793" preserveAspectRatio="xMidYMid meet" version="1.0"><path fill="#000000" d="M 661.425781 35.726562 C 655.886719 35.726562 651.410156 40.203125 651.410156 45.734375 L 651.410156 199.582031 C 651.09375 199.582031 650.816406 199.496094 650.5 199.496094 L 627.746094 199.496094 L 627.746094 111.25 C 627.746094 94.0625 614.792969 78.1875 598.269531 75.082031 C 568.222656 69.320312 509.417969 60.15625 432.003906 58.023438 L 431.941406 58.023438 C 421.355469 57.730469 410.453125 57.558594 399.191406 57.558594 C 305.585938 57.558594 234.320312 68.539062 200.195312 75.082031 C 183.609375 78.1875 170.636719 94.0625 170.636719 111.25 L 170.636719 416.972656 C 170.636719 440.53125 189.84375 459.722656 213.421875 459.722656 L 430.503906 459.722656 L 467.039062 507.5625 L 477.519531 530.324219 C 479.207031 533.996094 482.820312 536.148438 486.625 536.148438 C 488.019531 536.148438 489.433594 535.855469 490.808594 535.222656 C 495.835938 532.917969 498.035156 526.964844 495.710938 521.941406 L 484.765625 498.167969 C 484.46875 497.515625 484.089844 496.859375 483.625 496.289062 L 412.460938 403.125 L 416.308594 399.324219 C 423.9375 391.617188 436.464844 391.554688 444.175781 399.089844 L 466.066406 420.859375 L 465.667969 427.253906 C 465.328125 432.785156 469.53125 437.515625 475.046875 437.875 C 475.257812 437.875 475.46875 437.894531 475.683594 437.894531 C 480.921875 437.894531 485.339844 433.820312 485.675781 428.5 L 495.921875 264.6875 C 495.964844 263.84375 496.683594 263.191406 497.53125 263.191406 L 519.378906 263.191406 C 520.347656 263.191406 521.109375 263.886719 521.171875 264.792969 L 529.539062 373.984375 C 529.964844 379.496094 534.886719 383.613281 540.296875 383.210938 C 545.808594 382.789062 549.953125 377.996094 549.527344 372.464844 L 547.859375 350.699219 C 579.679688 351.523438 607.425781 356.78125 635.84375 375.695312 C 637.789062 377.003906 638.71875 379.328125 638.210938 381.671875 L 607.699219 524.074219 C 606.539062 529.480469 610.003906 534.800781 615.414062 535.960938 C 616.109375 536.128906 616.828125 536.171875 617.523438 536.171875 C 622.152344 536.171875 626.292969 532.960938 627.308594 528.253906 L 657.820312 385.894531 C 660.078125 375.484375 655.832031 364.972656 646.980469 359.0625 C 640.535156 354.773438 634.152344 351.269531 627.773438 348.144531 L 627.773438 295.957031 L 650.527344 295.957031 C 662.085938 295.957031 671.46875 286.5625 671.46875 275.035156 L 671.46875 45.734375 C 671.46875 40.203125 666.988281 35.726562 661.453125 35.726562 Z M 421.925781 374.472656 C 414.636719 376.015625 407.726562 379.5625 402.128906 385.199219 L 392.089844 395.144531 C 388.542969 398.691406 388.140625 404.328125 391.183594 408.316406 L 415.164062 439.730469 L 213.378906 439.710938 C 200.828125 439.710938 190.621094 429.492188 190.621094 416.972656 L 190.621094 285.042969 L 421.925781 285.042969 Z M 306.285156 230.449219 C 326.316406 230.449219 342.691406 245.628906 344.972656 265.03125 L 267.574219 265.03125 C 269.855469 245.605469 286.230469 230.449219 306.261719 230.449219 Z M 283.507812 187.695312 C 283.507812 175.15625 293.734375 164.960938 306.285156 164.960938 C 318.835938 164.960938 329.039062 175.175781 329.039062 187.695312 C 329.039062 200.238281 318.8125 210.433594 306.285156 210.433594 C 293.734375 210.433594 283.507812 200.214844 283.507812 187.695312 Z M 335.886719 218.457031 C 344 210.667969 349.070312 199.792969 349.070312 187.695312 C 349.070312 164.136719 329.863281 144.945312 306.285156 144.945312 C 282.703125 144.945312 263.476562 164.136719 263.476562 187.695312 C 263.476562 199.792969 268.570312 210.667969 276.660156 218.457031 C 260.242188 227.980469 248.835938 245.121094 247.3125 265.050781 L 234.339844 265.050781 L 234.339844 165.863281 C 234.339844 144.308594 253.25 121.277344 306.285156 121.277344 C 359.339844 121.277344 378.230469 144.308594 378.230469 165.863281 L 378.230469 265.050781 L 365.257812 265.050781 C 363.738281 245.144531 352.328125 228 335.910156 218.457031 Z M 421.925781 265.050781 L 398.257812 265.050781 L 398.257812 165.863281 C 398.257812 136.054688 374.171875 101.261719 306.28125 101.261719 C 238.394531 101.261719 214.308594 136.054688 214.308594 165.863281 L 214.308594 265.050781 L 190.640625 265.050781 L 190.640625 111.292969 C 190.640625 103.820312 196.832031 96.09375 203.910156 94.785156 C 237.359375 88.367188 307.214844 77.621094 399.167969 77.621094 C 406.945312 77.621094 414.488281 77.726562 421.925781 77.871094 L 421.925781 265.074219 Z M 607.695312 339.808594 C 588.042969 333.328125 567.972656 331.132812 546.289062 330.710938 L 541.113281 263.238281 C 540.140625 251.835938 530.78125 243.222656 519.351562 243.222656 L 497.503906 243.222656 C 486.113281 243.222656 476.625 252.113281 475.886719 263.46875 L 467.710938 394.324219 L 458.246094 384.886719 C 453.492188 380.242188 447.785156 377.203125 441.804688 375.429688 C 441.828125 375.132812 441.976562 374.902344 441.976562 374.605469 L 441.976562 219.578125 L 607.714844 219.578125 L 607.714844 339.832031 Z M 607.695312 199.542969 L 441.953125 199.542969 L 441.976562 78.398438 C 512.757812 80.976562 566.449219 89.398438 594.527344 94.761719 C 601.414062 96.070312 607.691406 103.925781 607.691406 111.273438 Z M 651.390625 242.316406 L 651.390625 275.058594 C 651.390625 275.566406 650.988281 275.96875 650.480469 275.96875 L 627.726562 275.96875 L 627.726562 219.554688 L 650.480469 219.554688 C 650.988281 219.554688 651.390625 219.953125 651.390625 220.460938 Z M 214.308594 318.699219 C 214.308594 313.167969 218.785156 308.691406 224.324219 308.691406 L 235.246094 308.691406 C 240.78125 308.691406 245.261719 313.167969 245.261719 318.699219 C 245.261719 324.230469 240.78125 328.707031 235.246094 328.707031 L 224.324219 328.707031 C 218.789062 328.707031 214.308594 324.230469 214.308594 318.699219 Z M 367.304688 318.699219 C 367.304688 313.167969 371.78125 308.691406 377.320312 308.691406 L 388.242188 308.691406 C 393.777344 308.691406 398.257812 313.167969 398.257812 318.699219 C 398.257812 324.230469 393.777344 328.707031 388.242188 328.707031 L 377.320312 328.707031 C 371.785156 328.707031 367.304688 324.230469 367.304688 318.699219 Z M 290.792969 318.699219 C 290.792969 313.167969 295.269531 308.691406 300.808594 308.691406 L 311.730469 308.691406 C 317.265625 308.691406 321.746094 313.167969 321.746094 318.699219 C 321.746094 324.230469 317.265625 328.707031 311.730469 328.707031 L 300.808594 328.707031 C 295.273438 328.707031 290.792969 324.230469 290.792969 318.699219 Z M 214.28125 362.378906 C 214.28125 356.847656 218.757812 352.375 224.296875 352.375 L 235.21875 352.375 C 240.753906 352.375 245.234375 356.847656 245.234375 362.378906 C 245.234375 367.910156 240.753906 372.386719 235.21875 372.386719 L 224.296875 372.386719 C 218.761719 372.386719 214.28125 367.910156 214.28125 362.378906 Z M 367.277344 362.378906 C 367.277344 356.847656 371.757812 352.375 377.292969 352.375 L 388.214844 352.375 C 393.75 352.375 398.230469 356.847656 398.230469 362.378906 C 398.230469 367.910156 393.75 372.386719 388.214844 372.386719 L 377.292969 372.386719 C 371.757812 372.386719 367.277344 367.910156 367.277344 362.378906 Z M 290.765625 362.378906 C 290.765625 356.847656 295.246094 352.375 300.78125 352.375 L 311.703125 352.375 C 317.238281 352.375 321.71875 356.847656 321.71875 362.378906 C 321.71875 367.910156 317.238281 372.386719 311.703125 372.386719 L 300.78125 372.386719 C 295.246094 372.386719 290.765625 367.910156 290.765625 362.378906 Z M 214.253906 406.039062 C 214.253906 400.507812 218.734375 396.03125 224.269531 396.03125 L 235.191406 396.03125 C 240.726562 396.03125 245.207031 400.507812 245.207031 406.039062 C 245.207031 411.570312 240.730469 416.046875 235.191406 416.046875 L 224.269531 416.046875 C 218.734375 416.046875 214.253906 411.570312 214.253906 406.039062 Z M 290.765625 406.039062 C 290.765625 400.507812 295.246094 396.03125 300.78125 396.03125 L 311.703125 396.03125 C 317.238281 396.03125 321.71875 400.507812 321.71875 406.039062 C 321.71875 411.570312 317.238281 416.046875 311.703125 416.046875 L 300.78125 416.046875 C 295.246094 416.046875 290.765625 411.570312 290.765625 406.039062 Z M 583.976562 165.828125 C 583.976562 171.359375 579.496094 175.835938 573.960938 175.835938 L 475.621094 175.835938 C 470.085938 175.835938 465.609375 171.359375 465.609375 165.828125 C 465.609375 160.296875 470.085938 155.820312 475.621094 155.820312 L 573.960938 155.820312 C 579.496094 155.820312 583.976562 160.296875 583.976562 165.828125 Z M 476.535156 122.167969 C 476.535156 116.636719 481.015625 112.160156 486.550781 112.160156 L 563.039062 112.160156 C 568.574219 112.160156 573.054688 116.636719 573.054688 122.167969 C 573.054688 127.699219 568.578125 132.175781 563.039062 132.175781 L 486.550781 132.175781 C 481.015625 132.175781 476.535156 127.699219 476.535156 122.167969 Z M 476.535156 122.167969 " fill-opacity="1" fill-rule="nonzero"/></svg>