<svg xmlns="http://www.w3.org/2000/svg" xmlns:xlink="http://www.w3.org/1999/xlink" width="1122" zoomAndPan="magnify" viewBox="0 0 841.92 595.499987" height="793" preserveAspectRatio="xMidYMid meet" version="1.0"><path fill="#000000" d="M 395.390625 59.714844 C 335.632812 59.714844 286.953125 108.375 286.953125 168.183594 C 286.953125 227.988281 335.632812 276.566406 395.390625 276.566406 C 455.144531 276.566406 503.824219 227.910156 503.824219 168.183594 C 503.824219 108.457031 455.144531 59.714844 395.390625 59.714844 Z M 431.898438 146.898438 L 404.179688 146.898438 L 404.179688 128.902344 L 386.597656 128.902344 L 386.597656 147.488281 L 425.476562 169.199219 C 429.957031 173.167969 431.898438 177.816406 431.898438 183.390625 L 431.898438 215.15625 C 431.898438 223.179688 428.351562 227.066406 425.476562 228.839844 C 422.601562 230.613281 418.378906 231.457031 412.714844 231.457031 L 408.488281 231.457031 L 408.488281 243.539062 L 382.121094 243.539062 L 382.121094 231.457031 L 377.894531 231.457031 C 372.230469 231.457031 368.089844 230.613281 365.214844 228.839844 C 361.074219 226.304688 358.960938 221.660156 358.960938 215.15625 L 358.960938 189.8125 L 386.683594 189.8125 L 386.683594 207.636719 L 404.261719 207.636719 L 404.261719 186.433594 L 364.539062 163.960938 C 360.820312 160.414062 358.875 155.765625 358.875 150.191406 L 358.875 121.046875 C 358.875 114.628906 360.988281 109.980469 365.128906 107.445312 C 368.089844 105.671875 372.230469 104.742188 377.894531 104.742188 L 382.117188 104.742188 L 382.117188 92.664062 L 408.488281 92.664062 L 408.488281 104.742188 L 412.882812 104.742188 C 418.546875 104.742188 422.6875 105.589844 425.5625 107.363281 C 428.433594 109.136719 431.898438 112.851562 431.898438 120.878906 Z M 431.898438 146.898438 " fill-opacity="1" fill-rule="nonzero"/><path fill="#000000" d="M 204.550781 304.53125 L 204.550781 270.570312 L 283.070312 255.109375 C 275.039062 244.71875 268.363281 233.230469 263.375 220.8125 L 182.238281 236.777344 C 173.449219 238.46875 167.113281 246.15625 167.113281 255.109375 L 167.113281 304.445312 C 147.417969 311.964844 133.390625 330.96875 133.390625 353.355469 C 133.390625 382.25 156.886719 405.734375 185.789062 405.734375 C 214.695312 405.734375 238.191406 382.25 238.191406 353.355469 C 238.191406 331.054688 224.160156 312.046875 204.46875 304.445312 Z M 204.550781 304.53125 " fill-opacity="1" fill-rule="nonzero"/><path fill="#000000" d="M 344.933594 352.597656 L 344.933594 300.898438 C 331.324219 295.746094 318.730469 288.566406 307.492188 279.695312 L 307.492188 352.597656 C 287.800781 360.117188 273.769531 379.121094 273.769531 401.507812 C 273.769531 430.402344 297.265625 453.886719 326.167969 453.886719 C 355.074219 453.886719 378.570312 430.398438 378.570312 401.507812 C 378.570312 379.207031 364.539062 360.199219 344.847656 352.597656 Z M 344.933594 352.597656 " fill-opacity="1" fill-rule="nonzero"/><path fill="#000000" d="M 623.667969 304.53125 L 623.667969 255.195312 C 623.667969 246.242188 617.328125 238.554688 608.539062 236.863281 L 527.402344 220.898438 C 522.417969 233.316406 515.742188 244.804688 507.710938 255.195312 L 586.230469 270.65625 L 586.230469 304.613281 C 566.539062 312.132812 552.507812 331.140625 552.507812 353.527344 C 552.507812 382.417969 576.003906 405.902344 604.90625 405.902344 C 633.8125 405.902344 657.308594 382.417969 657.308594 353.527344 C 657.308594 331.226562 643.277344 312.21875 623.585938 304.613281 Z M 623.667969 304.53125 " fill-opacity="1" fill-rule="nonzero"/><path fill="#000000" d="M 483.285156 352.597656 L 483.285156 279.699219 C 472.046875 288.566406 459.453125 295.75 445.84375 300.902344 L 445.84375 352.601562 C 426.152344 360.121094 412.121094 379.128906 412.121094 401.515625 C 412.121094 430.40625 435.617188 453.890625 464.523438 453.890625 C 493.429688 453.890625 516.925781 430.40625 516.925781 401.515625 C 516.925781 379.210938 502.894531 360.203125 483.203125 352.601562 Z M 483.285156 352.597656 " fill-opacity="1" fill-rule="nonzero"/></svg>