<svg xmlns="http://www.w3.org/2000/svg" xmlns:xlink="http://www.w3.org/1999/xlink" width="1122" zoomAndPan="magnify" viewBox="0 0 841.92 595.499987" height="793" preserveAspectRatio="xMidYMid meet" version="1.0"><path fill="#000000" d="M 422.515625 341.890625 L 523.871094 425.371094 C 523.554688 427.460938 522.707031 429.46875 521.378906 431.179688 C 519.347656 433.777344 516.390625 435.425781 513.09375 435.824219 C 509.800781 436.226562 506.566406 435.316406 503.988281 433.3125 C 503.96875 433.3125 503.96875 433.289062 503.96875 433.289062 L 421.691406 368.8125 C 418.730469 366.488281 414.441406 367.015625 412.097656 369.972656 C 409.773438 372.929688 410.300781 377.21875 413.257812 379.5625 L 495.535156 444.039062 L 495.558594 444.0625 C 500.925781 448.304688 501.855469 456.121094 497.648438 461.484375 C 493.402344 466.871094 485.585938 467.820312 480.195312 463.597656 L 467.730469 453.820312 L 467.710938 453.796875 L 467.6875 453.796875 L 467.710938 453.753906 L 397.390625 398.671875 C 394.433594 396.351562 390.144531 396.878906 387.796875 399.835938 C 385.472656 402.792969 386.003906 407.078125 388.960938 409.421875 L 459.257812 464.503906 L 459.277344 464.527344 C 464.644531 468.769531 465.574219 476.585938 461.371094 481.949219 C 459.34375 484.546875 456.40625 486.195312 453.089844 486.597656 C 449.792969 486.996094 446.515625 486.089844 443.917969 484.0625 L 422.089844 466.914062 L 421.984375 466.828125 L 373.070312 428.496094 C 370.113281 426.171875 365.800781 426.703125 363.480469 429.660156 C 361.15625 432.636719 361.683594 436.921875 364.640625 439.246094 L 414.359375 478.191406 C 419.449219 482.457031 420.273438 490.082031 416.132812 495.359375 C 414.105469 497.957031 411.167969 499.605469 407.851562 500.007812 C 404.53125 500.40625 401.28125 499.5 398.679688 497.472656 L 302.101562 421.738281 L 329.039062 318.0625 L 364.222656 313.140625 L 339.097656 347.566406 C 338.507812 348.390625 338 349 337.554688 349.550781 C 336.308594 351.070312 334.429688 353.375 334.832031 356.773438 C 335.210938 360.238281 337.535156 362.03125 339.773438 363.765625 L 340.789062 364.546875 C 348.542969 370.585938 368.847656 383.40625 389.597656 371.957031 C 402.570312 364.777344 411.382812 354.578125 417.828125 347.121094 C 419.304688 345.410156 420.574219 343.933594 421.714844 342.707031 C 421.988281 342.433594 422.242188 342.136719 422.476562 341.882812 L 422.515625 341.882812 Z M 223.222656 269.066406 L 186.5625 410.144531 L 284.390625 435.554688 L 321.074219 294.476562 Z M 618.804688 276.25 L 520.976562 301.632812 L 523.070312 309.660156 L 523.238281 310.3125 L 557.65625 442.730469 L 655.488281 417.324219 Z M 412.351562 296.648438 C 401.914062 294.433594 391.941406 298.253906 385.6875 306.890625 L 350.675781 354.898438 C 357.984375 360.21875 370.746094 366.785156 383.023438 360.007812 C 393.863281 354.007812 401.765625 344.886719 407.511719 338.210938 C 409.011719 336.460938 410.449219 334.8125 411.78125 333.398438 C 412.941406 332.152344 413.683594 331.222656 414.253906 330.460938 C 419.304688 323.914062 424.203125 326.238281 427.902344 328.984375 C 428.558594 329.46875 429.382812 330.082031 430.480469 330.84375 C 430.648438 330.96875 430.816406 331.074219 430.964844 331.199219 L 534.289062 416.265625 C 535.15625 416.605469 536.023438 416.878906 536.867188 417.15625 L 510.964844 317.492188 Z M 308.335938 243.957031 L 533.699219 243.957031 C 535.644531 243.957031 537.292969 242.332031 537.292969 240.386719 L 537.292969 139.921875 C 521.0625 166.21875 491.96875 183.789062 458.859375 183.789062 L 427.839844 183.789062 L 427.839844 192.363281 C 427.839844 196.144531 424.800781 199.183594 421.015625 199.183594 C 417.234375 199.183594 414.191406 196.144531 414.191406 192.363281 L 414.191406 183.789062 L 383.214844 183.789062 C 350.105469 183.789062 321.011719 166.238281 304.785156 139.921875 L 304.785156 240.386719 C 304.785156 242.351562 306.371094 243.957031 308.335938 243.957031 Z M 383.21875 170.148438 L 414.214844 170.148438 L 414.214844 161.613281 C 414.214844 157.835938 417.257812 154.792969 421.039062 154.792969 C 424.820312 154.792969 427.863281 157.835938 427.863281 161.613281 L 427.863281 170.148438 L 458.882812 170.148438 C 502.132812 170.148438 537.3125 134.984375 537.3125 91.730469 L 537.3125 90.738281 C 537.3125 88.816406 535.667969 87.191406 533.722656 87.191406 L 308.335938 87.191406 C 306.371094 87.191406 304.785156 88.796875 304.785156 90.738281 L 304.785156 91.730469 C 304.785156 134.960938 339.945312 170.148438 383.21875 170.148438 Z M 365.746094 73.460938 C 365.746094 47.929688 386.515625 27.167969 412.058594 27.167969 L 430 27.167969 C 455.523438 27.167969 476.292969 47.929688 476.292969 73.460938 L 476.292969 73.546875 L 489.941406 73.546875 L 489.941406 73.460938 C 489.941406 40.390625 463.042969 13.503906 430 13.503906 L 412.058594 13.503906 C 378.992188 13.503906 352.074219 40.390625 352.074219 73.460938 L 352.074219 73.546875 L 365.722656 73.546875 Z M 365.746094 73.460938 " fill-opacity="1" fill-rule="nonzero"/></svg>