<svg xmlns="http://www.w3.org/2000/svg" xmlns:xlink="http://www.w3.org/1999/xlink" width="1122" zoomAndPan="magnify" viewBox="0 0 841.92 595.499987" height="793" preserveAspectRatio="xMidYMid meet" version="1.0"><path fill="#000000" d="M 436.15625 248.992188 C 436.15625 235.726562 425.359375 224.957031 412.089844 224.957031 C 398.84375 224.957031 388.046875 235.75 388.046875 248.992188 C 388.046875 262.253906 398.84375 273.023438 412.089844 273.023438 C 425.359375 273.023438 436.15625 262.230469 436.15625 248.992188 Z M 436.15625 248.992188 " fill-opacity="1" fill-rule="nonzero"/><path fill="#000000" d="M 441.542969 282.90625 L 382.65625 282.90625 C 371.117188 282.90625 361.757812 292.28125 361.757812 303.8125 L 361.757812 341.554688 C 375.492188 352.746094 393.03125 359.503906 412.089844 359.503906 C 431.167969 359.503906 448.707031 352.746094 462.460938 341.554688 L 462.460938 303.8125 C 462.460938 292.28125 453.078125 282.90625 441.542969 282.90625 Z M 441.542969 282.90625 " fill-opacity="1" fill-rule="nonzero"/><path fill="#000000" d="M 412.089844 199.992188 C 368.101562 199.992188 332.285156 235.765625 332.285156 279.757812 C 332.285156 301.597656 341.117188 321.40625 355.402344 335.828125 L 355.402344 303.835938 C 355.402344 288.820312 367.636719 276.589844 382.636719 276.589844 L 399.457031 276.589844 C 388.996094 271.796875 381.6875 261.238281 381.6875 248.988281 C 381.6875 232.238281 395.3125 218.617188 412.070312 218.617188 C 428.824219 218.617188 442.476562 232.238281 442.476562 248.988281 C 442.476562 261.234375 435.164062 271.773438 424.707031 276.589844 L 441.523438 276.589844 C 456.546875 276.589844 468.78125 288.816406 468.78125 303.835938 L 468.78125 335.808594 C 483.042969 321.382812 491.875 301.597656 491.875 279.757812 C 491.898438 235.769531 456.101562 199.992188 412.089844 199.992188 Z M 412.089844 199.992188 " fill-opacity="1" fill-rule="nonzero"/><path fill="#000000" d="M 621.90625 460.433594 L 548.058594 386.625 C 544.320312 382.886719 539.398438 380.816406 534.136719 380.667969 C 585.648438 318.515625 582.308594 225.949219 524.097656 167.765625 C 494.179688 137.859375 454.390625 121.386719 412.09375 121.386719 C 369.792969 121.386719 330.003906 137.859375 300.085938 167.765625 C 238.324219 229.519531 238.324219 329.960938 300.085938 391.714844 C 330.007812 421.617188 369.792969 438.09375 412.09375 438.09375 C 449.40625 438.09375 484.738281 425.273438 513.070312 401.746094 C 513.21875 406.792969 515.183594 411.796875 519.027344 415.664062 L 592.875 489.472656 C 596.761719 493.359375 601.894531 495.492188 607.390625 495.492188 C 612.863281 495.492188 618.015625 493.359375 621.882812 489.472656 C 625.773438 485.585938 627.90625 480.433594 627.90625 474.964844 C 627.925781 469.472656 625.792969 464.320312 621.90625 460.433594 Z M 412.113281 395.703125 C 381.117188 395.703125 351.980469 383.644531 330.066406 361.742188 C 308.15625 339.84375 296.070312 310.71875 296.09375 279.734375 C 296.09375 248.753906 308.15625 219.632812 330.066406 197.730469 C 351.980469 175.828125 381.117188 163.769531 412.089844 163.769531 C 443.089844 163.769531 472.203125 175.828125 494.117188 197.730469 C 539.351562 242.945312 539.351562 316.527344 494.136719 361.742188 C 472.226562 383.644531 443.089844 395.703125 412.113281 395.703125 Z M 412.113281 395.703125 " fill-opacity="1" fill-rule="nonzero"/></svg>