<svg xmlns="http://www.w3.org/2000/svg" xmlns:xlink="http://www.w3.org/1999/xlink" width="1122" zoomAndPan="magnify" viewBox="0 0 841.92 595.499987" height="793" preserveAspectRatio="xMidYMid meet" version="1.0"><path fill="#000000" d="M 452.738281 264.90625 C 453.324219 264.699219 453.90625 264.476562 454.484375 264.234375 C 455.058594 263.996094 455.625 263.738281 456.1875 263.464844 C 456.746094 263.191406 457.296875 262.898438 457.839844 262.59375 C 458.386719 262.289062 458.917969 261.964844 459.445312 261.628906 C 459.96875 261.292969 460.480469 260.941406 460.984375 260.574219 C 461.492188 260.207031 461.984375 259.824219 462.464844 259.429688 C 462.945312 259.03125 463.417969 258.621094 463.875 258.199219 C 464.332031 257.773438 464.777344 257.339844 465.207031 256.890625 C 465.640625 256.441406 466.058594 255.976562 466.464844 255.503906 C 466.871094 255.03125 467.261719 254.542969 467.636719 254.046875 C 468.015625 253.550781 468.378906 253.042969 468.726562 252.527344 C 469.070312 252.007812 469.402344 251.480469 469.71875 250.941406 C 470.035156 250.40625 470.335938 249.859375 470.621094 249.304688 C 470.90625 248.75 471.175781 248.1875 471.425781 247.617188 C 471.679688 247.046875 471.914062 246.46875 472.128906 245.882812 C 472.347656 245.300781 472.550781 244.707031 472.734375 244.113281 C 472.914062 243.515625 473.082031 242.914062 473.230469 242.308594 C 473.378906 241.703125 473.507812 241.09375 473.621094 240.480469 C 473.734375 239.867188 473.828125 239.25 473.90625 238.632812 C 473.984375 238.015625 474.042969 237.394531 474.082031 236.769531 C 474.121094 236.148438 474.144531 235.527344 474.148438 234.902344 C 474.152344 234.277344 474.136719 233.65625 474.105469 233.03125 C 474.074219 232.410156 474.023438 231.789062 473.953125 231.167969 C 473.886719 230.546875 473.800781 229.929688 473.695312 229.316406 C 473.589844 228.703125 473.46875 228.089844 473.328125 227.484375 C 473.1875 226.875 473.027344 226.273438 472.851562 225.671875 C 472.675781 225.074219 472.484375 224.484375 472.273438 223.894531 C 472.0625 223.308594 471.835938 222.726562 471.589844 222.152344 C 471.347656 221.578125 471.085938 221.015625 470.808594 220.457031 C 470.53125 219.898438 470.238281 219.347656 469.929688 218.804688 C 469.621094 218.261719 469.296875 217.730469 468.953125 217.210938 C 468.613281 216.6875 468.257812 216.175781 467.886719 215.671875 C 467.519531 215.171875 467.132812 214.679688 466.734375 214.203125 C 466.335938 213.722656 465.921875 213.253906 465.496094 212.800781 C 465.070312 212.34375 464.628906 211.902344 464.179688 211.472656 C 463.726562 211.042969 463.261719 210.628906 462.785156 210.226562 C 462.308594 209.824219 461.820312 209.4375 461.320312 209.0625 C 460.824219 208.6875 460.3125 208.328125 459.792969 207.984375 C 459.273438 207.640625 458.742188 207.3125 458.203125 207 C 457.664062 206.6875 457.117188 206.390625 456.558594 206.109375 C 456.003906 205.828125 455.4375 205.5625 454.867188 205.316406 C 454.292969 205.066406 453.714844 204.835938 453.128906 204.621094 C 452.542969 204.410156 451.953125 204.210938 451.355469 204.03125 C 450.757812 203.851562 450.15625 203.691406 449.550781 203.546875 C 448.941406 203.402344 448.332031 203.273438 447.71875 203.167969 C 447.105469 203.058594 446.488281 202.964844 445.867188 202.894531 C 445.25 202.820312 444.628906 202.765625 444.007812 202.730469 C 443.382812 202.695312 442.761719 202.675781 442.136719 202.675781 C 441.515625 202.675781 440.890625 202.695312 440.269531 202.730469 C 439.644531 202.765625 439.023438 202.820312 438.40625 202.894531 C 437.785156 202.964844 437.167969 203.058594 436.554688 203.167969 C 435.941406 203.273438 435.332031 203.402344 434.726562 203.546875 C 434.117188 203.691406 433.515625 203.851562 432.917969 204.03125 C 432.324219 204.210938 431.730469 204.410156 431.144531 204.621094 C 430.558594 204.835938 429.980469 205.066406 429.410156 205.316406 C 428.835938 205.5625 428.273438 205.828125 427.714844 206.109375 C 427.160156 206.390625 426.609375 206.6875 426.070312 207 C 425.53125 207.3125 425.003906 207.640625 424.480469 207.984375 C 423.960938 208.328125 423.453125 208.6875 422.953125 209.0625 C 422.453125 209.4375 421.964844 209.824219 421.488281 210.226562 C 421.011719 210.628906 420.550781 211.042969 420.097656 211.472656 C 419.644531 211.902344 419.207031 212.34375 418.777344 212.800781 C 418.351562 213.253906 417.941406 213.722656 417.539062 214.203125 C 417.140625 214.679688 416.757812 215.171875 416.386719 215.671875 C 416.015625 216.175781 415.660156 216.6875 415.320312 217.210938 C 414.980469 217.730469 414.65625 218.265625 414.34375 218.804688 C 414.035156 219.347656 413.742188 219.898438 413.464844 220.457031 C 413.1875 221.015625 412.925781 221.578125 412.683594 222.152344 C 412.4375 222.726562 412.210938 223.308594 412 223.894531 C 411.792969 224.484375 411.597656 225.074219 411.421875 225.671875 C 411.246094 226.273438 411.089844 226.875 410.949219 227.484375 C 410.808594 228.089844 410.683594 228.703125 410.582031 229.316406 C 410.476562 229.929688 410.390625 230.546875 410.320312 231.167969 C 410.25 231.789062 410.203125 232.410156 410.167969 233.03125 C 410.136719 233.65625 410.121094 234.277344 410.125 234.902344 C 410.128906 235.527344 410.152344 236.148438 410.195312 236.769531 C 410.234375 237.394531 410.292969 238.015625 410.371094 238.632812 C 410.445312 239.25 410.539062 239.867188 410.652344 240.480469 C 410.765625 241.09375 410.898438 241.703125 411.042969 242.308594 C 411.191406 242.914062 411.359375 243.515625 411.542969 244.113281 C 411.726562 244.707031 411.925781 245.300781 412.144531 245.882812 C 412.363281 246.46875 412.597656 247.046875 412.847656 247.617188 C 413.101562 248.1875 413.367188 248.75 413.652344 249.304688 C 413.9375 249.859375 414.238281 250.40625 414.554688 250.941406 C 414.871094 251.480469 415.203125 252.007812 415.550781 252.527344 C 415.898438 253.042969 416.257812 253.550781 416.636719 254.046875 C 417.011719 254.542969 417.40625 255.03125 417.808594 255.503906 C 418.214844 255.976562 418.632812 256.441406 419.066406 256.890625 C 419.5 257.339844 419.941406 257.773438 420.402344 258.199219 C 420.859375 258.621094 421.328125 259.03125 421.808594 259.429688 C 422.292969 259.824219 422.785156 260.207031 423.289062 260.574219 C 423.792969 260.941406 424.308594 261.292969 424.832031 261.628906 C 425.355469 261.964844 425.890625 262.289062 426.433594 262.59375 C 426.976562 262.898438 427.527344 263.191406 428.089844 263.464844 C 428.648438 263.738281 429.21875 263.996094 429.792969 264.234375 C 430.367188 264.476562 430.949219 264.699219 431.539062 264.90625 C 430.011719 265.207031 428.496094 265.570312 427 266 C 425.503906 266.429688 424.03125 266.925781 422.578125 267.480469 C 421.121094 268.039062 419.695312 268.65625 418.296875 269.335938 C 416.894531 270.019531 415.527344 270.757812 414.1875 271.554688 C 412.851562 272.351562 411.550781 273.207031 410.289062 274.117188 C 409.023438 275.027344 407.804688 275.988281 406.621094 277.003906 C 405.441406 278.019531 404.304688 279.082031 403.21875 280.195312 C 402.128906 281.308594 401.089844 282.464844 400.097656 283.667969 C 399.109375 284.867188 398.171875 286.109375 397.289062 287.394531 C 396.410156 288.675781 395.582031 289.996094 394.8125 291.347656 C 394.042969 292.703125 393.335938 294.085938 392.683594 295.5 C 392.035156 296.917969 391.445312 298.355469 390.917969 299.820312 C 390.394531 301.289062 389.929688 302.773438 389.53125 304.277344 C 389.132812 305.785156 388.800781 307.304688 388.53125 308.835938 C 388.265625 310.371094 388.0625 311.914062 387.929688 313.464844 C 387.792969 315.015625 387.726562 316.570312 387.726562 318.128906 L 387.726562 344.351562 C 387.726562 345.046875 387.792969 345.734375 387.929688 346.417969 C 388.0625 347.101562 388.265625 347.765625 388.53125 348.40625 C 388.796875 349.050781 389.125 349.660156 389.511719 350.238281 C 389.898438 350.820312 390.335938 351.355469 390.828125 351.847656 C 391.320312 352.339844 391.855469 352.777344 392.4375 353.164062 C 393.015625 353.550781 393.625 353.878906 394.269531 354.144531 C 394.910156 354.410156 395.574219 354.613281 396.257812 354.746094 C 396.9375 354.882812 397.628906 354.953125 398.324219 354.953125 L 485.949219 354.953125 C 486.644531 354.953125 487.335938 354.882812 488.019531 354.746094 C 488.699219 354.613281 489.363281 354.410156 490.007812 354.144531 C 490.648438 353.878906 491.261719 353.550781 491.839844 353.164062 C 492.417969 352.777344 492.953125 352.339844 493.445312 351.847656 C 493.9375 351.355469 494.375 350.820312 494.761719 350.238281 C 495.148438 349.660156 495.476562 349.050781 495.742188 348.40625 C 496.007812 347.765625 496.210938 347.101562 496.347656 346.417969 C 496.480469 345.734375 496.550781 345.046875 496.550781 344.351562 L 496.550781 318.410156 C 496.558594 316.847656 496.496094 315.285156 496.367188 313.730469 C 496.242188 312.171875 496.046875 310.621094 495.785156 309.082031 C 495.523438 307.539062 495.195312 306.011719 494.800781 304.5 C 494.40625 302.988281 493.949219 301.496094 493.425781 300.023438 C 492.90625 298.546875 492.320312 297.101562 491.671875 295.679688 C 491.023438 294.253906 490.316406 292.863281 489.550781 291.503906 C 488.78125 290.140625 487.957031 288.816406 487.074219 287.523438 C 486.191406 286.234375 485.257812 284.984375 484.265625 283.777344 C 483.277344 282.566406 482.234375 281.402344 481.144531 280.28125 C 480.054688 279.164062 478.917969 278.09375 477.734375 277.070312 C 476.550781 276.050781 475.324219 275.082031 474.058594 274.167969 C 472.792969 273.253906 471.488281 272.394531 470.148438 271.589844 C 468.804688 270.789062 467.433594 270.042969 466.027344 269.359375 C 464.621094 268.675781 463.191406 268.054688 461.730469 267.496094 C 460.273438 266.933594 458.792969 266.4375 457.289062 266.003906 C 455.789062 265.574219 454.269531 265.207031 452.738281 264.90625 Z M 452.738281 264.90625 " fill-opacity="1" fill-rule="nonzero"/><path fill="#000000" d="M 350.414062 268.511719 C 351.3125 268.199219 352.191406 267.835938 353.050781 267.421875 C 353.910156 267.011719 354.738281 266.546875 355.542969 266.035156 C 356.347656 265.527344 357.117188 264.96875 357.855469 264.367188 C 358.59375 263.765625 359.296875 263.125 359.960938 262.441406 C 360.621094 261.757812 361.242188 261.035156 361.824219 260.28125 C 362.402344 259.523438 362.933594 258.738281 363.421875 257.917969 C 363.90625 257.097656 364.34375 256.253906 364.730469 255.382812 C 365.121094 254.515625 365.457031 253.625 365.738281 252.714844 C 366.023438 251.804688 366.25 250.882812 366.425781 249.945312 C 366.601562 249.011719 366.722656 248.066406 366.785156 247.117188 C 366.851562 246.164062 366.859375 245.214844 366.8125 244.261719 C 366.765625 243.3125 366.664062 242.367188 366.507812 241.425781 C 366.351562 240.488281 366.136719 239.5625 365.871094 238.644531 C 365.605469 237.730469 365.289062 236.835938 364.917969 235.957031 C 364.546875 235.082031 364.125 234.226562 363.652344 233.398438 C 363.183594 232.574219 362.664062 231.773438 362.101562 231.007812 C 361.535156 230.238281 360.929688 229.507812 360.277344 228.8125 C 359.628906 228.117188 358.941406 227.460938 358.214844 226.84375 C 357.488281 226.230469 356.726562 225.660156 355.933594 225.132812 C 355.136719 224.605469 354.316406 224.128906 353.464844 223.699219 C 352.617188 223.269531 351.746094 222.890625 350.851562 222.5625 C 349.957031 222.234375 349.046875 221.960938 348.121094 221.738281 C 347.191406 221.519531 346.257812 221.351562 345.3125 221.242188 C 344.363281 221.128906 343.414062 221.074219 342.464844 221.074219 C 341.511719 221.074219 340.5625 221.128906 339.617188 221.242188 C 338.671875 221.351562 337.734375 221.519531 336.808594 221.738281 C 335.882812 221.960938 334.972656 222.234375 334.078125 222.5625 C 333.183594 222.890625 332.3125 223.269531 331.460938 223.699219 C 330.609375 224.128906 329.789062 224.605469 328.996094 225.132812 C 328.203125 225.660156 327.441406 226.230469 326.714844 226.84375 C 325.988281 227.460938 325.296875 228.117188 324.648438 228.8125 C 323.996094 229.507812 323.390625 230.238281 322.828125 231.007812 C 322.261719 231.773438 321.746094 232.574219 321.273438 233.398438 C 320.800781 234.226562 320.382812 235.082031 320.011719 235.957031 C 319.640625 236.835938 319.320312 237.730469 319.054688 238.644531 C 318.789062 239.5625 318.578125 240.488281 318.417969 241.425781 C 318.261719 242.367188 318.160156 243.3125 318.113281 244.261719 C 318.066406 245.214844 318.074219 246.164062 318.140625 247.117188 C 318.203125 248.066406 318.324219 249.011719 318.5 249.945312 C 318.675781 250.882812 318.90625 251.804688 319.1875 252.714844 C 319.472656 253.625 319.808594 254.515625 320.195312 255.382812 C 320.582031 256.253906 321.019531 257.097656 321.507812 257.917969 C 321.992188 258.738281 322.527344 259.523438 323.105469 260.28125 C 323.683594 261.035156 324.304688 261.757812 324.96875 262.441406 C 325.632812 263.125 326.332031 263.765625 327.070312 264.367188 C 327.808594 264.96875 328.582031 265.527344 329.382812 266.035156 C 330.1875 266.546875 331.019531 267.011719 331.875 267.421875 C 332.734375 267.835938 333.613281 268.199219 334.515625 268.511719 C 333.347656 268.730469 332.191406 269.003906 331.050781 269.324219 C 329.90625 269.644531 328.78125 270.015625 327.667969 270.433594 C 326.558594 270.851562 325.464844 271.320312 324.394531 271.832031 C 323.324219 272.34375 322.277344 272.902344 321.253906 273.503906 C 320.230469 274.109375 319.238281 274.753906 318.269531 275.445312 C 317.304688 276.132812 316.367188 276.863281 315.464844 277.632812 C 314.558594 278.402344 313.691406 279.210938 312.855469 280.054688 C 312.023438 280.898438 311.226562 281.777344 310.46875 282.691406 C 309.707031 283.605469 308.992188 284.550781 308.3125 285.523438 C 307.636719 286.5 307.003906 287.503906 306.414062 288.535156 C 305.820312 289.5625 305.277344 290.617188 304.777344 291.695312 C 304.277344 292.773438 303.824219 293.871094 303.421875 294.984375 C 303.015625 296.101562 302.660156 297.234375 302.351562 298.382812 C 302.046875 299.527344 301.789062 300.6875 301.582031 301.855469 C 301.375 303.023438 301.21875 304.199219 301.113281 305.382812 C 301.003906 306.566406 300.949219 307.75 300.949219 308.9375 L 300.949219 328.515625 C 300.949219 329.046875 301 329.570312 301.101562 330.089844 C 301.207031 330.609375 301.359375 331.113281 301.5625 331.601562 C 301.761719 332.089844 302.011719 332.554688 302.304688 332.992188 C 302.597656 333.433594 302.933594 333.839844 303.308594 334.214844 C 303.679688 334.589844 304.089844 334.921875 304.527344 335.21875 C 304.96875 335.511719 305.433594 335.757812 305.921875 335.960938 C 306.410156 336.164062 306.914062 336.316406 307.433594 336.421875 C 307.949219 336.523438 308.472656 336.574219 309.003906 336.574219 L 372.601562 336.574219 L 372.601562 318.410156 C 372.585938 313.539062 373.082031 308.71875 374.09375 303.953125 C 375.105469 299.1875 376.613281 294.582031 378.609375 290.136719 C 377.210938 287.398438 375.53125 284.847656 373.566406 282.484375 C 371.597656 280.121094 369.398438 278.003906 366.957031 276.132812 C 364.519531 274.261719 361.902344 272.683594 359.113281 271.398438 C 356.320312 270.109375 353.421875 269.148438 350.414062 268.511719 Z M 350.414062 268.511719 " fill-opacity="1" fill-rule="nonzero"/><path fill="#000000" d="M 550.398438 268.511719 C 551.296875 268.199219 552.175781 267.835938 553.035156 267.421875 C 553.890625 267.011719 554.722656 266.546875 555.527344 266.035156 C 556.332031 265.527344 557.101562 264.96875 557.839844 264.367188 C 558.578125 263.765625 559.28125 263.125 559.941406 262.441406 C 560.605469 261.757812 561.226562 261.035156 561.804688 260.28125 C 562.386719 259.523438 562.917969 258.738281 563.40625 257.917969 C 563.890625 257.097656 564.328125 256.253906 564.714844 255.382812 C 565.105469 254.515625 565.4375 253.625 565.722656 252.714844 C 566.007812 251.804688 566.234375 250.882812 566.410156 249.945312 C 566.585938 249.011719 566.707031 248.066406 566.769531 247.117188 C 566.835938 246.164062 566.84375 245.214844 566.796875 244.261719 C 566.75 243.3125 566.648438 242.367188 566.492188 241.425781 C 566.335938 240.488281 566.121094 239.5625 565.855469 238.644531 C 565.589844 237.730469 565.273438 236.835938 564.902344 235.957031 C 564.53125 235.082031 564.109375 234.226562 563.636719 233.398438 C 563.167969 232.574219 562.648438 231.773438 562.085938 231.007812 C 561.519531 230.238281 560.914062 229.507812 560.261719 228.8125 C 559.613281 228.117188 558.925781 227.460938 558.195312 226.84375 C 557.46875 226.230469 556.710938 225.660156 555.914062 225.132812 C 555.121094 224.605469 554.300781 224.128906 553.449219 223.699219 C 552.601562 223.269531 551.726562 222.890625 550.835938 222.5625 C 549.941406 222.234375 549.03125 221.960938 548.101562 221.738281 C 547.175781 221.519531 546.242188 221.351562 545.292969 221.242188 C 544.347656 221.128906 543.398438 221.074219 542.449219 221.074219 C 541.496094 221.074219 540.546875 221.128906 539.601562 221.242188 C 538.652344 221.351562 537.71875 221.519531 536.792969 221.738281 C 535.863281 221.960938 534.953125 222.234375 534.0625 222.5625 C 533.167969 222.890625 532.292969 223.269531 531.445312 223.699219 C 530.59375 224.128906 529.773438 224.605469 528.980469 225.132812 C 528.183594 225.660156 527.425781 226.230469 526.699219 226.84375 C 525.96875 227.460938 525.28125 228.117188 524.632812 228.8125 C 523.980469 229.507812 523.375 230.238281 522.808594 231.007812 C 522.246094 231.773438 521.726562 232.574219 521.257812 233.398438 C 520.785156 234.226562 520.363281 235.082031 519.996094 235.957031 C 519.625 236.835938 519.304688 237.730469 519.039062 238.644531 C 518.773438 239.5625 518.5625 240.488281 518.402344 241.425781 C 518.246094 242.367188 518.144531 243.3125 518.097656 244.261719 C 518.050781 245.214844 518.058594 246.164062 518.125 247.117188 C 518.1875 248.066406 518.308594 249.011719 518.484375 249.945312 C 518.660156 250.882812 518.890625 251.804688 519.171875 252.714844 C 519.457031 253.625 519.792969 254.515625 520.179688 255.382812 C 520.566406 256.253906 521.003906 257.097656 521.488281 257.917969 C 521.976562 258.738281 522.507812 259.523438 523.089844 260.28125 C 523.667969 261.035156 524.289062 261.757812 524.953125 262.441406 C 525.613281 263.125 526.316406 263.765625 527.054688 264.367188 C 527.792969 264.96875 528.5625 265.527344 529.367188 266.035156 C 530.171875 266.546875 531.003906 267.011719 531.859375 267.421875 C 532.71875 267.835938 533.597656 268.199219 534.496094 268.511719 C 531.445312 269.128906 528.5 270.078125 525.664062 271.359375 C 522.828125 272.644531 520.171875 274.230469 517.691406 276.113281 C 515.214844 278 512.976562 280.136719 510.984375 282.527344 C 508.988281 284.917969 507.289062 287.503906 505.878906 290.28125 C 507.875 294.722656 509.378906 299.328125 510.390625 304.09375 C 511.40625 308.859375 511.902344 313.679688 511.882812 318.550781 L 511.882812 337 L 575.484375 337 C 576.035156 337.003906 576.578125 336.953125 577.117188 336.847656 C 577.660156 336.742188 578.183594 336.582031 578.691406 336.367188 C 579.195312 336.15625 579.675781 335.894531 580.128906 335.582031 C 580.582031 335.269531 581 334.914062 581.382812 334.515625 C 581.761719 334.121094 582.097656 333.6875 582.390625 333.222656 C 582.683594 332.753906 582.925781 332.265625 583.117188 331.746094 C 583.308594 331.230469 583.445312 330.703125 583.527344 330.15625 C 583.613281 329.613281 583.640625 329.066406 583.609375 328.515625 L 583.609375 308.9375 C 583.609375 307.757812 583.554688 306.578125 583.453125 305.402344 C 583.351562 304.222656 583.199219 303.054688 582.996094 301.890625 C 582.792969 300.726562 582.539062 299.574219 582.234375 298.429688 C 581.933594 297.289062 581.582031 296.164062 581.183594 295.050781 C 580.785156 293.9375 580.339844 292.84375 579.847656 291.773438 C 579.355469 290.699219 578.816406 289.648438 578.234375 288.621094 C 577.648438 287.59375 577.023438 286.59375 576.355469 285.617188 C 575.6875 284.644531 574.976562 283.699219 574.226562 282.789062 C 573.476562 281.875 572.6875 280.996094 571.863281 280.152344 C 571.039062 279.304688 570.179688 278.496094 569.285156 277.726562 C 568.390625 276.957031 567.464844 276.222656 566.503906 275.53125 C 565.546875 274.839844 564.5625 274.191406 563.550781 273.582031 C 562.535156 272.976562 561.5 272.414062 560.4375 271.894531 C 559.375 271.378906 558.292969 270.90625 557.191406 270.480469 C 556.089844 270.054688 554.972656 269.679688 553.835938 269.351562 C 552.703125 269.019531 551.554688 268.742188 550.398438 268.511719 Z M 550.398438 268.511719 " fill-opacity="1" fill-rule="nonzero"/></svg>