<svg xmlns="http://www.w3.org/2000/svg" xmlns:xlink="http://www.w3.org/1999/xlink" width="1122" zoomAndPan="magnify" viewBox="0 0 841.92 595.499987" height="793" preserveAspectRatio="xMidYMid meet" version="1.0"><path fill="#000000" d="M 668.925781 238.980469 L 593.011719 238.980469 L 593.011719 8.816406 C 593.011719 4.910156 589.839844 1.742188 585.933594 1.742188 L 348.5 1.742188 C 344.589844 1.742188 341.421875 4.910156 341.421875 8.816406 L 341.421875 70.695312 C 338.230469 69.746094 334.851562 69.21875 331.34375 69.21875 C 313.46875 69.21875 298.632812 82.601562 296.414062 99.894531 L 276.554688 96.429688 C 270.34375 95.355469 264.257812 96.980469 259.417969 101.035156 C 254.578125 105.085938 251.917969 110.789062 251.917969 117.101562 L 251.917969 120.371094 L 197.027344 120.371094 C 179.933594 120.371094 166.027344 134.265625 166.027344 151.34375 L 166.027344 480.652344 C 166.027344 497.734375 179.933594 511.625 197.027344 511.625 L 465.621094 511.625 C 479.3125 511.625 490.953125 502.714844 495.03125 490.386719 L 608.222656 490.386719 C 612.132812 490.386719 615.300781 487.21875 615.300781 483.3125 L 615.300781 371.777344 L 668.90625 371.777344 C 672.816406 371.777344 675.984375 368.609375 675.984375 364.703125 L 675.984375 246.097656 C 675.984375 242.191406 672.816406 239.023438 668.90625 239.023438 Z M 538.917969 371.753906 L 558.84375 371.753906 L 558.84375 395.925781 L 538.917969 395.925781 Z M 496.617188 357.585938 L 496.617188 253.148438 L 543.125 253.148438 L 543.125 357.585938 Z M 496.617188 238.980469 L 496.617188 151.34375 C 496.617188 145.15625 494.78125 139.375 491.632812 134.539062 L 502.429688 134.539062 L 502.429688 165.785156 C 502.429688 169.691406 505.597656 172.855469 509.507812 172.855469 L 543.609375 172.855469 C 547.519531 172.855469 550.6875 169.691406 550.6875 165.785156 L 550.6875 134.539062 L 578.8125 134.539062 L 578.8125 238.980469 L 496.597656 238.980469 Z M 516.605469 134.539062 L 536.53125 134.539062 L 536.53125 158.714844 L 516.605469 158.714844 Z M 599.625 253.148438 L 619.550781 253.148438 L 619.550781 277.320312 L 599.625 277.320312 Z M 578.832031 120.375 L 474.308594 120.375 L 474.289062 15.914062 L 502.410156 15.914062 L 502.410156 47.15625 C 502.410156 51.0625 505.578125 54.230469 509.488281 54.230469 L 543.589844 54.230469 C 547.5 54.230469 550.667969 51.0625 550.667969 47.15625 L 550.667969 15.914062 L 578.792969 15.914062 L 578.792969 120.351562 Z M 516.609375 15.933594 L 536.53125 15.933594 L 536.53125 40.109375 L 516.609375 40.109375 Z M 397.90625 15.933594 L 417.828125 15.933594 L 417.828125 40.109375 L 397.90625 40.109375 Z M 355.605469 15.933594 L 383.726562 15.933594 L 383.726562 47.179688 C 383.726562 51.085938 386.898438 54.253906 390.804688 54.253906 L 424.910156 54.253906 C 428.816406 54.253906 431.988281 51.085938 431.988281 47.179688 L 431.988281 15.933594 L 460.109375 15.933594 L 460.109375 120.375 L 410.710938 120.375 L 410.710938 117.101562 C 410.710938 110.789062 408.046875 105.089844 403.207031 101.035156 C 398.371094 96.980469 392.285156 95.335938 386.074219 96.433594 L 366.210938 99.894531 C 365.15625 91.703125 361.265625 84.378906 355.539062 78.929688 L 355.582031 15.914062 Z M 266.121094 117.125 C 266.121094 114.953125 266.902344 113.304688 268.550781 111.890625 C 270.21875 110.496094 271.972656 110.011719 274.109375 110.390625 L 301.976562 115.269531 C 304.046875 115.628906 306.160156 115.058594 307.746094 113.707031 C 309.351562 112.355469 310.28125 110.371094 310.28125 108.28125 L 310.28125 104.417969 C 310.28125 92.828125 319.726562 83.390625 331.324219 83.390625 C 342.925781 83.390625 352.371094 92.828125 352.371094 104.417969 L 352.371094 108.28125 C 352.371094 110.371094 353.300781 112.355469 354.90625 113.707031 C 356.511719 115.058594 358.625 115.628906 360.675781 115.269531 L 388.566406 110.390625 C 390.699219 110.011719 392.472656 110.496094 394.121094 111.890625 C 395.789062 113.285156 396.550781 114.953125 396.550781 117.105469 L 396.550781 140.265625 L 266.101562 140.265625 L 266.101562 117.105469 Z M 482.464844 480.679688 C 482.464844 489.949219 474.921875 497.484375 465.644531 497.484375 L 197.027344 497.464844 C 187.753906 497.464844 180.210938 489.925781 180.210938 480.660156 L 180.210938 151.328125 C 180.210938 142.058594 187.753906 134.523438 197.027344 134.523438 L 251.921875 134.523438 L 251.921875 147.335938 C 251.921875 151.242188 255.089844 154.410156 259 154.410156 L 403.628906 154.410156 C 407.535156 154.410156 410.707031 151.242188 410.707031 147.335938 L 410.707031 134.523438 L 465.597656 134.523438 C 474.871094 134.523438 482.417969 142.058594 482.417969 151.328125 L 482.417969 480.636719 Z M 601.167969 476.246094 L 496.640625 476.246094 L 496.640625 371.804688 L 524.765625 371.804688 L 524.765625 403.050781 C 524.765625 406.957031 527.933594 410.125 531.84375 410.125 L 565.945312 410.125 C 569.855469 410.125 573.023438 406.957031 573.023438 403.050781 L 573.023438 371.804688 L 601.144531 371.804688 L 601.144531 476.246094 Z M 661.851562 357.640625 L 557.324219 357.640625 L 557.324219 253.199219 L 585.449219 253.199219 L 585.449219 284.445312 C 585.449219 288.351562 588.617188 291.515625 592.527344 291.515625 L 626.628906 291.515625 C 630.539062 291.515625 633.707031 288.351562 633.707031 284.445312 L 633.707031 253.199219 L 661.832031 253.199219 L 661.832031 357.640625 Z M 340.03125 103.261719 C 340.03125 108.074219 336.121094 111.960938 331.324219 111.960938 C 326.53125 111.960938 322.621094 108.054688 322.621094 103.261719 C 322.621094 98.46875 326.53125 94.5625 331.324219 94.5625 C 336.121094 94.5625 340.03125 98.46875 340.03125 103.261719 Z M 454.421875 235.613281 C 454.421875 239.519531 451.253906 242.683594 447.34375 242.683594 L 330.308594 242.683594 C 326.398438 242.683594 323.230469 239.519531 323.230469 235.613281 C 323.230469 231.707031 326.398438 228.539062 330.308594 228.539062 L 447.34375 228.539062 C 451.253906 228.539062 454.421875 231.707031 454.421875 235.613281 Z M 323.210938 193.664062 C 323.210938 189.757812 326.378906 186.589844 330.289062 186.589844 L 410.070312 186.589844 C 413.980469 186.589844 417.148438 189.757812 417.148438 193.664062 C 417.148438 197.566406 413.980469 200.734375 410.070312 200.734375 L 330.289062 200.734375 C 326.378906 200.734375 323.210938 197.566406 323.210938 193.664062 Z M 284.691406 169.128906 L 222.84375 169.128906 C 214.769531 169.128906 208.222656 175.695312 208.222656 183.738281 L 208.222656 245.535156 C 208.222656 253.601562 214.792969 260.144531 222.84375 260.144531 L 284.691406 260.144531 C 292.761719 260.144531 299.3125 253.582031 299.3125 245.535156 L 299.3125 183.738281 C 299.3125 175.675781 292.742188 169.128906 284.691406 169.128906 Z M 285.15625 245.535156 C 285.15625 245.769531 284.945312 246 284.691406 246 L 222.84375 246 C 222.609375 246 222.378906 245.789062 222.378906 245.535156 L 222.378906 183.738281 C 222.378906 183.507812 222.589844 183.273438 222.84375 183.273438 L 284.691406 183.273438 C 284.921875 183.273438 285.15625 183.484375 285.15625 183.738281 Z M 276.34375 196.535156 C 279.113281 199.300781 279.113281 203.777344 276.34375 206.542969 L 250.101562 232.765625 C 248.769531 234.09375 246.953125 234.832031 245.09375 234.832031 C 244.777344 234.832031 244.480469 234.8125 244.164062 234.769531 C 241.988281 234.472656 240.042969 233.207031 238.945312 231.285156 L 230.070312 215.9375 C 228.105469 212.539062 229.269531 208.210938 232.671875 206.269531 C 236.070312 204.304688 240.402344 205.464844 242.347656 208.863281 L 246.59375 216.210938 L 266.285156 196.535156 C 269.054688 193.769531 273.535156 193.769531 276.300781 196.535156 Z M 284.710938 276.507812 L 222.863281 276.507812 C 214.792969 276.507812 208.242188 283.074219 208.242188 291.117188 L 208.242188 352.914062 C 208.242188 360.980469 214.8125 367.523438 222.863281 367.523438 L 284.710938 367.523438 C 292.785156 367.523438 299.332031 360.960938 299.332031 352.914062 L 299.332031 291.117188 C 299.332031 283.054688 292.761719 276.507812 284.710938 276.507812 Z M 285.175781 352.914062 C 285.175781 353.148438 284.964844 353.378906 284.710938 353.378906 L 222.863281 353.378906 C 222.632812 353.378906 222.398438 353.167969 222.398438 352.914062 L 222.398438 291.117188 C 222.398438 290.886719 222.609375 290.652344 222.863281 290.652344 L 284.710938 290.652344 C 284.945312 290.652344 285.175781 290.863281 285.175781 291.117188 Z M 284.710938 383.886719 L 222.863281 383.886719 C 214.792969 383.886719 208.242188 390.453125 208.242188 398.496094 L 208.242188 460.292969 C 208.242188 468.359375 214.8125 474.902344 222.863281 474.902344 L 284.710938 474.902344 C 292.785156 474.902344 299.332031 468.335938 299.332031 460.292969 L 299.332031 398.496094 C 299.332031 390.429688 292.761719 383.886719 284.710938 383.886719 Z M 285.175781 460.292969 C 285.175781 460.523438 284.964844 460.757812 284.710938 460.757812 L 222.863281 460.757812 C 222.632812 460.757812 222.398438 460.546875 222.398438 460.292969 L 222.398438 398.496094 C 222.398438 398.261719 222.609375 398.03125 222.863281 398.03125 L 284.710938 398.03125 C 284.945312 398.03125 285.175781 398.242188 285.175781 398.496094 Z M 276.367188 303.914062 C 279.132812 306.679688 279.132812 311.15625 276.367188 313.921875 L 250.121094 340.140625 C 248.792969 341.472656 246.976562 342.210938 245.117188 342.210938 C 244.796875 342.210938 244.503906 342.191406 244.1875 342.148438 C 242.007812 341.851562 240.066406 340.585938 238.964844 338.664062 L 230.09375 323.316406 C 228.128906 319.917969 229.289062 315.589844 232.691406 313.644531 C 236.09375 311.683594 240.425781 312.84375 242.367188 316.242188 L 246.617188 323.589844 L 266.308594 303.914062 C 269.078125 301.148438 273.554688 301.148438 276.324219 303.914062 Z M 276.367188 411.289062 C 279.132812 414.054688 279.132812 418.53125 276.367188 421.296875 L 250.121094 447.515625 C 248.792969 448.847656 246.976562 449.585938 245.117188 449.585938 C 244.796875 449.585938 244.503906 449.566406 244.1875 449.523438 C 242.007812 449.226562 240.066406 447.960938 238.964844 446.039062 L 230.09375 430.691406 C 228.128906 427.292969 229.289062 422.964844 232.691406 421.023438 C 236.09375 419.058594 240.425781 420.21875 242.367188 423.617188 L 246.617188 430.988281 L 266.308594 411.308594 C 269.078125 408.542969 273.554688 408.542969 276.324219 411.308594 Z M 454.445312 343.011719 C 454.445312 346.917969 451.273438 350.082031 447.367188 350.082031 L 330.328125 350.082031 C 326.421875 350.082031 323.25 346.917969 323.25 343.011719 C 323.25 339.105469 326.421875 335.9375 330.328125 335.9375 L 447.367188 335.9375 C 451.273438 335.9375 454.445312 339.105469 454.445312 343.011719 Z M 323.230469 301.0625 C 323.230469 297.15625 326.398438 293.988281 330.308594 293.988281 L 410.09375 293.988281 C 414 293.988281 417.171875 297.15625 417.171875 301.0625 C 417.171875 304.96875 414 308.132812 410.09375 308.132812 L 330.308594 308.132812 C 326.398438 308.132812 323.230469 304.96875 323.230469 301.0625 Z M 454.445312 450.386719 C 454.445312 454.292969 451.273438 457.460938 447.367188 457.460938 L 330.328125 457.460938 C 326.421875 457.460938 323.25 454.292969 323.25 450.386719 C 323.25 446.480469 326.421875 443.316406 330.328125 443.316406 L 447.367188 443.316406 C 451.273438 443.316406 454.445312 446.480469 454.445312 450.386719 Z M 323.230469 408.4375 C 323.230469 404.53125 326.398438 401.367188 330.308594 401.367188 L 410.09375 401.367188 C 414 401.367188 417.171875 404.53125 417.171875 408.4375 C 417.171875 412.34375 414 415.511719 410.09375 415.511719 L 330.308594 415.511719 C 326.398438 415.511719 323.230469 412.34375 323.230469 408.4375 Z M 323.230469 408.4375 " fill-opacity="1" fill-rule="nonzero"/></svg>