<svg xmlns="http://www.w3.org/2000/svg" xmlns:xlink="http://www.w3.org/1999/xlink" width="1122" zoomAndPan="magnify" viewBox="0 0 841.92 595.499987" height="793" preserveAspectRatio="xMidYMid meet" version="1.0"><path fill="#000000" d="M 378.503906 195.976562 L 439.359375 195.976562 C 456.136719 195.976562 469.785156 182.335938 469.785156 165.566406 L 469.785156 155.429688 C 469.785156 132.304688 454.105469 112.9375 432.871094 106.894531 C 442.90625 99.503906 449.5 87.71875 449.5 74.332031 C 449.5 51.964844 431.308594 33.78125 408.933594 33.78125 C 386.554688 33.78125 368.363281 51.964844 368.363281 74.332031 C 368.363281 87.71875 374.957031 99.503906 384.992188 106.894531 C 363.757812 112.957031 348.078125 132.300781 348.078125 155.429688 L 348.078125 165.566406 C 348.078125 182.335938 361.730469 195.976562 378.503906 195.976562 Z M 408.933594 54.054688 C 420.109375 54.054688 429.214844 63.160156 429.214844 74.332031 C 429.214844 85.503906 420.109375 94.605469 408.933594 94.605469 C 397.753906 94.605469 388.648438 85.503906 388.648438 74.332031 C 388.648438 63.160156 397.753906 54.054688 408.933594 54.054688 Z M 368.363281 155.429688 C 368.363281 138.660156 382.011719 125.015625 398.789062 125.015625 L 419.074219 125.015625 C 435.851562 125.015625 449.5 138.660156 449.5 155.429688 L 449.5 165.566406 C 449.5 171.164062 444.957031 175.703125 439.359375 175.703125 L 378.503906 175.703125 C 372.90625 175.703125 368.363281 171.164062 368.363281 165.566406 Z M 368.363281 155.429688 " fill-opacity="1" fill-rule="nonzero"/><path fill="#000000" d="M 432.871094 380.601562 C 442.910156 373.207031 449.5 361.421875 449.5 348.035156 C 449.5 325.667969 431.308594 307.484375 408.933594 307.484375 C 386.558594 307.484375 368.363281 325.667969 368.363281 348.035156 C 368.363281 361.425781 374.957031 373.207031 384.992188 380.601562 C 363.757812 386.660156 348.082031 406.007812 348.082031 429.132812 L 348.082031 439.269531 C 348.082031 456.039062 361.730469 469.679688 378.507812 469.679688 L 439.359375 469.679688 C 456.136719 469.679688 469.785156 456.039062 469.785156 439.269531 L 469.785156 429.132812 C 469.785156 406.007812 454.109375 386.640625 432.871094 380.601562 Z M 408.933594 327.757812 C 420.109375 327.757812 429.21875 336.863281 429.21875 348.035156 C 429.21875 359.207031 420.109375 368.308594 408.933594 368.308594 C 397.753906 368.308594 388.648438 359.207031 388.648438 348.035156 C 388.648438 336.863281 397.753906 327.757812 408.933594 327.757812 Z M 449.5 439.269531 C 449.5 444.867188 444.957031 449.40625 439.359375 449.40625 L 378.507812 449.40625 C 372.90625 449.40625 368.363281 444.867188 368.363281 439.269531 L 368.363281 429.132812 C 368.363281 412.363281 382.015625 398.71875 398.792969 398.71875 L 419.074219 398.71875 C 435.851562 398.71875 449.5 412.363281 449.5 429.132812 Z M 449.5 439.269531 " fill-opacity="1" fill-rule="nonzero"/><path fill="#000000" d="M 595.144531 380.601562 C 605.183594 373.207031 611.773438 361.421875 611.773438 348.035156 C 611.773438 325.667969 593.582031 307.484375 571.207031 307.484375 C 548.832031 307.484375 530.636719 325.667969 530.636719 348.035156 C 530.636719 361.425781 537.230469 373.207031 547.265625 380.601562 C 526.03125 386.660156 510.355469 406.007812 510.355469 429.132812 L 510.355469 439.269531 C 510.355469 456.039062 524.003906 469.679688 540.78125 469.679688 L 601.632812 469.679688 C 618.410156 469.679688 632.058594 456.039062 632.058594 439.269531 L 632.058594 429.132812 C 632.058594 406.007812 616.378906 386.640625 595.144531 380.601562 Z M 571.207031 327.757812 C 582.382812 327.757812 591.488281 336.863281 591.488281 348.035156 C 591.488281 359.207031 582.382812 368.308594 571.207031 368.308594 C 560.027344 368.308594 550.921875 359.207031 550.921875 348.035156 C 550.921875 336.863281 560.027344 327.757812 571.207031 327.757812 Z M 611.773438 439.269531 C 611.773438 444.867188 607.230469 449.40625 601.632812 449.40625 L 540.78125 449.40625 C 535.179688 449.40625 530.636719 444.867188 530.636719 439.269531 L 530.636719 429.132812 C 530.636719 412.363281 544.285156 398.71875 561.0625 398.71875 L 581.347656 398.71875 C 598.125 398.71875 611.773438 412.363281 611.773438 429.132812 Z M 611.773438 439.269531 " fill-opacity="1" fill-rule="nonzero"/><path fill="#000000" d="M 270.601562 380.601562 C 280.636719 373.207031 287.226562 361.421875 287.226562 348.035156 C 287.226562 325.667969 269.035156 307.484375 246.660156 307.484375 C 224.285156 307.484375 206.09375 325.667969 206.09375 348.035156 C 206.09375 361.425781 212.683594 373.207031 222.71875 380.601562 C 201.484375 386.660156 185.808594 406.007812 185.808594 429.132812 L 185.808594 439.269531 C 185.808594 456.039062 199.457031 469.679688 216.234375 469.679688 L 277.085938 469.679688 C 293.863281 469.679688 307.511719 456.039062 307.511719 439.269531 L 307.511719 429.132812 C 307.511719 406.007812 291.835938 386.640625 270.601562 380.601562 Z M 246.660156 327.757812 C 257.835938 327.757812 266.945312 336.863281 266.945312 348.035156 C 266.945312 359.207031 257.835938 368.308594 246.660156 368.308594 C 235.484375 368.308594 226.375 359.207031 226.375 348.035156 C 226.375 336.863281 235.484375 327.757812 246.660156 327.757812 Z M 287.226562 439.269531 C 287.226562 444.867188 282.6875 449.40625 277.085938 449.40625 L 216.234375 449.40625 C 210.632812 449.40625 206.09375 444.867188 206.09375 439.269531 L 206.09375 429.132812 C 206.09375 412.363281 219.742188 398.71875 236.519531 398.71875 L 256.800781 398.71875 C 273.578125 398.71875 287.226562 412.363281 287.226562 429.132812 Z M 287.226562 439.269531 " fill-opacity="1" fill-rule="nonzero"/><path fill="#000000" d="M 246.660156 287.210938 C 252.257812 287.210938 256.800781 282.671875 256.800781 277.074219 L 256.800781 256.800781 L 398.789062 256.800781 L 398.789062 277.074219 C 398.789062 282.671875 403.332031 287.210938 408.933594 287.210938 C 414.53125 287.210938 419.074219 282.671875 419.074219 277.074219 L 419.074219 256.800781 L 561.0625 256.800781 L 561.0625 277.074219 C 561.0625 282.671875 565.605469 287.210938 571.203125 287.210938 C 576.804688 287.210938 581.347656 282.671875 581.347656 277.074219 L 581.347656 256.800781 C 581.347656 245.628906 572.238281 236.527344 561.0625 236.527344 L 419.074219 236.527344 L 419.074219 226.390625 C 419.074219 220.792969 414.53125 216.253906 408.933594 216.253906 C 403.332031 216.253906 398.789062 220.792969 398.789062 226.390625 L 398.789062 236.527344 L 256.800781 236.527344 C 245.625 236.527344 236.515625 245.628906 236.515625 256.800781 L 236.515625 277.074219 C 236.515625 282.671875 241.058594 287.210938 246.660156 287.210938 Z M 246.660156 287.210938 " fill-opacity="1" fill-rule="nonzero"/></svg>