<svg xmlns="http://www.w3.org/2000/svg" xmlns:xlink="http://www.w3.org/1999/xlink" width="1122" zoomAndPan="magnify" viewBox="0 0 841.92 595.499987" height="793" preserveAspectRatio="xMidYMid meet" version="1.0"><path fill="#000000" d="M 268.886719 87.847656 L 412.5625 87.847656 C 417.230469 87.847656 421.015625 84.066406 421.015625 79.398438 C 421.015625 74.730469 417.230469 70.953125 412.5625 70.953125 L 268.886719 70.953125 C 264.214844 70.953125 260.433594 74.730469 260.433594 79.398438 C 260.433594 84.066406 264.214844 87.847656 268.886719 87.847656 Z M 268.886719 87.847656 " fill-opacity="1" fill-rule="nonzero"/><path fill="#000000" d="M 268.886719 121.636719 L 412.5625 121.636719 C 417.230469 121.636719 421.015625 117.855469 421.015625 113.191406 C 421.015625 108.523438 417.230469 104.742188 412.5625 104.742188 L 268.886719 104.742188 C 264.214844 104.742188 260.433594 108.523438 260.433594 113.191406 C 260.433594 117.855469 264.214844 121.636719 268.886719 121.636719 Z M 268.886719 121.636719 " fill-opacity="1" fill-rule="nonzero"/><path fill="#000000" d="M 268.886719 155.429688 L 412.5625 155.429688 C 417.230469 155.429688 421.015625 151.648438 421.015625 146.980469 C 421.015625 142.3125 417.230469 138.53125 412.5625 138.53125 L 268.886719 138.53125 C 264.214844 138.53125 260.433594 142.3125 260.433594 146.980469 C 260.433594 151.648438 264.214844 155.429688 268.886719 155.429688 Z M 268.886719 155.429688 " fill-opacity="1" fill-rule="nonzero"/><path fill="#000000" d="M 268.886719 189.21875 L 412.5625 189.21875 C 417.230469 189.21875 421.015625 185.4375 421.015625 180.773438 C 421.015625 176.105469 417.230469 172.324219 412.5625 172.324219 L 268.886719 172.324219 C 264.214844 172.324219 260.433594 176.105469 260.433594 180.773438 C 260.433594 185.4375 264.214844 189.21875 268.886719 189.21875 Z M 268.886719 189.21875 " fill-opacity="1" fill-rule="nonzero"/><path fill="#000000" d="M 230.855469 379.292969 C 252.152344 379.292969 272.5625 370.84375 287.628906 355.785156 C 302.695312 340.726562 311.144531 320.324219 311.144531 299.039062 C 311.144531 277.75 302.695312 257.347656 287.628906 242.292969 C 272.5625 227.234375 252.152344 218.785156 230.855469 218.785156 C 209.558594 218.785156 189.144531 227.234375 174.082031 242.292969 C 159.015625 257.351562 150.5625 277.75 150.5625 299.039062 C 150.585938 320.304688 159.058594 340.707031 174.101562 355.765625 C 189.167969 370.800781 209.578125 379.269531 230.855469 379.289062 Z M 230.855469 235.683594 C 256.484375 235.683594 279.601562 251.121094 289.425781 274.796875 C 299.230469 298.46875 293.796875 325.714844 275.667969 343.835938 C 257.539062 361.957031 230.285156 367.386719 206.59375 357.585938 C 182.910156 347.765625 167.464844 324.660156 167.464844 299.042969 C 167.503906 264.070312 195.859375 235.726562 230.851562 235.683594 Z M 230.855469 235.683594 " fill-opacity="1" fill-rule="nonzero"/><path fill="#000000" d="M 228.148438 305.394531 C 232.757812 306.683594 237.109375 307.886719 238.566406 310.230469 L 238.566406 310.253906 C 239.453125 311.5625 239.539062 313.273438 238.757812 314.667969 C 237.023438 317.265625 231.828125 317.898438 227.832031 317.160156 L 227.855469 317.160156 C 226.292969 316.820312 224.832031 316.144531 223.585938 315.152344 C 221.8125 313.757812 219.570312 313.144531 217.355469 313.421875 C 215.136719 313.695312 213.105469 314.835938 211.710938 316.609375 C 208.839844 320.285156 209.492188 325.585938 213.171875 328.457031 C 216 330.652344 219.234375 332.28125 222.679688 333.25 L 222.679688 337.050781 C 222.679688 341.71875 226.460938 345.5 231.128906 345.5 C 235.800781 345.5 239.582031 341.71875 239.582031 337.050781 L 239.582031 333.1875 C 244.96875 331.878906 249.679688 328.625 252.828125 324.0625 C 257.289062 317.160156 257.351562 308.289062 252.933594 301.339844 C 248.011719 293.378906 239.519531 291.011719 232.691406 289.113281 C 226.355469 287.339844 223.289062 286.261719 222.507812 283.894531 C 221.894531 281.996094 224.496094 280.453125 225.550781 280.007812 L 225.550781 280.03125 C 229.566406 278.550781 234.023438 279.058594 237.617188 281.382812 C 241.546875 283.875 246.765625 282.691406 249.257812 278.765625 C 251.75 274.8125 250.589844 269.597656 246.660156 267.105469 C 245.117188 266.15625 243.511719 265.351562 241.84375 264.675781 L 241.84375 261.023438 C 241.84375 256.355469 238.058594 252.574219 233.390625 252.574219 C 228.722656 252.574219 224.9375 256.355469 224.9375 261.023438 L 224.9375 262.753906 C 222.910156 263.09375 220.925781 263.664062 219.023438 264.425781 C 208.921875 268.015625 203.386719 278.871094 206.449219 289.15625 C 210.128906 300.390625 220.542969 303.285156 228.148438 305.394531 Z M 228.148438 305.394531 " fill-opacity="1" fill-rule="nonzero"/><path fill="#000000" d="M 661.890625 417.308594 L 649.210938 417.308594 L 649.210938 383.519531 L 632.308594 383.519531 L 632.308594 417.308594 L 209.722656 417.308594 L 209.722656 393.742188 C 203.933594 392.453125 198.269531 390.617188 192.820312 388.292969 L 192.820312 417.308594 L 180.140625 417.308594 C 163.808594 417.308594 150.558594 430.550781 150.558594 446.878906 C 150.558594 463.203125 163.808594 476.445312 180.140625 476.445312 L 661.886719 476.445312 C 678.21875 476.445312 691.46875 463.203125 691.46875 446.878906 C 691.46875 430.550781 678.21875 417.308594 661.886719 417.308594 Z M 661.890625 459.546875 L 180.144531 459.546875 C 173.152344 459.546875 167.46875 453.867188 167.46875 446.875 C 167.46875 439.886719 173.152344 434.203125 180.144531 434.203125 L 661.890625 434.203125 C 668.882812 434.203125 674.566406 439.886719 674.566406 446.875 C 674.566406 453.867188 668.882812 459.546875 661.890625 459.546875 Z M 661.890625 459.546875 " fill-opacity="1" fill-rule="nonzero"/><path fill="#000000" d="M 632.308594 146.984375 L 649.210938 146.984375 C 649.1875 133.003906 637.84375 121.660156 623.855469 121.640625 L 471.722656 121.640625 L 471.722656 138.535156 L 623.855469 138.535156 C 628.523438 138.535156 632.308594 142.316406 632.308594 146.984375 Z M 632.308594 146.984375 " fill-opacity="1" fill-rule="nonzero"/><path fill="#000000" d="M 666.113281 163.875 L 497.078125 163.875 C 483.09375 163.894531 471.746094 175.234375 471.722656 189.214844 L 471.722656 341.273438 C 471.746094 355.257812 483.09375 366.597656 497.078125 366.617188 L 666.113281 366.617188 C 680.101562 366.597656 691.449219 355.257812 691.46875 341.273438 L 691.46875 189.214844 C 691.449219 175.234375 680.101562 163.894531 666.113281 163.875 Z M 674.566406 341.273438 C 674.566406 345.941406 670.785156 349.71875 666.113281 349.71875 L 497.078125 349.71875 C 492.410156 349.71875 488.628906 345.941406 488.628906 341.273438 L 488.628906 235.675781 L 674.566406 235.675781 Z M 674.566406 218.78125 L 488.628906 218.78125 L 488.628906 189.214844 C 488.628906 184.546875 492.410156 180.765625 497.078125 180.765625 L 666.113281 180.765625 C 670.785156 180.765625 674.566406 184.546875 674.566406 189.214844 Z M 674.566406 218.78125 " fill-opacity="1" fill-rule="nonzero"/><path fill="#000000" d="M 513.988281 269.472656 L 522.441406 269.472656 C 527.109375 269.472656 530.890625 265.695312 530.890625 261.027344 C 530.890625 256.359375 527.109375 252.578125 522.441406 252.578125 L 513.988281 252.578125 C 509.320312 252.578125 505.535156 256.359375 505.535156 261.027344 C 505.535156 265.695312 509.320312 269.472656 513.988281 269.472656 Z M 513.988281 269.472656 " fill-opacity="1" fill-rule="nonzero"/><path fill="#000000" d="M 556.246094 269.472656 L 564.695312 269.472656 C 569.367188 269.472656 573.148438 265.695312 573.148438 261.027344 C 573.148438 256.359375 569.367188 252.578125 564.695312 252.578125 L 556.246094 252.578125 C 551.574219 252.578125 547.792969 256.359375 547.792969 261.027344 C 547.792969 265.695312 551.574219 269.472656 556.246094 269.472656 Z M 556.246094 269.472656 " fill-opacity="1" fill-rule="nonzero"/><path fill="#000000" d="M 598.5 269.472656 L 606.953125 269.472656 C 611.621094 269.472656 615.402344 265.695312 615.402344 261.027344 C 615.402344 256.359375 611.621094 252.578125 606.953125 252.578125 L 598.5 252.578125 C 593.832031 252.578125 590.046875 256.359375 590.046875 261.027344 C 590.046875 265.695312 593.832031 269.472656 598.5 269.472656 Z M 598.5 269.472656 " fill-opacity="1" fill-rule="nonzero"/><path fill="#000000" d="M 640.761719 269.472656 L 649.214844 269.472656 C 653.882812 269.472656 657.664062 265.695312 657.664062 261.027344 C 657.664062 256.359375 653.882812 252.578125 649.214844 252.578125 L 640.761719 252.578125 C 636.09375 252.578125 632.308594 256.359375 632.308594 261.027344 C 632.308594 265.695312 636.09375 269.472656 640.761719 269.472656 Z M 640.761719 269.472656 " fill-opacity="1" fill-rule="nonzero"/><path fill="#000000" d="M 513.988281 303.265625 L 522.441406 303.265625 C 527.109375 303.265625 530.890625 299.484375 530.890625 294.816406 C 530.890625 290.148438 527.109375 286.371094 522.441406 286.371094 L 513.988281 286.371094 C 509.320312 286.371094 505.535156 290.148438 505.535156 294.816406 C 505.535156 299.484375 509.320312 303.265625 513.988281 303.265625 Z M 513.988281 303.265625 " fill-opacity="1" fill-rule="nonzero"/><path fill="#000000" d="M 556.246094 303.265625 L 564.695312 303.265625 C 569.367188 303.265625 573.148438 299.484375 573.148438 294.816406 C 573.148438 290.148438 569.367188 286.371094 564.695312 286.371094 L 556.246094 286.371094 C 551.574219 286.371094 547.792969 290.148438 547.792969 294.816406 C 547.792969 299.484375 551.574219 303.265625 556.246094 303.265625 Z M 556.246094 303.265625 " fill-opacity="1" fill-rule="nonzero"/><path fill="#000000" d="M 598.5 303.265625 L 606.953125 303.265625 C 611.621094 303.265625 615.402344 299.484375 615.402344 294.816406 C 615.402344 290.148438 611.621094 286.371094 606.953125 286.371094 L 598.5 286.371094 C 593.832031 286.371094 590.046875 290.148438 590.046875 294.816406 C 590.046875 299.484375 593.832031 303.265625 598.5 303.265625 Z M 598.5 303.265625 " fill-opacity="1" fill-rule="nonzero"/><path fill="#000000" d="M 640.761719 303.265625 L 649.214844 303.265625 C 653.882812 303.265625 657.664062 299.484375 657.664062 294.816406 C 657.664062 290.148438 653.882812 286.371094 649.214844 286.371094 L 640.761719 286.371094 C 636.09375 286.371094 632.308594 290.148438 632.308594 294.816406 C 632.308594 299.484375 636.09375 303.265625 640.761719 303.265625 Z M 640.761719 303.265625 " fill-opacity="1" fill-rule="nonzero"/><path fill="#000000" d="M 513.988281 337.054688 L 522.441406 337.054688 C 527.109375 337.054688 530.890625 333.273438 530.890625 328.609375 C 530.890625 323.941406 527.109375 320.160156 522.441406 320.160156 L 513.988281 320.160156 C 509.320312 320.160156 505.535156 323.941406 505.535156 328.609375 C 505.535156 333.273438 509.320312 337.054688 513.988281 337.054688 Z M 513.988281 337.054688 " fill-opacity="1" fill-rule="nonzero"/><path fill="#000000" d="M 556.246094 337.054688 L 564.695312 337.054688 C 569.367188 337.054688 573.148438 333.273438 573.148438 328.609375 C 573.148438 323.941406 569.367188 320.160156 564.695312 320.160156 L 556.246094 320.160156 C 551.574219 320.160156 547.792969 323.941406 547.792969 328.609375 C 547.792969 333.273438 551.574219 337.054688 556.246094 337.054688 Z M 556.246094 337.054688 " fill-opacity="1" fill-rule="nonzero"/><path fill="#000000" d="M 598.5 337.054688 L 606.953125 337.054688 C 611.621094 337.054688 615.402344 333.273438 615.402344 328.609375 C 615.402344 323.941406 611.621094 320.160156 606.953125 320.160156 L 598.5 320.160156 C 593.832031 320.160156 590.046875 323.941406 590.046875 328.609375 C 590.046875 333.273438 593.832031 337.054688 598.5 337.054688 Z M 598.5 337.054688 " fill-opacity="1" fill-rule="nonzero"/><path fill="#000000" d="M 640.761719 337.054688 L 649.214844 337.054688 C 653.882812 337.054688 657.664062 333.273438 657.664062 328.609375 C 657.664062 323.941406 653.882812 320.160156 649.214844 320.160156 L 640.761719 320.160156 C 636.09375 320.160156 632.308594 323.941406 632.308594 328.609375 C 632.308594 333.273438 636.09375 337.054688 640.761719 337.054688 Z M 640.761719 337.054688 " fill-opacity="1" fill-rule="nonzero"/><path fill="#000000" d="M 412.566406 223.011719 C 417.238281 223.011719 421.019531 219.230469 421.019531 214.5625 C 421.019531 209.894531 417.238281 206.113281 412.566406 206.113281 L 268.890625 206.113281 C 267.136719 206.113281 265.40625 206.683594 263.988281 207.699219 C 273.835938 211.308594 283.046875 216.464844 291.269531 223.011719 Z M 412.566406 223.011719 " fill-opacity="1" fill-rule="nonzero"/><path fill="#000000" d="M 353.402344 256.800781 C 358.074219 256.800781 361.855469 253.019531 361.855469 248.351562 C 361.855469 243.6875 358.074219 239.90625 353.402344 239.90625 L 307.890625 239.90625 C 311.949219 245.164062 315.453125 250.824219 318.371094 256.800781 Z M 353.402344 256.800781 " fill-opacity="1" fill-rule="nonzero"/><path fill="#000000" d="M 353.402344 273.695312 L 324.667969 273.695312 C 326.167969 279.230469 327.160156 284.890625 327.667969 290.589844 L 353.402344 290.589844 C 358.074219 290.589844 361.855469 286.8125 361.855469 282.144531 C 361.855469 277.476562 358.074219 273.695312 353.402344 273.695312 Z M 353.402344 273.695312 " fill-opacity="1" fill-rule="nonzero"/><path fill="#000000" d="M 243.535156 202.734375 L 243.535156 54.054688 L 437.925781 54.054688 L 437.925781 252.578125 L 408.34375 252.578125 C 394.355469 252.597656 383.011719 263.941406 382.988281 277.921875 L 382.988281 307.488281 L 327.671875 307.488281 C 327.164062 313.191406 326.171875 318.851562 324.671875 324.382812 L 391.441406 324.382812 C 393.679688 324.363281 395.8125 323.476562 397.417969 321.914062 L 452.355469 267.003906 C 453.898438 265.398438 454.785156 263.265625 454.828125 261.027344 L 454.828125 45.609375 C 454.828125 40.941406 451.042969 37.160156 446.375 37.160156 L 235.085938 37.160156 C 230.414062 37.160156 226.632812 40.941406 226.632812 45.609375 L 226.632812 202.082031 C 228.050781 202.015625 229.445312 201.890625 230.859375 201.890625 C 235.105469 201.890625 239.332031 202.1875 243.535156 202.734375 Z M 412.925781 282.503906 L 399.886719 295.535156 L 399.886719 277.921875 C 399.886719 273.253906 403.671875 269.472656 408.339844 269.472656 L 425.960938 269.472656 Z M 412.925781 282.503906 " fill-opacity="1" fill-rule="nonzero"/><path fill="#000000" d="M 209.726562 146.984375 L 209.726562 123.117188 C 199.605469 126.707031 192.84375 136.253906 192.824219 146.984375 L 192.824219 209.792969 C 198.273438 207.46875 203.9375 205.628906 209.726562 204.34375 Z M 209.726562 146.984375 " fill-opacity="1" fill-rule="nonzero"/></svg>