<svg xmlns="http://www.w3.org/2000/svg" xmlns:xlink="http://www.w3.org/1999/xlink" width="1122" zoomAndPan="magnify" viewBox="0 0 841.92 595.499987" height="793" preserveAspectRatio="xMidYMid meet" version="1.0"><path fill="#000000" d="M 702.429688 37.179688 L 668.496094 6.664062 C 664.984375 3.5 659.921875 2.699219 655.613281 4.625 C 651.300781 6.546875 648.507812 10.839844 648.507812 15.5625 L 648.507812 20.46875 L 511.0625 20.46875 C 451.421875 20.46875 402.894531 68.964844 402.894531 128.578125 C 402.894531 149.4375 408.84375 168.933594 419.117188 185.464844 L 373.621094 185.464844 L 373.621094 180.558594 C 373.621094 175.835938 370.835938 171.542969 366.519531 169.621094 C 362.207031 167.699219 357.148438 168.496094 353.632812 171.660156 L 319.699219 202.175781 C 317.175781 204.441406 315.730469 207.6875 315.730469 211.078125 C 315.730469 214.46875 317.175781 217.707031 319.699219 219.972656 L 353.632812 250.492188 C 355.875 252.511719 358.75 253.570312 361.652344 253.570312 C 363.300781 253.570312 364.957031 253.230469 366.515625 252.535156 C 370.828125 250.613281 373.621094 246.320312 373.621094 241.597656 L 373.621094 236.691406 L 511.0625 236.691406 C 570.707031 236.691406 619.234375 188.195312 619.234375 128.578125 C 619.234375 107.714844 613.285156 88.21875 603.011719 71.6875 L 648.507812 71.6875 L 648.507812 76.59375 C 648.507812 81.316406 651.300781 85.609375 655.613281 87.53125 C 657.171875 88.226562 658.828125 88.566406 660.476562 88.566406 C 663.378906 88.566406 666.253906 87.507812 668.496094 85.492188 L 702.433594 54.972656 C 704.957031 52.707031 706.402344 49.457031 706.402344 46.074219 C 706.402344 42.691406 704.957031 39.445312 702.433594 37.179688 Z M 365.558594 220.570312 C 361.101562 220.570312 357.496094 224.179688 357.496094 228.628906 L 357.496094 232.273438 L 333.925781 211.078125 L 357.496094 189.882812 L 357.496094 193.527344 C 357.496094 197.984375 361.105469 201.585938 365.558594 201.585938 L 431.363281 201.585938 C 438.085938 208.914062 445.804688 215.304688 454.300781 220.5625 L 365.558594 220.5625 Z M 511.0625 220.570312 C 460.316406 220.570312 419.023438 179.304688 419.023438 128.578125 C 419.023438 77.847656 460.3125 36.589844 511.0625 36.589844 C 561.816406 36.589844 603.105469 77.855469 603.105469 128.578125 C 603.105469 179.296875 561.816406 220.570312 511.0625 220.570312 Z M 664.640625 67.277344 L 664.640625 63.628906 C 664.640625 59.175781 661.027344 55.570312 656.578125 55.570312 L 590.769531 55.570312 C 584.046875 48.246094 576.328125 41.851562 567.832031 36.59375 L 656.578125 36.59375 C 661.035156 36.59375 664.640625 32.984375 664.640625 28.539062 L 664.640625 24.890625 L 688.207031 46.085938 L 664.640625 67.28125 Z M 511.0625 40.691406 C 462.578125 40.691406 423.128906 80.121094 423.128906 128.582031 C 423.128906 177.042969 462.578125 216.472656 511.0625 216.472656 C 559.550781 216.472656 599 177.042969 599 128.582031 C 599 80.121094 559.550781 40.691406 511.0625 40.691406 Z M 511.0625 200.34375 C 471.472656 200.34375 439.257812 168.148438 439.257812 128.578125 C 439.257812 89.003906 471.472656 56.808594 511.0625 56.808594 C 550.65625 56.808594 582.867188 89.003906 582.867188 128.578125 C 582.867188 168.148438 550.65625 200.34375 511.0625 200.34375 Z M 541.726562 156.757812 C 539.363281 166.683594 530.65625 173.738281 519.132812 175.707031 L 519.132812 183.167969 C 519.132812 187.625 515.519531 191.226562 511.070312 191.226562 C 506.621094 191.226562 503.007812 187.617188 503.007812 183.167969 L 503.007812 175.117188 C 492.195312 172.410156 482.1875 164.910156 479.71875 151.90625 C 478.886719 147.535156 481.761719 143.3125 486.140625 142.484375 C 490.511719 141.652344 494.738281 144.527344 495.566406 148.902344 C 497.09375 156.960938 505.304688 160 511.875 160.15625 C 518.007812 160.273438 524.878906 157.894531 526.039062 153.03125 C 526.785156 149.894531 528.335938 143.371094 514.3125 138.476562 C 512.671875 137.902344 510.8125 137.367188 508.855469 136.796875 C 502.167969 134.851562 494.582031 132.648438 488.941406 127.273438 C 479.011719 117.804688 477.84375 102.578125 486.230469 91.847656 C 490.210938 86.757812 496.199219 83.273438 503.007812 81.738281 L 503.007812 73.984375 C 503.007812 69.53125 506.621094 65.925781 511.070312 65.925781 C 515.519531 65.925781 519.132812 69.535156 519.132812 73.984375 L 519.132812 81.734375 C 519.472656 81.804688 519.816406 81.863281 520.15625 81.945312 C 532.019531 84.847656 540.296875 93.03125 542.296875 103.832031 C 543.105469 108.207031 540.214844 112.414062 535.835938 113.222656 C 531.449219 114.035156 527.25 111.140625 526.4375 106.761719 C 525.316406 100.671875 519.613281 98.414062 516.324219 97.605469 C 509.558594 95.953125 502.085938 97.742188 498.933594 101.769531 C 496.09375 105.402344 495.570312 111.3125 500.070312 115.601562 C 502.863281 118.265625 508.195312 119.816406 513.355469 121.308594 C 515.429688 121.914062 517.578125 122.535156 519.625 123.253906 C 537.269531 129.414062 545.324219 141.625 541.726562 156.757812 Z M 675.683594 261.238281 C 672.386719 259.671875 668.714844 258.84375 665.082031 258.84375 L 291.53125 258.84375 L 275.003906 197.179688 C 272.355469 186.003906 262.507812 178.222656 251 178.222656 L 160.3125 178.222656 C 146.710938 178.222656 135.644531 189.28125 135.644531 202.878906 C 135.644531 216.472656 146.710938 227.53125 160.3125 227.53125 L 232.074219 227.53125 L 291.117188 447.765625 C 286.183594 450.523438 281.667969 453.949219 277.617188 457.992188 C 265.960938 469.648438 259.535156 485.101562 259.535156 501.511719 C 259.535156 517.925781 265.953125 533.375 277.617188 545.027344 C 289.277344 556.675781 304.734375 563.097656 321.15625 563.097656 L 329.019531 563.097656 C 337.054688 575.628906 351.097656 583.957031 367.0625 583.957031 C 383.027344 583.957031 397.066406 575.628906 405.105469 563.097656 L 494.738281 563.097656 C 502.777344 575.628906 516.816406 583.957031 532.78125 583.957031 C 557.6875 583.957031 577.953125 563.699219 577.953125 538.8125 C 577.953125 513.925781 557.6875 493.664062 532.78125 493.664062 C 517.132812 493.664062 503.316406 501.660156 495.207031 513.789062 L 404.636719 513.789062 C 396.527344 501.667969 382.71875 493.664062 367.0625 493.664062 C 351.40625 493.664062 337.597656 501.660156 329.488281 513.789062 L 321.15625 513.789062 C 317.921875 513.789062 314.84375 512.496094 312.507812 510.164062 C 310.167969 507.828125 308.882812 504.761719 308.882812 501.519531 C 308.882812 498.277344 310.175781 495.210938 312.507812 492.871094 C 314.84375 490.535156 317.914062 489.25 321.15625 489.25 L 578.679688 489.25 C 588.367188 489.25 597.179688 483.566406 601.164062 474.746094 L 687.34375 294.109375 C 690.175781 288.171875 690.523438 281.476562 688.316406 275.261719 C 686.109375 269.042969 681.621094 264.066406 675.683594 261.238281 Z M 532.777344 509.792969 C 548.789062 509.792969 561.816406 522.808594 561.816406 538.816406 C 561.816406 554.828125 548.792969 567.84375 532.777344 567.84375 C 516.757812 567.84375 503.734375 554.828125 503.734375 538.816406 C 503.734375 522.808594 516.757812 509.792969 532.777344 509.792969 Z M 488.496094 529.914062 C 487.917969 532.792969 487.609375 535.773438 487.609375 538.816406 C 487.609375 541.605469 487.878906 544.335938 488.363281 546.988281 L 411.480469 546.988281 C 411.96875 544.335938 412.234375 541.605469 412.234375 538.816406 C 412.234375 535.773438 411.925781 532.792969 411.347656 529.914062 Z M 367.0625 509.792969 C 383.074219 509.792969 396.105469 522.808594 396.105469 538.816406 C 396.105469 554.828125 383.078125 567.84375 367.0625 567.84375 C 351.042969 567.84375 338.019531 554.828125 338.019531 538.816406 C 338.019531 522.808594 351.042969 509.792969 367.0625 509.792969 Z M 672.785156 287.175781 L 586.5625 467.890625 C 586.535156 467.949219 586.503906 468.007812 586.480469 468.074219 C 585.105469 471.140625 582.046875 473.128906 578.679688 473.128906 L 321.15625 473.128906 C 313.609375 473.128906 306.484375 476.089844 301.101562 481.476562 C 295.714844 486.859375 292.753906 493.976562 292.753906 501.523438 C 292.753906 509.070312 295.714844 516.183594 301.101562 521.570312 C 306.484375 526.953125 313.609375 529.921875 321.15625 529.921875 L 322.777344 529.921875 C 322.199219 532.800781 321.890625 535.78125 321.890625 538.824219 C 321.890625 541.613281 322.15625 544.34375 322.644531 546.996094 L 321.15625 546.996094 C 309.050781 546.996094 297.636719 542.253906 289.023438 533.644531 C 280.40625 525.039062 275.664062 513.632812 275.664062 501.53125 C 275.664062 489.429688 280.40625 478.023438 289.023438 469.410156 C 293.269531 465.164062 298.222656 461.847656 303.730469 459.546875 C 307.457031 457.988281 309.460938 453.921875 308.414062 450.023438 L 246.050781 217.40625 C 245.105469 213.878906 241.910156 211.429688 238.261719 211.429688 L 160.3125 211.429688 C 155.597656 211.429688 151.773438 207.597656 151.773438 202.894531 C 151.773438 198.191406 155.605469 194.359375 160.3125 194.359375 L 251 194.359375 C 255.007812 194.359375 258.425781 197.078125 259.324219 200.96875 C 259.347656 201.0625 259.367188 201.152344 259.398438 201.242188 L 277.5625 269 C 278.507812 272.527344 281.703125 274.976562 285.351562 274.976562 L 665.085938 274.976562 C 666.359375 274.976562 667.597656 275.257812 668.757812 275.808594 C 670.804688 276.785156 672.355469 278.511719 673.117188 280.667969 C 673.886719 282.828125 673.765625 285.140625 672.792969 287.1875 Z M 638.761719 292.039062 L 294.246094 292.039062 C 291.742188 292.039062 289.375 293.203125 287.851562 295.191406 C 286.328125 297.175781 285.808594 299.765625 286.457031 302.183594 L 326.109375 450.078125 C 327.054688 453.605469 330.25 456.054688 333.898438 456.054688 L 568.207031 456.054688 C 571.3125 456.054688 574.152344 454.269531 575.484375 451.464844 L 646.046875 303.570312 C 647.234375 301.074219 647.0625 298.140625 645.589844 295.796875 C 644.113281 293.453125 641.535156 292.039062 638.769531 292.039062 Z M 546.917969 340.363281 L 497.683594 340.363281 L 500.347656 308.160156 L 555.476562 308.160156 L 546.925781 340.363281 Z M 559.324219 356.484375 L 602.925781 356.484375 L 586.171875 391.601562 L 550 391.601562 Z M 317.707031 356.484375 L 359.558594 356.484375 L 365.675781 391.601562 L 327.121094 391.601562 Z M 433.375 340.363281 L 430.710938 308.160156 L 484.152344 308.160156 L 481.488281 340.363281 L 433.367188 340.363281 Z M 480.160156 356.484375 L 477.257812 391.601562 L 437.613281 391.601562 L 434.707031 356.484375 Z M 417.191406 340.363281 L 373.125 340.363281 L 367.519531 308.160156 L 414.53125 308.160156 L 417.195312 340.363281 Z M 418.523438 356.484375 L 421.425781 391.601562 L 382.042969 391.601562 L 375.929688 356.484375 Z M 384.851562 407.722656 L 422.761719 407.722656 L 425.425781 439.925781 L 390.464844 439.925781 L 384.859375 407.722656 Z M 438.945312 407.722656 L 475.921875 407.722656 L 473.257812 439.925781 L 441.609375 439.925781 Z M 492.109375 407.722656 L 529.035156 407.722656 L 520.484375 439.925781 L 489.449219 439.925781 L 492.113281 407.722656 Z M 493.441406 391.601562 L 496.34375 356.484375 L 542.636719 356.484375 L 533.3125 391.601562 Z M 351.144531 308.160156 L 356.75 340.363281 L 313.382812 340.363281 L 304.746094 308.160156 Z M 331.441406 407.722656 L 368.476562 407.722656 L 374.082031 439.925781 L 340.074219 439.925781 Z M 563.109375 439.925781 L 537.167969 439.925781 L 545.71875 407.722656 L 578.472656 407.722656 Z M 610.613281 340.363281 L 563.601562 340.363281 L 572.152344 308.160156 L 625.976562 308.160156 Z M 532.769531 558.632812 C 543.707031 558.632812 552.601562 549.742188 552.601562 538.8125 C 552.601562 527.882812 543.707031 518.992188 532.769531 518.992188 C 521.832031 518.992188 512.9375 527.882812 512.9375 538.8125 C 512.9375 549.742188 521.832031 558.632812 532.769531 558.632812 Z M 532.769531 535.121094 C 534.8125 535.121094 536.472656 536.777344 536.472656 538.816406 C 536.472656 540.859375 534.8125 542.515625 532.769531 542.515625 C 530.730469 542.515625 529.070312 540.859375 529.070312 538.816406 C 529.070312 536.777344 530.730469 535.121094 532.769531 535.121094 Z M 367.054688 558.632812 C 377.992188 558.632812 386.886719 549.742188 386.886719 538.8125 C 386.886719 527.882812 377.992188 518.992188 367.054688 518.992188 C 356.121094 518.992188 347.226562 527.882812 347.226562 538.8125 C 347.226562 549.742188 356.121094 558.632812 367.054688 558.632812 Z M 367.054688 535.121094 C 369.097656 535.121094 370.757812 536.777344 370.757812 538.816406 C 370.757812 540.859375 369.097656 542.515625 367.054688 542.515625 C 365.015625 542.515625 363.355469 540.859375 363.355469 538.816406 C 363.355469 536.777344 365.015625 535.121094 367.054688 535.121094 Z M 367.054688 535.121094 " fill-opacity="1" fill-rule="nonzero"/></svg>