<svg xmlns="http://www.w3.org/2000/svg" xmlns:xlink="http://www.w3.org/1999/xlink" width="1122" zoomAndPan="magnify" viewBox="0 0 841.92 595.499987" height="793" preserveAspectRatio="xMidYMid meet" version="1.0"><defs><clipPath id="dd6912d1d2"><path d="M 223 10.835938 L 619 10.835938 L 619 571 L 223 571 Z M 223 10.835938 " clip-rule="nonzero"/></clipPath></defs><g clip-path="url(#dd6912d1d2)"><path fill="#000000" d="M 412.011719 56.21875 C 412.011719 55.628906 412.070312 55.046875 412.1875 54.46875 C 412.300781 53.890625 412.472656 53.332031 412.695312 52.789062 C 412.921875 52.242188 413.199219 51.726562 413.527344 51.238281 C 413.851562 50.746094 414.226562 50.292969 414.640625 49.878906 C 415.058594 49.460938 415.511719 49.089844 416 48.761719 C 416.492188 48.433594 417.007812 48.160156 417.550781 47.933594 C 418.097656 47.707031 418.65625 47.539062 419.234375 47.421875 C 419.8125 47.308594 420.398438 47.25 420.988281 47.25 C 421.574219 47.25 422.160156 47.308594 422.738281 47.421875 C 423.316406 47.539062 423.875 47.707031 424.421875 47.933594 C 424.964844 48.160156 425.480469 48.433594 425.972656 48.761719 C 426.460938 49.089844 426.914062 49.460938 427.332031 49.878906 C 427.75 50.292969 428.121094 50.746094 428.449219 51.238281 C 428.773438 51.726562 429.050781 52.242188 429.277344 52.789062 C 429.503906 53.332031 429.671875 53.890625 429.789062 54.46875 C 429.902344 55.046875 429.960938 55.628906 429.960938 56.21875 C 429.960938 56.808594 429.902344 57.390625 429.789062 57.96875 C 429.671875 58.546875 429.503906 59.109375 429.277344 59.652344 C 429.050781 60.195312 428.773438 60.714844 428.449219 61.203125 C 428.121094 61.691406 427.75 62.144531 427.332031 62.5625 C 426.914062 62.976562 426.460938 63.351562 425.972656 63.675781 C 425.480469 64.003906 424.964844 64.28125 424.421875 64.507812 C 423.875 64.730469 423.316406 64.902344 422.738281 65.015625 C 422.160156 65.132812 421.574219 65.1875 420.988281 65.1875 C 420.398438 65.1875 419.816406 65.128906 419.238281 65.015625 C 418.660156 64.898438 418.097656 64.730469 417.554688 64.503906 C 417.011719 64.277344 416.492188 64 416.003906 63.671875 C 415.515625 63.347656 415.0625 62.976562 414.644531 62.558594 C 414.230469 62.140625 413.855469 61.6875 413.53125 61.199219 C 413.203125 60.710938 412.925781 60.195312 412.699219 59.648438 C 412.472656 59.105469 412.304688 58.546875 412.1875 57.96875 C 412.074219 57.390625 412.015625 56.808594 412.011719 56.21875 Z M 301.722656 135.527344 L 301.722656 99.769531 L 345.636719 99.769531 C 346.078125 99.769531 346.515625 99.726562 346.949219 99.640625 C 347.382812 99.554688 347.804688 99.425781 348.210938 99.257812 C 348.621094 99.085938 349.007812 98.878906 349.375 98.632812 C 349.742188 98.390625 350.085938 98.109375 350.398438 97.796875 C 350.710938 97.484375 350.988281 97.144531 351.234375 96.777344 C 351.480469 96.410156 351.6875 96.023438 351.855469 95.613281 C 352.027344 95.207031 352.152344 94.785156 352.238281 94.351562 C 352.328125 93.917969 352.371094 93.480469 352.371094 93.039062 C 352.371094 92.59375 352.328125 92.15625 352.238281 91.722656 C 352.152344 91.289062 352.027344 90.871094 351.855469 90.460938 C 351.6875 90.054688 351.480469 89.664062 351.234375 89.296875 C 350.988281 88.929688 350.710938 88.589844 350.398438 88.277344 C 350.085938 87.964844 349.742188 87.6875 349.375 87.441406 C 349.007812 87.195312 348.621094 86.988281 348.210938 86.820312 C 347.804688 86.648438 347.382812 86.523438 346.949219 86.4375 C 346.515625 86.347656 346.078125 86.304688 345.636719 86.304688 L 312.167969 86.304688 L 312.167969 70.761719 C 312.171875 69.808594 312.265625 68.863281 312.453125 67.925781 C 312.644531 66.992188 312.921875 66.082031 313.289062 65.203125 C 313.652344 64.320312 314.101562 63.484375 314.632812 62.691406 C 315.164062 61.898438 315.769531 61.164062 316.445312 60.488281 C 317.121094 59.816406 317.855469 59.210938 318.648438 58.679688 C 319.441406 58.152344 320.277344 57.703125 321.160156 57.335938 C 322.042969 56.96875 322.949219 56.691406 323.886719 56.503906 C 324.824219 56.316406 325.769531 56.222656 326.722656 56.21875 L 374.722656 56.21875 C 374.722656 54.703125 374.796875 53.195312 374.945312 51.6875 C 375.09375 50.179688 375.3125 48.683594 375.609375 47.199219 C 375.90625 45.710938 376.273438 44.246094 376.714844 42.796875 C 377.152344 41.347656 377.664062 39.921875 378.242188 38.523438 C 378.824219 37.121094 379.46875 35.753906 380.183594 34.417969 C 380.898438 33.082031 381.675781 31.785156 382.519531 30.527344 C 383.359375 29.265625 384.261719 28.050781 385.222656 26.882812 C 386.183594 25.710938 387.199219 24.589844 388.273438 23.519531 C 389.34375 22.449219 390.464844 21.433594 391.636719 20.472656 C 392.808594 19.511719 394.023438 18.609375 395.28125 17.769531 C 396.542969 16.925781 397.839844 16.148438 399.175781 15.433594 C 400.511719 14.71875 401.882812 14.074219 403.28125 13.492188 C 404.679688 12.914062 406.105469 12.40625 407.554688 11.964844 C 409.007812 11.527344 410.472656 11.15625 411.960938 10.863281 C 413.445312 10.566406 414.945312 10.34375 416.453125 10.195312 C 417.960938 10.046875 419.472656 9.972656 420.988281 9.972656 C 422.5 9.972656 424.011719 10.046875 425.523438 10.195312 C 427.03125 10.34375 428.527344 10.566406 430.011719 10.863281 C 431.5 11.15625 432.96875 11.527344 434.417969 11.964844 C 435.867188 12.40625 437.292969 12.914062 438.691406 13.492188 C 440.089844 14.074219 441.460938 14.71875 442.796875 15.433594 C 444.132812 16.148438 445.429688 16.925781 446.691406 17.769531 C 447.949219 18.609375 449.167969 19.511719 450.335938 20.472656 C 451.507812 21.433594 452.628906 22.449219 453.703125 23.519531 C 454.773438 24.589844 455.789062 25.710938 456.75 26.882812 C 457.710938 28.050781 458.613281 29.265625 459.457031 30.527344 C 460.296875 31.785156 461.074219 33.082031 461.789062 34.417969 C 462.503906 35.753906 463.152344 37.121094 463.730469 38.523438 C 464.308594 39.921875 464.820312 41.347656 465.261719 42.796875 C 465.699219 44.246094 466.066406 45.710938 466.363281 47.199219 C 466.660156 48.683594 466.882812 50.179688 467.03125 51.6875 C 467.179688 53.195312 467.253906 54.703125 467.253906 56.21875 L 515.25 56.21875 C 516.203125 56.222656 517.148438 56.316406 518.085938 56.503906 C 519.023438 56.691406 519.929688 56.96875 520.8125 57.335938 C 521.695312 57.703125 522.53125 58.152344 523.324219 58.679688 C 524.121094 59.210938 524.855469 59.816406 525.53125 60.488281 C 526.203125 61.164062 526.808594 61.898438 527.339844 62.691406 C 527.871094 63.484375 528.320312 64.320312 528.6875 65.203125 C 529.050781 66.082031 529.328125 66.992188 529.519531 67.925781 C 529.707031 68.863281 529.800781 69.808594 529.804688 70.761719 L 529.804688 86.304688 L 403.433594 86.304688 C 402.992188 86.304688 402.550781 86.347656 402.117188 86.4375 C 401.683594 86.523438 401.265625 86.648438 400.855469 86.820312 C 400.445312 86.988281 400.058594 87.195312 399.691406 87.441406 C 399.324219 87.6875 398.984375 87.964844 398.671875 88.277344 C 398.359375 88.589844 398.078125 88.929688 397.832031 89.296875 C 397.585938 89.664062 397.378906 90.054688 397.210938 90.460938 C 397.042969 90.871094 396.914062 91.289062 396.828125 91.722656 C 396.742188 92.15625 396.699219 92.597656 396.699219 93.039062 C 396.699219 93.480469 396.742188 93.917969 396.828125 94.351562 C 396.914062 94.785156 397.042969 95.207031 397.210938 95.613281 C 397.378906 96.023438 397.585938 96.410156 397.832031 96.777344 C 398.078125 97.144531 398.359375 97.484375 398.671875 97.796875 C 398.984375 98.109375 399.324219 98.390625 399.691406 98.632812 C 400.058594 98.878906 400.445312 99.085938 400.855469 99.257812 C 401.265625 99.425781 401.683594 99.554688 402.117188 99.640625 C 402.550781 99.726562 402.992188 99.769531 403.433594 99.769531 L 540.25 99.769531 L 540.25 135.527344 C 540.25 136.480469 540.152344 137.425781 539.964844 138.359375 C 539.777344 139.296875 539.5 140.203125 539.132812 141.085938 C 538.765625 141.96875 538.320312 142.804688 537.789062 143.597656 C 537.257812 144.390625 536.652344 145.125 535.980469 145.800781 C 535.304688 146.476562 534.570312 147.078125 533.777344 147.609375 C 532.984375 148.140625 532.144531 148.589844 531.265625 148.957031 C 530.382812 149.320312 529.472656 149.597656 528.539062 149.789062 C 527.601562 149.976562 526.65625 150.070312 525.703125 150.074219 L 456.765625 150.074219 C 456.222656 149.414062 455.667969 148.773438 455.089844 148.144531 C 454.515625 147.515625 453.921875 146.90625 453.3125 146.308594 C 452.703125 145.714844 452.074219 145.136719 451.433594 144.574219 C 450.792969 144.015625 450.136719 143.472656 449.464844 142.949219 C 448.792969 142.421875 448.105469 141.917969 447.40625 141.429688 C 446.707031 140.945312 445.996094 140.476562 445.269531 140.03125 C 444.542969 139.582031 443.804688 139.15625 443.058594 138.75 C 442.308594 138.34375 441.546875 137.957031 440.777344 137.59375 C 440.007812 137.230469 439.226562 136.886719 438.4375 136.566406 C 437.648438 136.246094 436.851562 135.945312 436.046875 135.667969 C 435.238281 135.390625 434.425781 135.136719 433.605469 134.902344 C 432.785156 134.671875 431.960938 134.460938 431.128906 134.273438 C 430.296875 134.085938 429.460938 133.925781 428.621094 133.785156 C 427.78125 133.644531 426.9375 133.527344 426.089844 133.429688 C 425.242188 133.335938 424.394531 133.265625 423.542969 133.21875 C 422.691406 133.171875 421.839844 133.148438 420.988281 133.148438 C 420.132812 133.148438 419.28125 133.171875 418.433594 133.21875 C 417.582031 133.265625 416.730469 133.335938 415.882812 133.429688 C 415.039062 133.527344 414.195312 133.644531 413.351562 133.785156 C 412.511719 133.925781 411.675781 134.085938 410.84375 134.273438 C 410.011719 134.460938 409.1875 134.671875 408.367188 134.902344 C 407.546875 135.136719 406.734375 135.390625 405.929688 135.667969 C 405.121094 135.945312 404.324219 136.246094 403.535156 136.566406 C 402.746094 136.886719 401.964844 137.230469 401.195312 137.59375 C 400.425781 137.957031 399.664062 138.34375 398.917969 138.75 C 398.167969 139.15625 397.429688 139.582031 396.703125 140.03125 C 395.980469 140.476562 395.265625 140.945312 394.566406 141.429688 C 393.867188 141.917969 393.179688 142.421875 392.507812 142.949219 C 391.835938 143.472656 391.179688 144.015625 390.539062 144.574219 C 389.898438 145.136719 389.273438 145.714844 388.660156 146.308594 C 388.050781 146.90625 387.460938 147.515625 386.882812 148.144531 C 386.308594 148.773438 385.75 149.414062 385.207031 150.074219 L 316.273438 150.074219 C 315.316406 150.070312 314.371094 149.976562 313.433594 149.789062 C 312.5 149.597656 311.589844 149.320312 310.710938 148.957031 C 309.828125 148.589844 308.988281 148.140625 308.195312 147.609375 C 307.402344 147.078125 306.667969 146.476562 305.992188 145.800781 C 305.320312 145.125 304.714844 144.390625 304.183594 143.597656 C 303.65625 142.804688 303.207031 141.96875 302.839844 141.085938 C 302.472656 140.203125 302.195312 139.296875 302.007812 138.359375 C 301.820312 137.425781 301.726562 136.480469 301.722656 135.527344 Z M 398.542969 56.21875 C 398.542969 56.953125 398.582031 57.6875 398.652344 58.417969 C 398.726562 59.148438 398.832031 59.875 398.976562 60.597656 C 399.121094 61.316406 399.296875 62.027344 399.511719 62.730469 C 399.722656 63.433594 399.972656 64.125 400.253906 64.804688 C 400.535156 65.484375 400.847656 66.144531 401.195312 66.792969 C 401.542969 67.441406 401.917969 68.070312 402.328125 68.683594 C 402.734375 69.292969 403.171875 69.882812 403.640625 70.449219 C 404.105469 71.019531 404.597656 71.5625 405.117188 72.082031 C 405.636719 72.601562 406.179688 73.09375 406.75 73.558594 C 407.316406 74.027344 407.90625 74.464844 408.519531 74.871094 C 409.128906 75.28125 409.757812 75.65625 410.40625 76.003906 C 411.054688 76.347656 411.71875 76.664062 412.398438 76.945312 C 413.078125 77.226562 413.769531 77.472656 414.472656 77.6875 C 415.175781 77.898438 415.886719 78.078125 416.609375 78.222656 C 417.328125 78.363281 418.054688 78.472656 418.785156 78.542969 C 419.519531 78.617188 420.25 78.652344 420.988281 78.652344 C 421.722656 78.652344 422.453125 78.617188 423.1875 78.542969 C 423.917969 78.472656 424.644531 78.363281 425.363281 78.222656 C 426.085938 78.078125 426.796875 77.898438 427.5 77.6875 C 428.203125 77.472656 428.894531 77.226562 429.574219 76.945312 C 430.253906 76.664062 430.917969 76.347656 431.566406 76.003906 C 432.214844 75.65625 432.84375 75.28125 433.453125 74.871094 C 434.066406 74.464844 434.65625 74.027344 435.222656 73.558594 C 435.792969 73.09375 436.335938 72.601562 436.855469 72.082031 C 437.375 71.5625 437.867188 71.019531 438.335938 70.449219 C 438.800781 69.882812 439.238281 69.292969 439.644531 68.683594 C 440.054688 68.070312 440.433594 67.441406 440.777344 66.792969 C 441.125 66.144531 441.4375 65.484375 441.71875 64.804688 C 442 64.125 442.25 63.433594 442.460938 62.730469 C 442.675781 62.027344 442.855469 61.316406 442.996094 60.597656 C 443.140625 59.875 443.25 59.148438 443.320312 58.417969 C 443.394531 57.6875 443.429688 56.953125 443.429688 56.21875 C 443.429688 55.484375 443.394531 54.753906 443.320312 54.019531 C 443.25 53.289062 443.140625 52.5625 442.996094 51.84375 C 442.855469 51.121094 442.675781 50.410156 442.460938 49.707031 C 442.25 49.003906 442 48.3125 441.71875 47.636719 C 441.4375 46.957031 441.125 46.292969 440.777344 45.644531 C 440.433594 44.996094 440.054688 44.367188 439.644531 43.757812 C 439.238281 43.144531 438.800781 42.558594 438.335938 41.988281 C 437.867188 41.421875 437.375 40.878906 436.855469 40.359375 C 436.335938 39.839844 435.792969 39.34375 435.222656 38.878906 C 434.65625 38.414062 434.066406 37.976562 433.453125 37.566406 C 432.84375 37.160156 432.214844 36.78125 431.566406 36.4375 C 430.917969 36.089844 430.253906 35.777344 429.574219 35.496094 C 428.894531 35.214844 428.203125 34.964844 427.5 34.753906 C 426.796875 34.539062 426.085938 34.363281 425.363281 34.21875 C 424.644531 34.074219 423.917969 33.96875 423.1875 33.894531 C 422.453125 33.824219 421.722656 33.789062 420.988281 33.789062 C 420.25 33.789062 419.519531 33.824219 418.789062 33.898438 C 418.054688 33.96875 417.332031 34.078125 416.609375 34.222656 C 415.890625 34.367188 415.179688 34.546875 414.476562 34.757812 C 413.773438 34.972656 413.082031 35.21875 412.402344 35.5 C 411.722656 35.78125 411.058594 36.097656 410.414062 36.441406 C 409.765625 36.789062 409.136719 37.167969 408.523438 37.574219 C 407.914062 37.984375 407.324219 38.421875 406.757812 38.886719 C 406.1875 39.351562 405.644531 39.84375 405.125 40.363281 C 404.605469 40.882812 404.113281 41.425781 403.644531 41.996094 C 403.179688 42.5625 402.742188 43.152344 402.335938 43.761719 C 401.925781 44.375 401.546875 45.003906 401.203125 45.648438 C 400.855469 46.296875 400.539062 46.960938 400.257812 47.640625 C 399.976562 48.316406 399.730469 49.007812 399.515625 49.710938 C 399.300781 50.414062 399.125 51.125 398.980469 51.84375 C 398.835938 52.566406 398.726562 53.289062 398.65625 54.023438 C 398.582031 54.753906 398.546875 55.484375 398.542969 56.21875 Z M 362.554688 93.011719 C 362.554688 93.457031 362.597656 93.894531 362.683594 94.328125 C 362.769531 94.761719 362.898438 95.179688 363.066406 95.589844 C 363.238281 95.996094 363.445312 96.386719 363.691406 96.753906 C 363.9375 97.121094 364.214844 97.460938 364.527344 97.773438 C 364.839844 98.085938 365.179688 98.363281 365.546875 98.609375 C 365.917969 98.855469 366.304688 99.0625 366.710938 99.234375 C 367.121094 99.402344 367.542969 99.53125 367.976562 99.617188 C 368.410156 99.703125 368.847656 99.746094 369.289062 99.746094 L 375.011719 99.746094 C 375.453125 99.746094 375.890625 99.703125 376.324219 99.617188 C 376.757812 99.53125 377.179688 99.402344 377.585938 99.234375 C 377.996094 99.0625 378.382812 98.855469 378.75 98.609375 C 379.121094 98.363281 379.460938 98.085938 379.773438 97.773438 C 380.085938 97.460938 380.363281 97.121094 380.609375 96.753906 C 380.855469 96.386719 381.0625 95.996094 381.230469 95.589844 C 381.402344 95.179688 381.527344 94.761719 381.617188 94.328125 C 381.703125 93.894531 381.746094 93.457031 381.746094 93.011719 C 381.746094 92.570312 381.703125 92.132812 381.617188 91.699219 C 381.527344 91.265625 381.402344 90.847656 381.230469 90.4375 C 381.0625 90.027344 380.855469 89.640625 380.609375 89.273438 C 380.363281 88.90625 380.085938 88.566406 379.773438 88.253906 C 379.460938 87.941406 379.121094 87.660156 378.75 87.417969 C 378.382812 87.171875 377.996094 86.964844 377.585938 86.792969 C 377.179688 86.625 376.757812 86.496094 376.324219 86.410156 C 375.890625 86.324219 375.453125 86.28125 375.011719 86.28125 L 369.289062 86.28125 C 368.847656 86.28125 368.40625 86.324219 367.972656 86.410156 C 367.539062 86.5 367.117188 86.625 366.707031 86.796875 C 366.296875 86.964844 365.910156 87.175781 365.539062 87.421875 C 365.171875 87.667969 364.832031 87.949219 364.519531 88.261719 C 364.207031 88.574219 363.925781 88.917969 363.683594 89.285156 C 363.4375 89.65625 363.230469 90.042969 363.0625 90.453125 C 362.894531 90.863281 362.765625 91.285156 362.679688 91.722656 C 362.59375 92.15625 362.554688 92.59375 362.554688 93.039062 Z M 346.960938 489.375 L 362.246094 489.375 L 362.246094 424.109375 L 346.960938 424.109375 Z M 595.582031 93.039062 L 553.742188 93.039062 L 553.742188 120.046875 L 585.0625 120.046875 C 585.503906 120.050781 585.9375 120.09375 586.371094 120.183594 C 586.800781 120.273438 587.222656 120.402344 587.628906 120.570312 C 588.035156 120.742188 588.421875 120.949219 588.785156 121.195312 C 589.152344 121.441406 589.488281 121.71875 589.800781 122.03125 C 590.113281 122.34375 590.390625 122.683594 590.632812 123.050781 C 590.878906 123.417969 591.082031 123.804688 591.25 124.210938 C 591.417969 124.617188 591.546875 125.039062 591.632812 125.472656 C 591.71875 125.902344 591.761719 126.339844 591.761719 126.78125 L 591.761719 537.195312 C 591.761719 537.636719 591.71875 538.074219 591.632812 538.507812 C 591.542969 538.941406 591.417969 539.363281 591.246094 539.769531 C 591.078125 540.179688 590.871094 540.566406 590.625 540.933594 C 590.378906 541.300781 590.101562 541.640625 589.789062 541.953125 C 589.476562 542.265625 589.136719 542.546875 588.765625 542.792969 C 588.398438 543.039062 588.011719 543.246094 587.601562 543.414062 C 587.195312 543.582031 586.773438 543.710938 586.339844 543.796875 C 585.90625 543.882812 585.46875 543.925781 585.027344 543.925781 L 256.941406 543.925781 C 256.5 543.925781 256.0625 543.882812 255.628906 543.796875 C 255.195312 543.710938 254.773438 543.582031 254.367188 543.414062 C 253.957031 543.242188 253.570312 543.035156 253.203125 542.789062 C 252.835938 542.542969 252.496094 542.265625 252.183594 541.953125 C 251.871094 541.640625 251.59375 541.300781 251.347656 540.933594 C 251.101562 540.566406 250.894531 540.175781 250.726562 539.769531 C 250.554688 539.363281 250.429688 538.941406 250.34375 538.507812 C 250.257812 538.074219 250.214844 537.636719 250.214844 537.195312 L 250.214844 126.78125 C 250.210938 126.335938 250.253906 125.898438 250.339844 125.464844 C 250.425781 125.03125 250.554688 124.609375 250.722656 124.203125 C 250.894531 123.792969 251.101562 123.40625 251.347656 123.039062 C 251.589844 122.671875 251.871094 122.332031 252.183594 122.019531 C 252.496094 121.707031 252.835938 121.425781 253.203125 121.179688 C 253.574219 120.933594 253.960938 120.726562 254.371094 120.558594 C 254.777344 120.390625 255.199219 120.261719 255.632812 120.175781 C 256.066406 120.089844 256.503906 120.046875 256.949219 120.046875 L 288.230469 120.046875 L 288.230469 93.039062 L 246.40625 93.039062 C 245.644531 93.039062 244.886719 93.078125 244.132812 93.15625 C 243.375 93.234375 242.625 93.347656 241.878906 93.496094 C 241.132812 93.644531 240.398438 93.832031 239.671875 94.054688 C 238.945312 94.277344 238.230469 94.53125 237.527344 94.824219 C 236.828125 95.117188 236.140625 95.441406 235.472656 95.800781 C 234.800781 96.160156 234.152344 96.550781 233.519531 96.972656 C 232.886719 97.394531 232.277344 97.847656 231.691406 98.328125 C 231.105469 98.8125 230.542969 99.320312 230.003906 99.859375 C 229.46875 100.394531 228.957031 100.957031 228.476562 101.546875 C 227.992188 102.132812 227.539062 102.742188 227.117188 103.375 C 226.695312 104.003906 226.304688 104.65625 225.945312 105.324219 C 225.585938 105.996094 225.261719 106.679688 224.96875 107.382812 C 224.679688 108.082031 224.421875 108.796875 224.199219 109.523438 C 223.976562 110.25 223.792969 110.984375 223.640625 111.730469 C 223.492188 112.476562 223.378906 113.226562 223.300781 113.980469 C 223.226562 114.738281 223.1875 115.496094 223.183594 116.253906 L 223.183594 547.71875 C 223.1875 548.480469 223.226562 549.238281 223.304688 549.992188 C 223.378906 550.75 223.492188 551.5 223.644531 552.242188 C 223.792969 552.988281 223.980469 553.722656 224.199219 554.449219 C 224.421875 555.175781 224.679688 555.890625 224.972656 556.589844 C 225.261719 557.292969 225.589844 557.976562 225.949219 558.648438 C 226.308594 559.316406 226.699219 559.96875 227.121094 560.597656 C 227.542969 561.230469 227.996094 561.839844 228.476562 562.425781 C 228.960938 563.011719 229.46875 563.574219 230.007812 564.113281 C 230.542969 564.648438 231.105469 565.15625 231.695312 565.640625 C 232.28125 566.121094 232.890625 566.574219 233.523438 566.996094 C 234.152344 567.417969 234.804688 567.808594 235.472656 568.167969 C 236.144531 568.527344 236.828125 568.851562 237.53125 569.144531 C 238.230469 569.4375 238.945312 569.691406 239.671875 569.914062 C 240.398438 570.136719 241.136719 570.324219 241.878906 570.472656 C 242.625 570.621094 243.375 570.734375 244.132812 570.8125 C 244.886719 570.890625 245.644531 570.929688 246.40625 570.929688 L 595.566406 570.929688 C 596.328125 570.929688 597.085938 570.890625 597.839844 570.8125 C 598.597656 570.734375 599.347656 570.621094 600.09375 570.472656 C 600.839844 570.324219 601.574219 570.136719 602.300781 569.914062 C 603.027344 569.691406 603.742188 569.4375 604.441406 569.144531 C 605.144531 568.851562 605.832031 568.527344 606.5 568.167969 C 607.167969 567.808594 607.820312 567.417969 608.453125 566.996094 C 609.082031 566.574219 609.691406 566.121094 610.28125 565.640625 C 610.867188 565.160156 611.429688 564.648438 611.964844 564.113281 C 612.503906 563.574219 613.011719 563.011719 613.496094 562.425781 C 613.976562 561.839844 614.429688 561.230469 614.851562 560.597656 C 615.277344 559.96875 615.667969 559.316406 616.023438 558.648438 C 616.382812 557.976562 616.710938 557.292969 617 556.589844 C 617.292969 555.890625 617.550781 555.175781 617.773438 554.449219 C 617.996094 553.722656 618.179688 552.988281 618.332031 552.242188 C 618.480469 551.5 618.59375 550.75 618.671875 549.992188 C 618.746094 549.238281 618.785156 548.480469 618.789062 547.71875 L 618.789062 116.253906 C 618.785156 115.496094 618.746094 114.738281 618.671875 113.980469 C 618.59375 113.226562 618.480469 112.476562 618.332031 111.730469 C 618.179688 110.984375 617.996094 110.25 617.773438 109.523438 C 617.550781 108.796875 617.296875 108.082031 617.003906 107.382812 C 616.710938 106.679688 616.386719 105.996094 616.027344 105.324219 C 615.667969 104.65625 615.277344 104.003906 614.855469 103.375 C 614.433594 102.742188 613.980469 102.132812 613.496094 101.546875 C 613.015625 100.957031 612.503906 100.394531 611.96875 99.859375 C 611.429688 99.320312 610.867188 98.8125 610.28125 98.328125 C 609.695312 97.847656 609.085938 97.394531 608.453125 96.972656 C 607.820312 96.550781 607.171875 96.160156 606.5 95.800781 C 605.832031 95.441406 605.144531 95.117188 604.445312 94.824219 C 603.742188 94.53125 603.027344 94.277344 602.300781 94.054688 C 601.574219 93.832031 600.839844 93.644531 600.09375 93.496094 C 599.347656 93.347656 598.597656 93.234375 597.84375 93.15625 C 597.085938 93.078125 596.328125 93.039062 595.566406 93.039062 Z M 292.875 489.375 L 308.144531 489.375 L 308.144531 452.707031 L 292.875 452.707031 Z M 288.230469 135.527344 C 288.230469 136.441406 288.277344 137.359375 288.367188 138.269531 C 288.457031 139.183594 288.59375 140.089844 288.773438 140.988281 C 288.953125 141.886719 289.175781 142.773438 289.441406 143.652344 C 289.710938 144.53125 290.019531 145.390625 290.371094 146.238281 C 290.722656 147.085938 291.113281 147.914062 291.546875 148.722656 C 291.980469 149.53125 292.449219 150.316406 292.960938 151.078125 C 293.46875 151.839844 294.015625 152.578125 294.597656 153.285156 C 295.179688 153.996094 295.796875 154.671875 296.445312 155.320312 C 297.09375 155.96875 297.773438 156.585938 298.480469 157.167969 C 299.191406 157.75 299.925781 158.296875 300.6875 158.804688 C 301.449219 159.316406 302.238281 159.785156 303.046875 160.21875 C 303.855469 160.652344 304.683594 161.042969 305.53125 161.394531 C 306.378906 161.746094 307.238281 162.054688 308.117188 162.324219 C 308.996094 162.589844 309.882812 162.8125 310.785156 162.992188 C 311.683594 163.171875 312.589844 163.308594 313.503906 163.398438 C 314.414062 163.488281 315.328125 163.535156 316.246094 163.539062 L 385.207031 163.539062 C 386.203125 163.539062 387.1875 163.429688 388.160156 163.210938 C 389.128906 162.992188 390.066406 162.671875 390.964844 162.246094 C 391.867188 161.820312 392.710938 161.300781 393.492188 160.6875 C 394.277344 160.074219 394.988281 159.386719 395.617188 158.617188 C 396.386719 157.679688 397.199219 156.789062 398.066406 155.945312 C 398.933594 155.101562 399.839844 154.304688 400.792969 153.5625 C 401.746094 152.816406 402.738281 152.128906 403.769531 151.492188 C 404.796875 150.859375 405.859375 150.28125 406.953125 149.765625 C 408.046875 149.25 409.164062 148.792969 410.308594 148.398438 C 411.453125 148.003906 412.613281 147.675781 413.796875 147.410156 C 414.976562 147.144531 416.167969 146.945312 417.367188 146.8125 C 418.570312 146.679688 419.777344 146.613281 420.988281 146.613281 C 422.195312 146.613281 423.402344 146.679688 424.605469 146.8125 C 425.808594 146.945312 426.996094 147.144531 428.179688 147.410156 C 429.359375 147.675781 430.519531 148.003906 431.664062 148.398438 C 432.808594 148.792969 433.925781 149.25 435.019531 149.765625 C 436.113281 150.28125 437.175781 150.859375 438.203125 151.492188 C 439.234375 152.128906 440.226562 152.816406 441.179688 153.5625 C 442.132812 154.304688 443.042969 155.101562 443.90625 155.945312 C 444.773438 156.789062 445.589844 157.679688 446.355469 158.617188 C 446.988281 159.386719 447.695312 160.074219 448.480469 160.6875 C 449.265625 161.300781 450.105469 161.820312 451.007812 162.246094 C 451.90625 162.671875 452.84375 162.992188 453.8125 163.210938 C 454.785156 163.429688 455.769531 163.539062 456.765625 163.539062 L 525.703125 163.539062 C 526.621094 163.535156 527.535156 163.492188 528.449219 163.402344 C 529.363281 163.3125 530.269531 163.175781 531.167969 162.996094 C 532.070312 162.816406 532.957031 162.59375 533.835938 162.328125 C 534.714844 162.0625 535.578125 161.753906 536.425781 161.402344 C 537.273438 161.050781 538.105469 160.660156 538.914062 160.226562 C 539.722656 159.792969 540.507812 159.324219 541.273438 158.8125 C 542.035156 158.304688 542.773438 157.757812 543.480469 157.175781 C 544.191406 156.59375 544.871094 155.980469 545.519531 155.332031 C 546.167969 154.683594 546.785156 154.003906 547.367188 153.292969 C 547.949219 152.585938 548.496094 151.847656 549.007812 151.085938 C 549.519531 150.324219 549.988281 149.539062 550.421875 148.730469 C 550.855469 147.921875 551.25 147.09375 551.601562 146.246094 C 551.953125 145.398438 552.261719 144.535156 552.527344 143.65625 C 552.796875 142.777344 553.019531 141.890625 553.199219 140.992188 C 553.378906 140.089844 553.515625 139.183594 553.605469 138.273438 C 553.695312 137.359375 553.742188 136.441406 553.742188 135.527344 L 553.742188 133.511719 L 578.304688 133.511719 L 578.304688 530.464844 L 263.675781 530.464844 L 263.675781 133.511719 L 288.230469 133.511719 Z M 282.0625 417.65625 L 314.503906 417.65625 C 314.945312 417.65625 315.382812 417.613281 315.816406 417.527344 C 316.25 417.441406 316.671875 417.3125 317.082031 417.144531 C 317.488281 416.976562 317.878906 416.769531 318.246094 416.523438 C 318.613281 416.277344 318.953125 415.996094 319.265625 415.683594 C 319.578125 415.371094 319.855469 415.03125 320.101562 414.664062 C 320.347656 414.296875 320.554688 413.910156 320.726562 413.5 C 320.894531 413.09375 321.023438 412.671875 321.109375 412.238281 C 321.195312 411.804688 321.238281 411.367188 321.238281 410.925781 C 321.238281 410.484375 321.195312 410.046875 321.109375 409.613281 C 321.023438 409.179688 320.894531 408.757812 320.726562 408.347656 C 320.554688 407.941406 320.347656 407.554688 320.101562 407.183594 C 319.855469 406.816406 319.578125 406.476562 319.265625 406.164062 C 318.953125 405.851562 318.613281 405.574219 318.246094 405.328125 C 317.878906 405.082031 317.488281 404.875 317.082031 404.707031 C 316.671875 404.535156 316.25 404.410156 315.816406 404.324219 C 315.382812 404.238281 314.945312 404.195312 314.503906 404.195312 L 282.0625 404.195312 C 281.621094 404.195312 281.183594 404.238281 280.75 404.324219 C 280.316406 404.410156 279.894531 404.535156 279.484375 404.707031 C 279.078125 404.875 278.6875 405.082031 278.320312 405.328125 C 277.953125 405.574219 277.613281 405.851562 277.300781 406.164062 C 276.988281 406.476562 276.707031 406.816406 276.464844 407.183594 C 276.21875 407.554688 276.011719 407.941406 275.839844 408.347656 C 275.671875 408.757812 275.542969 409.179688 275.457031 409.613281 C 275.371094 410.046875 275.328125 410.484375 275.328125 410.925781 C 275.328125 411.367188 275.371094 411.804688 275.457031 412.238281 C 275.542969 412.671875 275.671875 413.09375 275.839844 413.5 C 276.011719 413.910156 276.21875 414.296875 276.464844 414.664062 C 276.707031 415.03125 276.988281 415.371094 277.300781 415.683594 C 277.613281 415.996094 277.953125 416.277344 278.320312 416.523438 C 278.6875 416.769531 279.078125 416.976562 279.484375 417.144531 C 279.894531 417.3125 280.316406 417.441406 280.75 417.527344 C 281.183594 417.613281 281.621094 417.65625 282.0625 417.65625 Z M 321.628906 446.007812 C 321.628906 445.5625 321.585938 445.125 321.5 444.691406 C 321.414062 444.257812 321.285156 443.839844 321.117188 443.429688 C 320.949219 443.023438 320.742188 442.632812 320.496094 442.265625 C 320.25 441.898438 319.96875 441.558594 319.65625 441.246094 C 319.34375 440.933594 319.003906 440.65625 318.636719 440.410156 C 318.269531 440.164062 317.882812 439.957031 317.472656 439.789062 C 317.0625 439.617188 316.644531 439.492188 316.210938 439.402344 C 315.777344 439.316406 315.339844 439.273438 314.894531 439.273438 L 286.140625 439.273438 C 285.699219 439.273438 285.261719 439.316406 284.828125 439.402344 C 284.394531 439.492188 283.972656 439.617188 283.566406 439.789062 C 283.15625 439.957031 282.769531 440.164062 282.398438 440.410156 C 282.03125 440.65625 281.691406 440.933594 281.378906 441.246094 C 281.066406 441.558594 280.789062 441.898438 280.542969 442.265625 C 280.296875 442.632812 280.089844 443.023438 279.921875 443.429688 C 279.75 443.839844 279.625 444.257812 279.535156 444.691406 C 279.449219 445.125 279.40625 445.5625 279.40625 446.007812 L 279.40625 496.136719 C 279.40625 496.578125 279.449219 497.015625 279.535156 497.449219 C 279.625 497.882812 279.75 498.304688 279.921875 498.710938 C 280.089844 499.121094 280.296875 499.507812 280.542969 499.875 C 280.789062 500.242188 281.066406 500.582031 281.378906 500.894531 C 281.691406 501.207031 282.03125 501.488281 282.398438 501.734375 C 282.769531 501.980469 283.15625 502.1875 283.566406 502.355469 C 283.972656 502.523438 284.394531 502.652344 284.828125 502.738281 C 285.261719 502.824219 285.699219 502.867188 286.140625 502.867188 L 314.894531 502.867188 C 315.339844 502.867188 315.777344 502.824219 316.210938 502.738281 C 316.644531 502.652344 317.0625 502.523438 317.472656 502.355469 C 317.882812 502.1875 318.269531 501.980469 318.636719 501.734375 C 319.003906 501.488281 319.34375 501.207031 319.65625 500.894531 C 319.96875 500.582031 320.25 500.242188 320.496094 499.875 C 320.742188 499.507812 320.949219 499.121094 321.117188 498.710938 C 321.285156 498.304688 321.414062 497.882812 321.5 497.449219 C 321.585938 497.015625 321.628906 496.578125 321.628906 496.136719 Z M 375.730469 417.378906 C 375.730469 416.9375 375.683594 416.5 375.597656 416.066406 C 375.511719 415.632812 375.386719 415.210938 375.214844 414.804688 C 375.046875 414.394531 374.839844 414.007812 374.59375 413.640625 C 374.347656 413.273438 374.070312 412.933594 373.757812 412.621094 C 373.445312 412.308594 373.101562 412.027344 372.734375 411.78125 C 372.367188 411.535156 371.980469 411.328125 371.570312 411.160156 C 371.164062 410.992188 370.742188 410.863281 370.308594 410.777344 C 369.875 410.691406 369.4375 410.648438 368.996094 410.648438 L 340.226562 410.648438 C 339.785156 410.648438 339.347656 410.691406 338.914062 410.777344 C 338.480469 410.863281 338.058594 410.988281 337.648438 411.160156 C 337.242188 411.328125 336.851562 411.535156 336.484375 411.78125 C 336.117188 412.027344 335.773438 412.304688 335.460938 412.617188 C 335.148438 412.929688 334.871094 413.269531 334.625 413.636719 C 334.378906 414.003906 334.171875 414.394531 334 414.800781 C 333.832031 415.210938 333.703125 415.632812 333.617188 416.066406 C 333.53125 416.5 333.488281 416.9375 333.488281 417.378906 L 333.488281 496.136719 C 333.488281 496.578125 333.53125 497.015625 333.617188 497.449219 C 333.703125 497.882812 333.832031 498.304688 334 498.710938 C 334.167969 499.121094 334.378906 499.507812 334.621094 499.875 C 334.867188 500.242188 335.148438 500.582031 335.460938 500.894531 C 335.773438 501.207031 336.113281 501.488281 336.480469 501.734375 C 336.847656 501.980469 337.238281 502.1875 337.644531 502.355469 C 338.054688 502.523438 338.476562 502.652344 338.910156 502.738281 C 339.34375 502.824219 339.78125 502.867188 340.222656 502.867188 L 368.976562 502.867188 C 369.417969 502.871094 369.859375 502.828125 370.292969 502.742188 C 370.726562 502.65625 371.148438 502.53125 371.558594 502.359375 C 371.96875 502.191406 372.359375 501.984375 372.726562 501.738281 C 373.09375 501.496094 373.4375 501.214844 373.75 500.902344 C 374.0625 500.589844 374.34375 500.25 374.589844 499.882812 C 374.835938 499.515625 375.042969 499.125 375.214844 498.714844 C 375.382812 498.308594 375.511719 497.886719 375.597656 497.453125 C 375.683594 497.019531 375.730469 496.578125 375.730469 496.136719 Z M 429.804688 435.214844 C 429.804688 434.773438 429.761719 434.335938 429.671875 433.902344 C 429.585938 433.46875 429.460938 433.046875 429.289062 432.640625 C 429.121094 432.230469 428.914062 431.84375 428.667969 431.476562 C 428.421875 431.109375 428.144531 430.769531 427.832031 430.457031 C 427.519531 430.144531 427.175781 429.863281 426.808594 429.617188 C 426.441406 429.371094 426.054688 429.164062 425.644531 428.996094 C 425.238281 428.828125 424.816406 428.699219 424.382812 428.613281 C 423.949219 428.527344 423.511719 428.484375 423.070312 428.484375 L 394.316406 428.484375 C 393.871094 428.484375 393.433594 428.527344 393 428.613281 C 392.566406 428.699219 392.144531 428.828125 391.738281 428.996094 C 391.328125 429.164062 390.941406 429.371094 390.574219 429.617188 C 390.207031 429.863281 389.867188 430.144531 389.550781 430.457031 C 389.238281 430.769531 388.960938 431.109375 388.714844 431.476562 C 388.46875 431.84375 388.261719 432.230469 388.09375 432.640625 C 387.921875 433.046875 387.796875 433.46875 387.710938 433.902344 C 387.625 434.335938 387.582031 434.773438 387.582031 435.214844 L 387.582031 496.136719 C 387.582031 496.578125 387.625 497.015625 387.710938 497.449219 C 387.796875 497.882812 387.921875 498.304688 388.09375 498.710938 C 388.261719 499.121094 388.46875 499.507812 388.714844 499.875 C 388.960938 500.242188 389.238281 500.582031 389.550781 500.894531 C 389.867188 501.207031 390.207031 501.488281 390.574219 501.734375 C 390.941406 501.980469 391.328125 502.1875 391.738281 502.355469 C 392.144531 502.523438 392.566406 502.652344 393 502.738281 C 393.433594 502.824219 393.871094 502.867188 394.316406 502.867188 L 423.070312 502.867188 C 423.511719 502.867188 423.949219 502.824219 424.382812 502.738281 C 424.816406 502.652344 425.238281 502.523438 425.644531 502.355469 C 426.054688 502.1875 426.441406 501.980469 426.808594 501.734375 C 427.175781 501.488281 427.519531 501.207031 427.832031 500.894531 C 428.144531 500.582031 428.421875 500.242188 428.667969 499.875 C 428.914062 499.507812 429.121094 499.121094 429.289062 498.710938 C 429.460938 498.304688 429.585938 497.882812 429.671875 497.449219 C 429.761719 497.015625 429.804688 496.578125 429.804688 496.136719 Z M 445.859375 326.867188 C 445.859375 327.484375 445.890625 328.105469 445.953125 328.722656 C 446.011719 329.335938 446.101562 329.949219 446.222656 330.558594 C 446.34375 331.164062 446.496094 331.765625 446.675781 332.359375 C 446.855469 332.953125 447.0625 333.535156 447.300781 334.105469 C 447.539062 334.679688 447.804688 335.238281 448.09375 335.785156 C 448.386719 336.332031 448.707031 336.863281 449.050781 337.378906 C 449.394531 337.894531 449.765625 338.390625 450.15625 338.871094 C 450.550781 339.347656 450.964844 339.808594 451.40625 340.246094 C 451.84375 340.683594 452.300781 341.101562 452.78125 341.492188 C 453.261719 341.886719 453.757812 342.253906 454.273438 342.597656 C 454.789062 342.945312 455.320312 343.261719 455.867188 343.554688 C 456.414062 343.847656 456.972656 344.109375 457.546875 344.347656 C 458.117188 344.585938 458.703125 344.792969 459.296875 344.972656 C 459.886719 345.152344 460.488281 345.304688 461.097656 345.425781 C 461.707031 345.546875 462.316406 345.636719 462.933594 345.695312 C 463.550781 345.757812 464.171875 345.789062 464.789062 345.789062 C 465.410156 345.789062 466.027344 345.757812 466.644531 345.695312 C 467.261719 345.636719 467.875 345.546875 468.484375 345.425781 C 469.089844 345.304688 469.691406 345.152344 470.285156 344.972656 C 470.878906 344.792969 471.460938 344.585938 472.035156 344.347656 C 472.605469 344.109375 473.167969 343.847656 473.714844 343.554688 C 474.261719 343.261719 474.792969 342.945312 475.308594 342.597656 C 475.824219 342.253906 476.320312 341.886719 476.800781 341.492188 C 477.277344 341.101562 477.738281 340.683594 478.175781 340.246094 C 478.613281 339.808594 479.03125 339.347656 479.421875 338.871094 C 479.816406 338.390625 480.1875 337.894531 480.53125 337.378906 C 480.875 336.863281 481.191406 336.332031 481.484375 335.785156 C 481.777344 335.238281 482.042969 334.679688 482.28125 334.105469 C 482.515625 333.535156 482.726562 332.953125 482.90625 332.359375 C 483.085938 331.765625 483.234375 331.164062 483.355469 330.558594 C 483.476562 329.949219 483.570312 329.335938 483.628906 328.722656 C 483.691406 328.105469 483.71875 327.484375 483.71875 326.867188 C 483.71875 326.246094 483.691406 325.628906 483.628906 325.011719 C 483.570312 324.394531 483.476562 323.78125 483.355469 323.175781 C 483.234375 322.566406 483.085938 321.964844 482.90625 321.375 C 482.726562 320.78125 482.515625 320.199219 482.28125 319.625 C 482.042969 319.050781 481.777344 318.492188 481.484375 317.945312 C 481.191406 317.398438 480.875 316.871094 480.53125 316.355469 C 480.1875 315.839844 479.816406 315.339844 479.421875 314.863281 C 479.03125 314.382812 478.613281 313.925781 478.175781 313.488281 C 477.738281 313.046875 477.277344 312.632812 476.800781 312.238281 C 476.320312 311.847656 475.824219 311.476562 475.308594 311.132812 C 474.792969 310.789062 474.261719 310.472656 473.714844 310.179688 C 473.167969 309.886719 472.605469 309.621094 472.035156 309.386719 C 471.460938 309.148438 470.878906 308.9375 470.285156 308.757812 C 469.691406 308.578125 469.089844 308.429688 468.484375 308.308594 C 467.875 308.1875 467.261719 308.097656 466.644531 308.035156 C 466.027344 307.976562 465.410156 307.945312 464.789062 307.945312 C 464.171875 307.945312 463.550781 307.976562 462.933594 308.039062 C 462.316406 308.097656 461.707031 308.191406 461.097656 308.3125 C 460.488281 308.433594 459.890625 308.585938 459.296875 308.765625 C 458.703125 308.945312 458.121094 309.15625 457.546875 309.390625 C 456.976562 309.628906 456.414062 309.894531 455.867188 310.1875 C 455.320312 310.480469 454.789062 310.800781 454.277344 311.144531 C 453.761719 311.488281 453.261719 311.855469 452.785156 312.25 C 452.304688 312.644531 451.847656 313.058594 451.40625 313.496094 C 450.96875 313.9375 450.554688 314.394531 450.160156 314.875 C 449.765625 315.351562 449.398438 315.851562 449.054688 316.367188 C 448.710938 316.882812 448.390625 317.414062 448.097656 317.957031 C 447.808594 318.503906 447.542969 319.066406 447.304688 319.636719 C 447.066406 320.210938 446.859375 320.792969 446.679688 321.386719 C 446.5 321.980469 446.347656 322.578125 446.226562 323.1875 C 446.105469 323.792969 446.015625 324.40625 445.953125 325.023438 C 445.890625 325.640625 445.859375 326.257812 445.859375 326.878906 Z M 465.171875 255.691406 L 470.914062 255.691406 C 471.355469 255.691406 471.792969 255.644531 472.226562 255.558594 C 472.660156 255.472656 473.082031 255.34375 473.488281 255.175781 C 473.894531 255.003906 474.285156 254.796875 474.652344 254.550781 C 475.015625 254.304688 475.355469 254.027344 475.667969 253.714844 C 475.980469 253.402344 476.257812 253.0625 476.503906 252.695312 C 476.75 252.328125 476.957031 251.941406 477.125 251.53125 C 477.292969 251.125 477.421875 250.703125 477.507812 250.269531 C 477.59375 249.839844 477.636719 249.402344 477.636719 248.960938 C 477.636719 248.519531 477.59375 248.082031 477.507812 247.648438 C 477.421875 247.214844 477.292969 246.792969 477.125 246.386719 C 476.957031 245.980469 476.75 245.589844 476.503906 245.222656 C 476.257812 244.855469 475.980469 244.515625 475.667969 244.203125 C 475.355469 243.890625 475.015625 243.613281 474.652344 243.367188 C 474.285156 243.121094 473.894531 242.914062 473.488281 242.746094 C 473.082031 242.574219 472.660156 242.445312 472.226562 242.359375 C 471.792969 242.273438 471.355469 242.230469 470.914062 242.226562 L 465.171875 242.226562 C 464.730469 242.230469 464.292969 242.273438 463.859375 242.359375 C 463.425781 242.445312 463.003906 242.574219 462.597656 242.746094 C 462.191406 242.914062 461.800781 243.121094 461.433594 243.367188 C 461.070312 243.613281 460.730469 243.890625 460.417969 244.203125 C 460.105469 244.515625 459.828125 244.855469 459.582031 245.222656 C 459.335938 245.589844 459.128906 245.980469 458.960938 246.386719 C 458.792969 246.792969 458.664062 247.214844 458.578125 247.648438 C 458.492188 248.082031 458.449219 248.519531 458.449219 248.960938 C 458.449219 249.402344 458.492188 249.839844 458.578125 250.269531 C 458.664062 250.703125 458.792969 251.125 458.960938 251.53125 C 459.128906 251.941406 459.335938 252.328125 459.582031 252.695312 C 459.828125 253.0625 460.105469 253.402344 460.417969 253.714844 C 460.730469 254.027344 461.070312 254.304688 461.433594 254.550781 C 461.800781 254.796875 462.191406 255.003906 462.597656 255.175781 C 463.003906 255.34375 463.425781 255.472656 463.859375 255.558594 C 464.292969 255.644531 464.730469 255.691406 465.171875 255.691406 Z M 430.09375 372.9375 L 419.175781 362.011719 C 418.863281 361.710938 418.519531 361.441406 418.152344 361.203125 C 417.785156 360.964844 417.398438 360.765625 416.992188 360.605469 C 416.585938 360.445312 416.171875 360.324219 415.742188 360.242188 C 415.3125 360.164062 414.878906 360.125 414.441406 360.128906 C 414.003906 360.132812 413.570312 360.179688 413.144531 360.265625 C 412.714844 360.355469 412.300781 360.484375 411.898438 360.652344 C 411.492188 360.820312 411.109375 361.027344 410.746094 361.269531 C 410.386719 361.515625 410.050781 361.789062 409.738281 362.097656 C 409.429688 362.410156 409.15625 362.746094 408.910156 363.105469 C 408.667969 363.46875 408.460938 363.851562 408.292969 364.253906 C 408.121094 364.65625 407.996094 365.074219 407.90625 365.5 C 407.816406 365.929688 407.773438 366.359375 407.769531 366.796875 C 407.765625 367.234375 407.800781 367.667969 407.882812 368.097656 C 407.960938 368.527344 408.082031 368.945312 408.246094 369.351562 C 408.40625 369.757812 408.605469 370.140625 408.84375 370.507812 C 409.082031 370.875 409.351562 371.21875 409.652344 371.53125 L 422.550781 384.425781 C 423.183594 385.058594 423.910156 385.542969 424.738281 385.886719 C 425.5625 386.226562 426.421875 386.398438 427.316406 386.398438 L 491.09375 386.398438 C 491.535156 386.398438 491.972656 386.355469 492.40625 386.269531 C 492.84375 386.183594 493.261719 386.058594 493.671875 385.886719 C 494.078125 385.71875 494.46875 385.511719 494.835938 385.265625 C 495.203125 385.019531 495.542969 384.742188 495.855469 384.429688 C 496.167969 384.117188 496.449219 383.777344 496.695312 383.410156 C 496.941406 383.039062 497.148438 382.652344 497.316406 382.246094 C 497.484375 381.835938 497.613281 381.414062 497.699219 380.980469 C 497.785156 380.546875 497.828125 380.109375 497.828125 379.667969 C 497.828125 379.226562 497.785156 378.789062 497.699219 378.355469 C 497.613281 377.921875 497.484375 377.5 497.316406 377.09375 C 497.148438 376.683594 496.941406 376.296875 496.695312 375.929688 C 496.449219 375.5625 496.167969 375.222656 495.855469 374.910156 C 495.542969 374.597656 495.203125 374.316406 494.835938 374.070312 C 494.46875 373.824219 494.078125 373.617188 493.671875 373.449219 C 493.261719 373.28125 492.84375 373.152344 492.40625 373.066406 C 491.972656 372.980469 491.535156 372.9375 491.09375 372.9375 Z M 436.777344 416 L 491.089844 416 C 491.53125 416 491.96875 415.953125 492.402344 415.867188 C 492.835938 415.78125 493.257812 415.65625 493.664062 415.484375 C 494.074219 415.316406 494.460938 415.109375 494.828125 414.863281 C 495.199219 414.617188 495.539062 414.339844 495.851562 414.027344 C 496.164062 413.714844 496.441406 413.375 496.6875 413.007812 C 496.933594 412.640625 497.140625 412.25 497.308594 411.84375 C 497.480469 411.433594 497.605469 411.011719 497.691406 410.578125 C 497.78125 410.144531 497.824219 409.707031 497.824219 409.265625 C 497.824219 408.824219 497.78125 408.386719 497.691406 407.953125 C 497.605469 407.519531 497.480469 407.097656 497.308594 406.691406 C 497.140625 406.28125 496.933594 405.894531 496.6875 405.527344 C 496.441406 405.160156 496.164062 404.820312 495.851562 404.507812 C 495.539062 404.195312 495.199219 403.914062 494.828125 403.667969 C 494.460938 403.425781 494.074219 403.214844 493.664062 403.046875 C 493.257812 402.878906 492.835938 402.75 492.402344 402.664062 C 491.96875 402.578125 491.53125 402.535156 491.089844 402.535156 L 436.777344 402.535156 C 436.335938 402.535156 435.898438 402.578125 435.464844 402.664062 C 435.03125 402.75 434.609375 402.878906 434.203125 403.046875 C 433.792969 403.214844 433.40625 403.425781 433.039062 403.667969 C 432.667969 403.914062 432.328125 404.195312 432.015625 404.507812 C 431.703125 404.820312 431.425781 405.160156 431.179688 405.527344 C 430.933594 405.894531 430.726562 406.28125 430.558594 406.691406 C 430.386719 407.097656 430.261719 407.519531 430.171875 407.953125 C 430.085938 408.386719 430.042969 408.824219 430.042969 409.265625 C 430.042969 409.707031 430.085938 410.144531 430.171875 410.578125 C 430.261719 411.011719 430.386719 411.433594 430.558594 411.84375 C 430.726562 412.25 430.933594 412.640625 431.179688 413.007812 C 431.425781 413.375 431.703125 413.714844 432.015625 414.027344 C 432.328125 414.339844 432.667969 414.617188 433.039062 414.863281 C 433.40625 415.109375 433.792969 415.316406 434.203125 415.484375 C 434.609375 415.65625 435.03125 415.78125 435.464844 415.867188 C 435.898438 415.953125 436.335938 416 436.777344 416 Z M 519.414062 482.988281 C 519.414062 482.546875 519.375 482.109375 519.289062 481.675781 C 519.203125 481.242188 519.078125 480.820312 518.910156 480.410156 C 518.742188 480.003906 518.539062 479.613281 518.292969 479.246094 C 518.050781 478.878906 517.773438 478.535156 517.460938 478.222656 C 517.148438 477.910156 516.8125 477.628906 516.445312 477.382812 C 516.078125 477.132812 515.691406 476.925781 515.28125 476.753906 C 514.875 476.585938 514.457031 476.453125 514.023438 476.367188 C 513.589844 476.277344 513.152344 476.234375 512.710938 476.230469 L 460.855469 476.230469 C 460.414062 476.230469 459.976562 476.273438 459.542969 476.359375 C 459.109375 476.445312 458.6875 476.574219 458.277344 476.742188 C 457.871094 476.914062 457.480469 477.121094 457.113281 477.367188 C 456.746094 477.613281 456.40625 477.890625 456.09375 478.203125 C 455.78125 478.515625 455.503906 478.855469 455.257812 479.222656 C 455.011719 479.589844 454.804688 479.980469 454.632812 480.386719 C 454.464844 480.796875 454.335938 481.214844 454.25 481.648438 C 454.164062 482.082031 454.121094 482.519531 454.121094 482.964844 C 454.121094 483.40625 454.164062 483.84375 454.25 484.277344 C 454.335938 484.710938 454.464844 485.128906 454.632812 485.539062 C 454.804688 485.949219 455.011719 486.335938 455.257812 486.703125 C 455.503906 487.070312 455.78125 487.410156 456.09375 487.722656 C 456.40625 488.035156 456.746094 488.316406 457.113281 488.558594 C 457.480469 488.804688 457.871094 489.011719 458.277344 489.183594 C 458.6875 489.351562 459.109375 489.480469 459.542969 489.566406 C 459.976562 489.652344 460.414062 489.695312 460.855469 489.695312 L 512.710938 489.695312 C 513.148438 489.691406 513.585938 489.648438 514.015625 489.5625 C 514.449219 489.472656 514.867188 489.34375 515.273438 489.175781 C 515.679688 489.007812 516.0625 488.800781 516.429688 488.554688 C 516.792969 488.308594 517.132812 488.03125 517.445312 487.722656 C 517.753906 487.410156 518.03125 487.070312 518.277344 486.707031 C 518.523438 486.339844 518.726562 485.953125 518.898438 485.550781 C 519.066406 485.144531 519.195312 484.722656 519.28125 484.292969 C 519.367188 483.863281 519.414062 483.425781 519.414062 482.988281 Z M 519.414062 448.347656 C 519.414062 447.90625 519.371094 447.46875 519.285156 447.035156 C 519.199219 446.605469 519.074219 446.183594 518.902344 445.777344 C 518.734375 445.371094 518.53125 444.984375 518.285156 444.617188 C 518.039062 444.25 517.761719 443.910156 517.453125 443.597656 C 517.140625 443.285156 516.800781 443.007812 516.4375 442.761719 C 516.070312 442.515625 515.683594 442.304688 515.277344 442.136719 C 514.871094 441.964844 514.453125 441.835938 514.019531 441.75 C 513.585938 441.660156 513.152344 441.617188 512.710938 441.613281 L 460.855469 441.613281 C 460.414062 441.613281 459.976562 441.660156 459.542969 441.746094 C 459.109375 441.832031 458.6875 441.957031 458.277344 442.128906 C 457.871094 442.296875 457.480469 442.503906 457.113281 442.75 C 456.746094 442.996094 456.40625 443.273438 456.09375 443.585938 C 455.78125 443.898438 455.503906 444.238281 455.257812 444.605469 C 455.011719 444.972656 454.804688 445.363281 454.632812 445.769531 C 454.464844 446.179688 454.335938 446.601562 454.25 447.035156 C 454.164062 447.46875 454.121094 447.90625 454.121094 448.347656 C 454.121094 448.789062 454.164062 449.226562 454.25 449.660156 C 454.335938 450.09375 454.464844 450.515625 454.632812 450.921875 C 454.804688 451.332031 455.011719 451.71875 455.257812 452.085938 C 455.503906 452.453125 455.78125 452.792969 456.09375 453.105469 C 456.40625 453.417969 456.746094 453.699219 457.113281 453.945312 C 457.480469 454.1875 457.871094 454.394531 458.277344 454.566406 C 458.6875 454.734375 459.109375 454.863281 459.542969 454.949219 C 459.976562 455.035156 460.414062 455.078125 460.855469 455.078125 L 512.710938 455.078125 C 513.152344 455.074219 513.585938 455.03125 514.019531 454.945312 C 514.453125 454.855469 514.871094 454.726562 515.277344 454.558594 C 515.683594 454.386719 516.070312 454.179688 516.4375 453.933594 C 516.800781 453.6875 517.140625 453.410156 517.453125 453.097656 C 517.761719 452.785156 518.039062 452.445312 518.285156 452.078125 C 518.53125 451.710938 518.734375 451.324219 518.902344 450.914062 C 519.074219 450.507812 519.199219 450.089844 519.285156 449.65625 C 519.371094 449.222656 519.414062 448.789062 519.414062 448.347656 Z M 545.296875 482.988281 C 545.296875 482.542969 545.253906 482.105469 545.171875 481.667969 C 545.085938 481.234375 544.957031 480.8125 544.789062 480.402344 C 544.621094 479.992188 544.414062 479.601562 544.167969 479.234375 C 543.921875 478.863281 543.644531 478.523438 543.328125 478.210938 C 543.015625 477.894531 542.675781 477.617188 542.308594 477.367188 C 541.9375 477.121094 541.550781 476.914062 541.140625 476.746094 C 540.730469 476.574219 540.308594 476.445312 539.871094 476.359375 C 539.4375 476.273438 539 476.230469 538.554688 476.230469 L 537.3125 476.230469 C 536.871094 476.230469 536.433594 476.273438 536 476.359375 C 535.5625 476.445312 535.144531 476.574219 534.734375 476.742188 C 534.324219 476.914062 533.9375 477.121094 533.570312 477.367188 C 533.203125 477.613281 532.863281 477.890625 532.550781 478.203125 C 532.238281 478.515625 531.957031 478.855469 531.710938 479.222656 C 531.464844 479.589844 531.257812 479.980469 531.089844 480.386719 C 530.921875 480.796875 530.792969 481.214844 530.707031 481.648438 C 530.621094 482.082031 530.578125 482.519531 530.578125 482.964844 C 530.578125 483.40625 530.621094 483.84375 530.707031 484.277344 C 530.792969 484.710938 530.921875 485.128906 531.089844 485.539062 C 531.257812 485.949219 531.464844 486.335938 531.710938 486.703125 C 531.957031 487.070312 532.238281 487.410156 532.550781 487.722656 C 532.863281 488.035156 533.203125 488.316406 533.570312 488.558594 C 533.9375 488.804688 534.324219 489.011719 534.734375 489.183594 C 535.144531 489.351562 535.5625 489.480469 536 489.566406 C 536.433594 489.652344 536.871094 489.695312 537.3125 489.695312 L 538.554688 489.695312 C 538.996094 489.695312 539.433594 489.652344 539.867188 489.566406 C 540.300781 489.480469 540.71875 489.355469 541.128906 489.1875 C 541.535156 489.019531 541.925781 488.8125 542.292969 488.566406 C 542.660156 488.324219 543 488.046875 543.3125 487.734375 C 543.625 487.421875 543.90625 487.082031 544.152344 486.71875 C 544.398438 486.351562 544.605469 485.964844 544.773438 485.558594 C 544.945312 485.148438 545.074219 484.730469 545.160156 484.296875 C 545.25 483.867188 545.292969 483.429688 545.296875 482.988281 Z M 545.296875 448.347656 C 545.296875 447.90625 545.253906 447.46875 545.164062 447.035156 C 545.078125 446.601562 544.953125 446.179688 544.78125 445.769531 C 544.613281 445.363281 544.40625 444.972656 544.160156 444.605469 C 543.914062 444.238281 543.636719 443.898438 543.324219 443.585938 C 543.011719 443.273438 542.671875 442.996094 542.300781 442.75 C 541.933594 442.503906 541.546875 442.296875 541.136719 442.128906 C 540.730469 441.957031 540.308594 441.832031 539.875 441.746094 C 539.441406 441.660156 539.003906 441.613281 538.5625 441.613281 L 537.316406 441.613281 C 536.875 441.617188 536.4375 441.660156 536.003906 441.746094 C 535.570312 441.832031 535.148438 441.957031 534.742188 442.128906 C 534.332031 442.296875 533.945312 442.503906 533.578125 442.75 C 533.207031 442.996094 532.867188 443.273438 532.554688 443.585938 C 532.242188 443.898438 531.964844 444.238281 531.71875 444.605469 C 531.472656 444.972656 531.265625 445.363281 531.097656 445.769531 C 530.925781 446.179688 530.800781 446.601562 530.714844 447.035156 C 530.625 447.46875 530.582031 447.90625 530.582031 448.347656 C 530.582031 448.789062 530.625 449.226562 530.714844 449.660156 C 530.800781 450.09375 530.925781 450.515625 531.097656 450.921875 C 531.265625 451.332031 531.472656 451.71875 531.71875 452.085938 C 531.964844 452.453125 532.242188 452.792969 532.554688 453.105469 C 532.867188 453.417969 533.207031 453.699219 533.578125 453.945312 C 533.945312 454.1875 534.332031 454.398438 534.742188 454.566406 C 535.148438 454.734375 535.570312 454.863281 536.003906 454.949219 C 536.4375 455.035156 536.875 455.078125 537.316406 455.078125 L 538.5625 455.078125 C 539.003906 455.078125 539.441406 455.035156 539.875 454.949219 C 540.308594 454.863281 540.730469 454.734375 541.136719 454.566406 C 541.546875 454.398438 541.933594 454.1875 542.300781 453.945312 C 542.671875 453.699219 543.011719 453.417969 543.324219 453.105469 C 543.636719 452.792969 543.914062 452.453125 544.160156 452.085938 C 544.40625 451.71875 544.613281 451.332031 544.78125 450.921875 C 544.953125 450.515625 545.078125 450.09375 545.164062 449.660156 C 545.253906 449.226562 545.296875 448.789062 545.296875 448.347656 Z M 551.558594 326.878906 C 551.558594 326.257812 551.527344 325.640625 551.46875 325.023438 C 551.40625 324.40625 551.316406 323.796875 551.195312 323.1875 C 551.074219 322.578125 550.921875 321.980469 550.742188 321.386719 C 550.5625 320.792969 550.355469 320.210938 550.117188 319.640625 C 549.878906 319.066406 549.613281 318.507812 549.320312 317.960938 C 549.027344 317.414062 548.710938 316.882812 548.367188 316.367188 C 548.023438 315.851562 547.652344 315.355469 547.257812 314.878906 C 546.867188 314.398438 546.449219 313.941406 546.011719 313.5 C 545.574219 313.0625 545.113281 312.648438 544.636719 312.253906 C 544.15625 311.863281 543.660156 311.492188 543.144531 311.148438 C 542.628906 310.804688 542.097656 310.488281 541.550781 310.195312 C 541.003906 309.902344 540.441406 309.640625 539.871094 309.402344 C 539.296875 309.164062 538.714844 308.957031 538.121094 308.777344 C 537.527344 308.597656 536.929688 308.445312 536.320312 308.324219 C 535.710938 308.203125 535.097656 308.113281 534.480469 308.054688 C 533.867188 307.992188 533.246094 307.960938 532.628906 307.960938 C 532.007812 307.960938 531.390625 307.992188 530.773438 308.054688 C 530.15625 308.113281 529.542969 308.207031 528.933594 308.328125 C 528.328125 308.449219 527.726562 308.597656 527.132812 308.777344 C 526.539062 308.957031 525.957031 309.167969 525.382812 309.402344 C 524.8125 309.640625 524.25 309.90625 523.707031 310.199219 C 523.160156 310.488281 522.628906 310.808594 522.113281 311.152344 C 521.597656 311.496094 521.097656 311.863281 520.621094 312.257812 C 520.140625 312.652344 519.683594 313.066406 519.242188 313.503906 C 518.804688 313.941406 518.390625 314.402344 517.996094 314.878906 C 517.601562 315.359375 517.234375 315.855469 516.890625 316.371094 C 516.546875 316.886719 516.226562 317.417969 515.933594 317.964844 C 515.644531 318.511719 515.378906 319.070312 515.140625 319.640625 C 514.902344 320.214844 514.695312 320.796875 514.515625 321.390625 C 514.335938 321.984375 514.183594 322.582031 514.0625 323.191406 C 513.941406 323.800781 513.851562 324.410156 513.789062 325.027344 C 513.730469 325.644531 513.699219 326.261719 513.699219 326.882812 C 513.699219 327.503906 513.730469 328.121094 513.789062 328.738281 C 513.851562 329.351562 513.941406 329.964844 514.0625 330.574219 C 514.183594 331.179688 514.332031 331.78125 514.511719 332.375 C 514.695312 332.96875 514.902344 333.550781 515.140625 334.121094 C 515.375 334.695312 515.640625 335.253906 515.933594 335.800781 C 516.226562 336.347656 516.542969 336.878906 516.886719 337.394531 C 517.230469 337.910156 517.601562 338.40625 517.992188 338.886719 C 518.386719 339.363281 518.800781 339.824219 519.242188 340.261719 C 519.679688 340.699219 520.136719 341.113281 520.617188 341.507812 C 521.097656 341.902344 521.59375 342.269531 522.109375 342.613281 C 522.625 342.960938 523.15625 343.277344 523.703125 343.570312 C 524.25 343.863281 524.808594 344.125 525.378906 344.363281 C 525.953125 344.601562 526.535156 344.808594 527.128906 344.988281 C 527.722656 345.167969 528.324219 345.320312 528.929688 345.441406 C 529.539062 345.5625 530.152344 345.652344 530.769531 345.714844 C 531.386719 345.777344 532.003906 345.804688 532.625 345.804688 C 533.242188 345.804688 533.863281 345.773438 534.476562 345.714844 C 535.09375 345.652344 535.707031 345.5625 536.316406 345.441406 C 536.921875 345.316406 537.523438 345.167969 538.117188 344.988281 C 538.710938 344.808594 539.292969 344.597656 539.867188 344.359375 C 540.4375 344.121094 541 343.859375 541.542969 343.566406 C 542.089844 343.273438 542.621094 342.953125 543.136719 342.609375 C 543.652344 342.265625 544.148438 341.898438 544.628906 341.503906 C 545.109375 341.109375 545.566406 340.695312 546.003906 340.257812 C 546.445312 339.820312 546.859375 339.359375 547.253906 338.878906 C 547.644531 338.402344 548.015625 337.90625 548.359375 337.390625 C 548.703125 336.875 549.023438 336.34375 549.316406 335.796875 C 549.605469 335.25 549.871094 334.691406 550.109375 334.117188 C 550.347656 333.546875 550.554688 332.964844 550.734375 332.371094 C 550.914062 331.777344 551.066406 331.175781 551.1875 330.570312 C 551.308594 329.960938 551.398438 329.347656 551.460938 328.734375 C 551.523438 328.117188 551.550781 327.5 551.554688 326.878906 Z M 551.558594 280.433594 C 551.558594 279.992188 551.515625 279.554688 551.429688 279.121094 C 551.34375 278.6875 551.214844 278.265625 551.046875 277.859375 C 550.878906 277.449219 550.667969 277.0625 550.425781 276.695312 C 550.179688 276.328125 549.898438 275.984375 549.585938 275.671875 C 549.273438 275.359375 548.933594 275.082031 548.566406 274.835938 C 548.199219 274.589844 547.808594 274.382812 547.402344 274.214844 C 546.992188 274.046875 546.570312 273.917969 546.136719 273.832031 C 545.703125 273.746094 545.265625 273.703125 544.824219 273.703125 L 485.628906 273.703125 C 485.183594 273.703125 484.746094 273.746094 484.3125 273.832031 C 483.878906 273.917969 483.457031 274.046875 483.050781 274.214844 C 482.640625 274.382812 482.253906 274.589844 481.886719 274.835938 C 481.519531 275.082031 481.179688 275.359375 480.867188 275.671875 C 480.550781 275.984375 480.273438 276.328125 480.027344 276.695312 C 479.78125 277.0625 479.574219 277.449219 479.40625 277.859375 C 479.234375 278.265625 479.109375 278.6875 479.023438 279.121094 C 478.9375 279.554688 478.894531 279.992188 478.894531 280.433594 C 478.894531 280.875 478.9375 281.3125 479.023438 281.746094 C 479.109375 282.179688 479.234375 282.601562 479.40625 283.007812 C 479.574219 283.417969 479.78125 283.804688 480.027344 284.171875 C 480.273438 284.539062 480.550781 284.878906 480.867188 285.195312 C 481.179688 285.507812 481.519531 285.785156 481.886719 286.03125 C 482.253906 286.277344 482.640625 286.484375 483.050781 286.652344 C 483.457031 286.820312 483.878906 286.949219 484.3125 287.035156 C 484.746094 287.121094 485.183594 287.164062 485.628906 287.164062 L 544.820312 287.164062 C 545.261719 287.164062 545.699219 287.121094 546.128906 287.035156 C 546.5625 286.953125 546.984375 286.824219 547.394531 286.65625 C 547.800781 286.488281 548.1875 286.28125 548.554688 286.035156 C 548.921875 285.792969 549.261719 285.511719 549.574219 285.203125 C 549.886719 284.890625 550.167969 284.550781 550.414062 284.183594 C 550.660156 283.816406 550.867188 283.429688 551.035156 283.023438 C 551.207031 282.617188 551.335938 282.195312 551.421875 281.761719 C 551.507812 281.328125 551.550781 280.894531 551.554688 280.453125 Z M 551.558594 248.964844 C 551.558594 248.523438 551.515625 248.085938 551.429688 247.652344 C 551.34375 247.21875 551.214844 246.796875 551.046875 246.390625 C 550.878906 245.980469 550.667969 245.59375 550.425781 245.226562 C 550.179688 244.859375 549.898438 244.519531 549.585938 244.207031 C 549.273438 243.894531 548.933594 243.613281 548.566406 243.367188 C 548.199219 243.121094 547.808594 242.914062 547.402344 242.746094 C 546.992188 242.578125 546.570312 242.449219 546.136719 242.363281 C 545.703125 242.277344 545.265625 242.234375 544.824219 242.234375 L 496.574219 242.234375 C 496.132812 242.234375 495.695312 242.277344 495.261719 242.367188 C 494.828125 242.453125 494.410156 242.582031 494 242.75 C 493.59375 242.917969 493.207031 243.128906 492.839844 243.375 C 492.472656 243.617188 492.132812 243.898438 491.820312 244.210938 C 491.507812 244.523438 491.230469 244.863281 490.984375 245.230469 C 490.738281 245.597656 490.53125 245.984375 490.363281 246.394531 C 490.195312 246.800781 490.066406 247.222656 489.980469 247.652344 C 489.894531 248.085938 489.851562 248.523438 489.851562 248.964844 C 489.851562 249.40625 489.894531 249.84375 489.980469 250.277344 C 490.066406 250.710938 490.195312 251.128906 490.363281 251.539062 C 490.53125 251.945312 490.738281 252.335938 490.984375 252.703125 C 491.230469 253.070312 491.507812 253.410156 491.820312 253.722656 C 492.132812 254.035156 492.472656 254.3125 492.839844 254.558594 C 493.207031 254.804688 493.59375 255.011719 494 255.179688 C 494.410156 255.351562 494.828125 255.480469 495.261719 255.566406 C 495.695312 255.652344 496.132812 255.695312 496.574219 255.695312 L 544.820312 255.695312 C 545.261719 255.695312 545.699219 255.652344 546.128906 255.566406 C 546.5625 255.480469 546.984375 255.355469 547.390625 255.1875 C 547.800781 255.019531 548.1875 254.8125 548.554688 254.566406 C 548.921875 254.320312 549.261719 254.042969 549.574219 253.730469 C 549.886719 253.421875 550.164062 253.082031 550.410156 252.714844 C 550.65625 252.347656 550.867188 251.960938 551.035156 251.554688 C 551.203125 251.148438 551.332031 250.726562 551.421875 250.292969 C 551.507812 249.863281 551.550781 249.425781 551.554688 248.984375 Z M 419.609375 245.214844 C 419.921875 245.527344 420.261719 245.804688 420.628906 246.050781 C 421 246.296875 421.386719 246.503906 421.792969 246.675781 C 422.203125 246.84375 422.625 246.972656 423.058594 247.058594 C 423.492188 247.144531 423.929688 247.1875 424.371094 247.1875 C 424.8125 247.1875 425.253906 247.144531 425.6875 247.058594 C 426.121094 246.972656 426.539062 246.84375 426.949219 246.675781 C 427.359375 246.503906 427.746094 246.296875 428.113281 246.050781 C 428.480469 245.804688 428.820312 245.527344 429.132812 245.214844 L 450.121094 224.234375 L 544.820312 224.234375 C 545.261719 224.234375 545.699219 224.191406 546.132812 224.105469 C 546.5625 224.019531 546.984375 223.890625 547.394531 223.71875 C 547.800781 223.550781 548.1875 223.34375 548.554688 223.097656 C 548.921875 222.851562 549.261719 222.574219 549.574219 222.261719 C 549.886719 221.949219 550.164062 221.609375 550.410156 221.242188 C 550.65625 220.875 550.863281 220.484375 551.03125 220.078125 C 551.199219 219.667969 551.328125 219.25 551.414062 218.816406 C 551.5 218.382812 551.542969 217.945312 551.542969 217.503906 C 551.542969 217.0625 551.5 216.625 551.414062 216.191406 C 551.328125 215.757812 551.199219 215.339844 551.03125 214.929688 C 550.863281 214.523438 550.65625 214.132812 550.410156 213.765625 C 550.164062 213.398438 549.886719 213.058594 549.574219 212.746094 C 549.261719 212.433594 548.921875 212.15625 548.554688 211.910156 C 548.1875 211.664062 547.800781 211.457031 547.394531 211.289062 C 546.984375 211.117188 546.5625 210.988281 546.132812 210.902344 C 545.699219 210.816406 545.261719 210.773438 544.820312 210.773438 L 447.332031 210.773438 C 446.441406 210.769531 445.582031 210.941406 444.753906 211.285156 C 443.929688 211.625 443.203125 212.113281 442.570312 212.746094 L 419.640625 235.695312 C 419.328125 236.007812 419.046875 236.347656 418.800781 236.710938 C 418.550781 237.078125 418.34375 237.464844 418.171875 237.875 C 418.003906 238.28125 417.875 238.703125 417.785156 239.136719 C 417.699219 239.570312 417.652344 240.007812 417.652344 240.449219 C 417.648438 240.890625 417.691406 241.328125 417.777344 241.761719 C 417.863281 242.195312 417.988281 242.617188 418.15625 243.027344 C 418.324219 243.433594 418.53125 243.824219 418.777344 244.191406 C 419.019531 244.558594 419.300781 244.902344 419.609375 245.214844 Z M 373.554688 215.597656 C 373.554688 216.039062 373.597656 216.476562 373.6875 216.910156 C 373.773438 217.34375 373.898438 217.765625 374.070312 218.171875 C 374.238281 218.582031 374.445312 218.96875 374.691406 219.335938 C 374.9375 219.707031 375.214844 220.046875 375.527344 220.359375 C 375.839844 220.671875 376.179688 220.949219 376.550781 221.195312 C 376.917969 221.441406 377.304688 221.648438 377.714844 221.816406 C 378.121094 221.984375 378.542969 222.113281 378.976562 222.199219 C 379.410156 222.285156 379.847656 222.328125 380.289062 222.328125 L 381.546875 222.328125 C 381.988281 222.328125 382.425781 222.285156 382.859375 222.199219 C 383.292969 222.113281 383.714844 221.984375 384.121094 221.816406 C 384.53125 221.648438 384.917969 221.441406 385.289062 221.195312 C 385.65625 220.949219 385.996094 220.671875 386.308594 220.359375 C 386.621094 220.046875 386.898438 219.707031 387.144531 219.335938 C 387.390625 218.96875 387.597656 218.582031 387.765625 218.171875 C 387.9375 217.765625 388.066406 217.34375 388.152344 216.910156 C 388.238281 216.476562 388.28125 216.039062 388.28125 215.597656 C 388.28125 215.15625 388.238281 214.71875 388.152344 214.285156 C 388.066406 213.851562 387.9375 213.429688 387.765625 213.023438 C 387.597656 212.613281 387.390625 212.226562 387.144531 211.859375 C 386.898438 211.492188 386.621094 211.152344 386.308594 210.835938 C 385.996094 210.523438 385.65625 210.246094 385.289062 210 C 384.917969 209.753906 384.53125 209.546875 384.121094 209.378906 C 383.714844 209.210938 383.292969 209.082031 382.859375 208.996094 C 382.425781 208.910156 381.988281 208.867188 381.546875 208.867188 L 380.289062 208.867188 C 379.847656 208.867188 379.410156 208.910156 378.976562 208.996094 C 378.542969 209.082031 378.121094 209.210938 377.714844 209.378906 C 377.304688 209.546875 376.917969 209.753906 376.550781 210 C 376.179688 210.246094 375.839844 210.523438 375.527344 210.839844 C 375.214844 211.152344 374.9375 211.492188 374.691406 211.859375 C 374.445312 212.226562 374.238281 212.613281 374.070312 213.023438 C 373.898438 213.429688 373.773438 213.851562 373.6875 214.285156 C 373.597656 214.71875 373.554688 215.15625 373.554688 215.597656 Z M 296.28125 184.617188 C 296.28125 185.058594 296.324219 185.5 296.410156 185.933594 C 296.496094 186.363281 296.621094 186.785156 296.792969 187.195312 C 296.960938 187.601562 297.167969 187.992188 297.414062 188.359375 C 297.660156 188.726562 297.9375 189.066406 298.253906 189.378906 C 298.566406 189.691406 298.90625 189.96875 299.273438 190.214844 C 299.640625 190.460938 300.027344 190.667969 300.4375 190.835938 C 300.84375 191.007812 301.265625 191.132812 301.699219 191.21875 C 302.132812 191.308594 302.570312 191.351562 303.015625 191.351562 L 342.386719 191.351562 C 342.832031 191.351562 343.269531 191.308594 343.703125 191.21875 C 344.136719 191.132812 344.558594 191.007812 344.964844 190.835938 C 345.375 190.667969 345.761719 190.460938 346.128906 190.214844 C 346.496094 189.96875 346.835938 189.691406 347.152344 189.378906 C 347.464844 189.066406 347.742188 188.726562 347.988281 188.359375 C 348.234375 187.992188 348.441406 187.601562 348.609375 187.195312 C 348.78125 186.785156 348.90625 186.363281 348.992188 185.933594 C 349.078125 185.5 349.121094 185.058594 349.121094 184.617188 C 349.121094 184.175781 349.078125 183.738281 348.992188 183.304688 C 348.90625 182.871094 348.78125 182.449219 348.609375 182.042969 C 348.441406 181.632812 348.234375 181.246094 347.988281 180.878906 C 347.742188 180.511719 347.464844 180.171875 347.152344 179.859375 C 346.835938 179.546875 346.496094 179.265625 346.128906 179.019531 C 345.761719 178.777344 345.375 178.570312 344.964844 178.398438 C 344.558594 178.230469 344.136719 178.101562 343.703125 178.015625 C 343.269531 177.929688 342.832031 177.886719 342.386719 177.886719 L 303.015625 177.886719 C 302.570312 177.886719 302.132812 177.929688 301.699219 178.015625 C 301.265625 178.101562 300.84375 178.230469 300.4375 178.398438 C 300.027344 178.570312 299.640625 178.777344 299.273438 179.019531 C 298.90625 179.265625 298.566406 179.546875 298.253906 179.859375 C 297.9375 180.171875 297.660156 180.511719 297.414062 180.878906 C 297.167969 181.246094 296.960938 181.632812 296.792969 182.042969 C 296.621094 182.449219 296.496094 182.871094 296.410156 183.304688 C 296.324219 183.738281 296.28125 184.175781 296.28125 184.617188 Z M 296.28125 215.597656 C 296.28125 216.039062 296.324219 216.476562 296.410156 216.910156 C 296.496094 217.34375 296.621094 217.765625 296.792969 218.171875 C 296.960938 218.582031 297.167969 218.96875 297.414062 219.335938 C 297.660156 219.703125 297.9375 220.046875 298.253906 220.359375 C 298.566406 220.671875 298.90625 220.949219 299.273438 221.195312 C 299.640625 221.441406 300.027344 221.648438 300.4375 221.816406 C 300.84375 221.984375 301.265625 222.113281 301.699219 222.199219 C 302.132812 222.285156 302.570312 222.328125 303.015625 222.328125 L 355.394531 222.328125 C 355.835938 222.328125 356.273438 222.285156 356.707031 222.199219 C 357.140625 222.113281 357.5625 221.984375 357.96875 221.816406 C 358.378906 221.648438 358.765625 221.441406 359.132812 221.195312 C 359.5 220.949219 359.84375 220.671875 360.15625 220.359375 C 360.46875 220.046875 360.746094 219.707031 360.992188 219.335938 C 361.238281 218.96875 361.445312 218.582031 361.613281 218.171875 C 361.785156 217.765625 361.910156 217.34375 361.996094 216.910156 C 362.082031 216.476562 362.128906 216.039062 362.128906 215.597656 C 362.128906 215.15625 362.082031 214.71875 361.996094 214.285156 C 361.910156 213.851562 361.785156 213.429688 361.613281 213.023438 C 361.445312 212.613281 361.238281 212.226562 360.992188 211.859375 C 360.746094 211.492188 360.46875 211.152344 360.15625 210.835938 C 359.84375 210.523438 359.5 210.246094 359.132812 210 C 358.765625 209.753906 358.378906 209.546875 357.96875 209.378906 C 357.5625 209.210938 357.140625 209.082031 356.707031 208.996094 C 356.273438 208.910156 355.835938 208.867188 355.394531 208.867188 L 303.015625 208.867188 C 302.570312 208.867188 302.132812 208.910156 301.699219 208.996094 C 301.265625 209.082031 300.84375 209.210938 300.4375 209.378906 C 300.027344 209.546875 299.640625 209.753906 299.273438 210 C 298.90625 210.246094 298.566406 210.523438 298.253906 210.835938 C 297.9375 211.152344 297.660156 211.492188 297.414062 211.859375 C 297.167969 212.226562 296.960938 212.613281 296.792969 213.023438 C 296.621094 213.429688 296.496094 213.851562 296.410156 214.285156 C 296.324219 214.71875 296.28125 215.15625 296.28125 215.597656 Z M 293.523438 308.65625 C 293.523438 309.753906 293.550781 310.851562 293.605469 311.945312 C 293.65625 313.042969 293.738281 314.136719 293.847656 315.226562 C 293.957031 316.316406 294.089844 317.40625 294.25 318.492188 C 294.414062 319.578125 294.601562 320.65625 294.816406 321.734375 C 295.03125 322.808594 295.269531 323.878906 295.539062 324.941406 C 295.804688 326.007812 296.097656 327.0625 296.417969 328.113281 C 296.734375 329.164062 297.078125 330.203125 297.449219 331.238281 C 297.820312 332.269531 298.214844 333.292969 298.636719 334.308594 C 299.054688 335.320312 299.5 336.324219 299.96875 337.3125 C 300.441406 338.304688 300.933594 339.285156 301.449219 340.253906 C 301.96875 341.21875 302.511719 342.171875 303.074219 343.113281 C 303.640625 344.054688 304.226562 344.980469 304.835938 345.894531 C 305.445312 346.804688 306.078125 347.703125 306.734375 348.582031 C 307.386719 349.464844 308.0625 350.328125 308.757812 351.175781 C 309.453125 352.023438 310.171875 352.855469 310.910156 353.667969 C 311.644531 354.480469 312.402344 355.273438 313.179688 356.050781 C 313.957031 356.824219 314.75 357.582031 315.5625 358.316406 C 316.378906 359.054688 317.207031 359.769531 318.058594 360.464844 C 318.90625 361.160156 319.769531 361.835938 320.652344 362.488281 C 321.535156 363.140625 322.429688 363.773438 323.34375 364.382812 C 324.257812 364.992188 325.183594 365.578125 326.125 366.140625 C 327.066406 366.707031 328.023438 367.246094 328.988281 367.761719 C 329.957031 368.28125 330.9375 368.773438 331.929688 369.242188 C 332.921875 369.710938 333.925781 370.152344 334.941406 370.574219 C 335.953125 370.992188 336.976562 371.386719 338.011719 371.757812 C 339.042969 372.125 340.085938 372.46875 341.136719 372.789062 C 342.1875 373.105469 343.246094 373.398438 344.308594 373.664062 C 345.375 373.929688 346.445312 374.171875 347.519531 374.386719 C 348.597656 374.597656 349.679688 374.785156 350.765625 374.945312 C 351.851562 375.105469 352.9375 375.242188 354.03125 375.347656 C 355.125 375.457031 356.21875 375.535156 357.3125 375.589844 C 358.410156 375.644531 359.507812 375.667969 360.605469 375.667969 C 361.703125 375.667969 362.796875 375.640625 363.894531 375.589844 C 364.992188 375.535156 366.085938 375.453125 367.175781 375.34375 C 368.269531 375.238281 369.359375 375.101562 370.445312 374.941406 C 371.53125 374.78125 372.609375 374.59375 373.6875 374.378906 C 374.761719 374.164062 375.832031 373.921875 376.898438 373.65625 C 377.964844 373.390625 379.019531 373.097656 380.070312 372.777344 C 381.121094 372.460938 382.164062 372.117188 383.195312 371.746094 C 384.230469 371.375 385.253906 370.980469 386.265625 370.5625 C 387.28125 370.140625 388.285156 369.695312 389.273438 369.226562 C 390.265625 368.757812 391.246094 368.265625 392.214844 367.746094 C 393.183594 367.230469 394.136719 366.6875 395.078125 366.125 C 396.019531 365.5625 396.945312 364.972656 397.859375 364.363281 C 398.773438 363.753906 399.667969 363.125 400.550781 362.46875 C 401.429688 361.816406 402.296875 361.140625 403.144531 360.445312 C 403.992188 359.75 404.824219 359.03125 405.636719 358.296875 C 406.449219 357.558594 407.242188 356.800781 408.019531 356.027344 C 408.796875 355.25 409.550781 354.457031 410.289062 353.644531 C 411.027344 352.832031 411.742188 352 412.4375 351.152344 C 413.132812 350.304688 413.808594 349.4375 414.464844 348.558594 C 415.117188 347.675781 415.75 346.777344 416.359375 345.867188 C 416.96875 344.953125 417.554688 344.027344 418.117188 343.085938 C 418.683594 342.144531 419.222656 341.191406 419.742188 340.222656 C 420.257812 339.257812 420.75 338.277344 421.21875 337.285156 C 421.6875 336.292969 422.132812 335.289062 422.554688 334.277344 C 422.972656 333.261719 423.367188 332.238281 423.738281 331.207031 C 424.105469 330.175781 424.449219 329.132812 424.769531 328.082031 C 425.089844 327.03125 425.378906 325.976562 425.648438 324.910156 C 425.914062 323.847656 426.152344 322.777344 426.367188 321.703125 C 426.582031 320.625 426.769531 319.546875 426.929688 318.460938 C 427.089844 317.375 427.226562 316.285156 427.332031 315.195312 C 427.441406 314.101562 427.519531 313.007812 427.574219 311.914062 C 427.628906 310.816406 427.65625 309.722656 427.65625 308.625 C 427.65625 307.527344 427.628906 306.429688 427.574219 305.335938 C 427.519531 304.238281 427.4375 303.144531 427.332031 302.054688 C 427.222656 300.960938 427.089844 299.875 426.925781 298.789062 C 426.765625 297.703125 426.578125 296.621094 426.363281 295.546875 C 426.152344 294.472656 425.910156 293.402344 425.644531 292.335938 C 425.375 291.273438 425.082031 290.214844 424.765625 289.164062 C 424.445312 288.117188 424.101562 287.074219 423.730469 286.042969 C 423.363281 285.007812 422.96875 283.984375 422.546875 282.972656 C 422.128906 281.960938 421.683594 280.957031 421.214844 279.964844 C 420.742188 278.972656 420.25 277.992188 419.734375 277.027344 C 419.214844 276.058594 418.675781 275.105469 418.109375 274.164062 C 417.546875 273.222656 416.960938 272.296875 416.347656 271.382812 C 415.738281 270.472656 415.109375 269.574219 414.453125 268.695312 C 413.800781 267.8125 413.125 266.949219 412.429688 266.101562 C 411.730469 265.253906 411.015625 264.421875 410.277344 263.609375 C 409.542969 262.796875 408.785156 262.003906 408.007812 261.226562 C 407.230469 260.449219 406.4375 259.695312 405.625 258.957031 C 404.8125 258.222656 403.980469 257.503906 403.132812 256.808594 C 402.285156 256.113281 401.417969 255.4375 400.535156 254.785156 C 399.65625 254.132812 398.757812 253.5 397.847656 252.890625 C 396.933594 252.28125 396.007812 251.695312 395.066406 251.132812 C 394.125 250.566406 393.167969 250.027344 392.199219 249.507812 C 391.234375 248.992188 390.253906 248.5 389.261719 248.03125 C 388.269531 247.5625 387.265625 247.117188 386.25 246.695312 C 385.238281 246.277344 384.214844 245.882812 383.179688 245.511719 C 382.148438 245.144531 381.105469 244.800781 380.054688 244.480469 C 379.003906 244.164062 377.949219 243.871094 376.882812 243.605469 C 375.816406 243.335938 374.746094 243.097656 373.671875 242.882812 C 372.59375 242.667969 371.515625 242.480469 370.429688 242.320312 C 369.34375 242.160156 368.253906 242.023438 367.160156 241.917969 C 366.070312 241.808594 364.976562 241.730469 363.878906 241.675781 C 362.78125 241.621094 361.6875 241.59375 360.589844 241.59375 C 359.492188 241.597656 358.394531 241.625 357.296875 241.679688 C 356.203125 241.734375 355.109375 241.816406 354.015625 241.925781 C 352.921875 242.035156 351.835938 242.167969 350.75 242.332031 C 349.664062 242.492188 348.582031 242.679688 347.507812 242.894531 C 346.429688 243.113281 345.359375 243.351562 344.296875 243.621094 C 343.230469 243.886719 342.175781 244.179688 341.125 244.5 C 340.074219 244.820312 339.03125 245.164062 338 245.535156 C 336.964844 245.90625 335.941406 246.300781 334.929688 246.722656 C 333.917969 247.140625 332.914062 247.585938 331.921875 248.054688 C 330.929688 248.527344 329.949219 249.019531 328.980469 249.535156 C 328.015625 250.054688 327.058594 250.597656 326.121094 251.160156 C 325.179688 251.726562 324.25 252.3125 323.339844 252.921875 C 322.425781 253.53125 321.53125 254.164062 320.648438 254.816406 C 319.769531 255.472656 318.902344 256.144531 318.054688 256.84375 C 317.207031 257.539062 316.375 258.253906 315.5625 258.992188 C 314.75 259.730469 313.957031 260.484375 313.179688 261.261719 C 312.402344 262.035156 311.648438 262.832031 310.910156 263.644531 C 310.171875 264.457031 309.457031 265.289062 308.761719 266.136719 C 308.0625 266.984375 307.390625 267.847656 306.734375 268.730469 C 306.082031 269.609375 305.449219 270.507812 304.839844 271.417969 C 304.230469 272.332031 303.644531 273.257812 303.078125 274.199219 C 302.515625 275.140625 301.972656 276.09375 301.457031 277.0625 C 300.9375 278.027344 300.445312 279.007812 299.976562 280 C 299.507812 280.992188 299.0625 281.992188 298.640625 283.007812 C 298.222656 284.019531 297.824219 285.042969 297.457031 286.078125 C 297.085938 287.109375 296.742188 288.148438 296.421875 289.199219 C 296.101562 290.25 295.808594 291.304688 295.542969 292.371094 C 295.273438 293.433594 295.035156 294.503906 294.820312 295.578125 C 294.605469 296.65625 294.417969 297.734375 294.253906 298.820312 C 294.09375 299.90625 293.957031 300.996094 293.851562 302.085938 C 293.742188 303.179688 293.660156 304.273438 293.605469 305.367188 C 293.550781 306.464844 293.523438 307.558594 293.523438 308.65625 Z M 282.054688 372.71875 C 281.613281 372.71875 281.175781 372.761719 280.742188 372.847656 C 280.308594 372.9375 279.886719 373.0625 279.480469 373.230469 C 279.070312 373.402344 278.683594 373.609375 278.316406 373.855469 C 277.949219 374.101562 277.605469 374.378906 277.292969 374.691406 C 276.980469 375.003906 276.703125 375.34375 276.457031 375.710938 C 276.210938 376.078125 276.003906 376.46875 275.835938 376.875 C 275.664062 377.285156 275.539062 377.703125 275.453125 378.136719 C 275.367188 378.570312 275.320312 379.007812 275.320312 379.453125 C 275.320312 379.894531 275.363281 380.332031 275.453125 380.765625 C 275.539062 381.199219 275.664062 381.617188 275.835938 382.027344 C 276.003906 382.4375 276.210938 382.824219 276.457031 383.191406 C 276.703125 383.558594 276.980469 383.898438 277.292969 384.210938 C 277.605469 384.523438 277.949219 384.804688 278.316406 385.046875 C 278.683594 385.292969 279.070312 385.5 279.480469 385.671875 C 279.886719 385.839844 280.308594 385.96875 280.742188 386.054688 C 281.175781 386.140625 281.613281 386.183594 282.054688 386.183594 L 304.644531 386.183594 C 305.085938 386.183594 305.523438 386.140625 305.957031 386.054688 C 306.390625 385.96875 306.8125 385.839844 307.21875 385.671875 C 307.628906 385.5 308.015625 385.292969 308.382812 385.046875 C 308.753906 384.804688 309.09375 384.523438 309.40625 384.210938 C 309.71875 383.898438 309.996094 383.558594 310.242188 383.191406 C 310.488281 382.824219 310.695312 382.4375 310.863281 382.027344 C 311.035156 381.617188 311.160156 381.199219 311.25 380.765625 C 311.335938 380.332031 311.378906 379.894531 311.378906 379.453125 C 311.378906 379.007812 311.335938 378.570312 311.25 378.136719 C 311.160156 377.703125 311.035156 377.285156 310.863281 376.875 C 310.695312 376.46875 310.488281 376.078125 310.242188 375.710938 C 309.996094 375.34375 309.71875 375.003906 309.40625 374.691406 C 309.09375 374.378906 308.753906 374.101562 308.382812 373.855469 C 308.015625 373.609375 307.628906 373.402344 307.21875 373.230469 C 306.8125 373.0625 306.390625 372.9375 305.957031 372.847656 C 305.523438 372.761719 305.085938 372.71875 304.644531 372.71875 Z M 401.074219 489.375 L 416.359375 489.375 L 416.359375 441.957031 L 401.074219 441.957031 Z M 405.054688 278.746094 C 404.546875 277.984375 404.015625 277.242188 403.46875 276.511719 C 402.921875 275.777344 402.355469 275.0625 401.769531 274.359375 C 401.183594 273.65625 400.582031 272.96875 399.964844 272.300781 C 399.34375 271.628906 398.707031 270.972656 398.050781 270.332031 C 397.398438 269.695312 396.730469 269.074219 396.042969 268.46875 C 395.359375 267.863281 394.660156 267.277344 393.941406 266.707031 C 393.226562 266.140625 392.496094 265.589844 391.753906 265.058594 C 391.011719 264.527344 390.253906 264.015625 389.484375 263.523438 C 388.714844 263.03125 387.929688 262.558594 387.136719 262.105469 C 386.34375 261.652344 385.539062 261.222656 384.722656 260.808594 C 383.90625 260.398438 383.078125 260.007812 382.242188 259.640625 C 381.40625 259.269531 380.5625 258.925781 379.707031 258.597656 C 378.851562 258.273438 377.992188 257.96875 377.121094 257.6875 C 376.25 257.40625 375.375 257.148438 374.492188 256.910156 C 373.609375 256.675781 372.722656 256.460938 371.828125 256.269531 C 370.933594 256.078125 370.035156 255.910156 369.132812 255.765625 C 368.230469 255.621094 367.324219 255.5 366.414062 255.402344 C 365.507812 255.300781 364.597656 255.226562 363.683594 255.175781 C 362.769531 255.125 361.859375 255.09375 360.945312 255.089844 C 360.027344 255.085938 359.117188 255.101562 358.203125 255.144531 C 357.289062 255.1875 356.378906 255.25 355.46875 255.339844 C 354.558594 255.429688 353.652344 255.539062 352.746094 255.675781 C 351.84375 255.808594 350.941406 255.96875 350.046875 256.148438 C 349.152344 256.328125 348.261719 256.53125 347.375 256.757812 C 346.488281 256.984375 345.609375 257.234375 344.738281 257.507812 C 343.863281 257.777344 343 258.070312 342.140625 258.386719 C 341.285156 258.703125 340.433594 259.042969 339.59375 259.402344 C 338.753906 259.761719 337.921875 260.140625 337.101562 260.542969 C 336.28125 260.945312 335.472656 261.367188 334.671875 261.8125 C 333.871094 262.253906 333.085938 262.71875 332.308594 263.203125 C 331.535156 263.6875 330.773438 264.1875 330.023438 264.710938 C 329.273438 265.234375 328.539062 265.777344 327.816406 266.335938 L 361.945312 300.453125 Z M 376.964844 359.660156 C 378.667969 359.117188 380.339844 358.484375 381.980469 357.773438 C 383.621094 357.058594 385.222656 356.265625 386.785156 355.390625 C 388.34375 354.519531 389.859375 353.570312 391.324219 352.542969 C 392.789062 351.519531 394.203125 350.421875 395.558594 349.257812 C 396.914062 348.089844 398.207031 346.859375 399.441406 345.5625 C 400.671875 344.265625 401.839844 342.914062 402.933594 341.5 C 404.03125 340.085938 405.054688 338.625 406.003906 337.109375 C 406.957031 335.59375 407.828125 334.035156 408.621094 332.433594 C 409.414062 330.828125 410.128906 329.191406 410.757812 327.515625 C 411.386719 325.84375 411.929688 324.140625 412.390625 322.414062 C 412.851562 320.6875 413.222656 318.9375 413.507812 317.171875 C 413.789062 315.40625 413.984375 313.632812 414.089844 311.847656 C 414.199219 310.0625 414.214844 308.277344 414.140625 306.488281 C 414.070312 304.703125 413.90625 302.925781 413.65625 301.152344 C 413.40625 299.382812 413.066406 297.628906 412.640625 295.894531 C 412.214844 294.15625 411.699219 292.445312 411.101562 290.761719 L 368.136719 312.390625 Z M 360.589844 362.230469 C 361.644531 362.230469 362.6875 362.1875 363.726562 362.128906 L 354.347656 311.9375 L 318.257812 275.855469 C 316.726562 277.824219 315.339844 279.890625 314.097656 282.050781 C 312.855469 284.214844 311.773438 286.453125 310.84375 288.765625 C 309.914062 291.082031 309.152344 293.449219 308.554688 295.871094 C 307.957031 298.289062 307.53125 300.742188 307.273438 303.222656 C 307.019531 305.703125 306.9375 308.1875 307.03125 310.679688 C 307.121094 313.171875 307.386719 315.644531 307.824219 318.097656 C 308.261719 320.554688 308.871094 322.964844 309.644531 325.335938 C 310.421875 327.703125 311.355469 330.007812 312.453125 332.25 C 313.550781 334.488281 314.800781 336.640625 316.195312 338.703125 C 317.59375 340.769531 319.128906 342.726562 320.800781 344.578125 C 322.472656 346.429688 324.265625 348.152344 326.179688 349.753906 C 328.09375 351.351562 330.109375 352.8125 332.222656 354.132812 C 334.339844 355.449219 336.539062 356.617188 338.820312 357.625 C 341.101562 358.636719 343.4375 359.488281 345.835938 360.171875 C 348.234375 360.855469 350.671875 361.371094 353.140625 361.714844 C 355.613281 362.0625 358.09375 362.234375 360.589844 362.230469 Z M 464.789062 332.34375 C 465.148438 332.34375 465.503906 332.308594 465.855469 332.238281 C 466.210938 332.167969 466.550781 332.066406 466.882812 331.929688 C 467.214844 331.792969 467.53125 331.625 467.828125 331.425781 C 468.128906 331.226562 468.40625 331 468.660156 330.746094 C 468.914062 330.492188 469.140625 330.214844 469.339844 329.917969 C 469.539062 329.621094 469.707031 329.304688 469.847656 328.972656 C 469.984375 328.640625 470.085938 328.300781 470.15625 327.949219 C 470.226562 327.597656 470.261719 327.242188 470.261719 326.882812 C 470.265625 326.523438 470.230469 326.167969 470.160156 325.816406 C 470.089844 325.464844 469.984375 325.121094 469.847656 324.789062 C 469.710938 324.457031 469.542969 324.144531 469.34375 323.84375 C 469.144531 323.546875 468.917969 323.269531 468.664062 323.015625 C 468.410156 322.761719 468.132812 322.535156 467.835938 322.335938 C 467.539062 322.136719 467.222656 321.96875 466.890625 321.832031 C 466.558594 321.691406 466.21875 321.589844 465.867188 321.519531 C 465.511719 321.449219 465.15625 321.414062 464.796875 321.414062 C 464.4375 321.414062 464.082031 321.449219 463.730469 321.519531 C 463.378906 321.589844 463.039062 321.691406 462.707031 321.828125 C 462.375 321.964844 462.058594 322.132812 461.761719 322.332031 C 461.460938 322.53125 461.183594 322.757812 460.929688 323.011719 C 460.675781 323.265625 460.449219 323.542969 460.25 323.839844 C 460.050781 324.140625 459.882812 324.453125 459.746094 324.785156 C 459.609375 325.117188 459.503906 325.460938 459.433594 325.8125 C 459.363281 326.164062 459.328125 326.519531 459.328125 326.878906 C 459.328125 327.238281 459.363281 327.59375 459.433594 327.945312 C 459.503906 328.296875 459.609375 328.636719 459.746094 328.96875 C 459.882812 329.300781 460.050781 329.613281 460.25 329.914062 C 460.449219 330.210938 460.675781 330.488281 460.929688 330.742188 C 461.183594 330.996094 461.457031 331.222656 461.757812 331.421875 C 462.054688 331.621094 462.367188 331.789062 462.699219 331.925781 C 463.03125 332.0625 463.371094 332.167969 463.726562 332.238281 C 464.078125 332.308594 464.433594 332.34375 464.789062 332.34375 Z M 532.625 321.417969 C 532.265625 321.417969 531.910156 321.453125 531.554688 321.523438 C 531.203125 321.59375 530.863281 321.695312 530.53125 321.832031 C 530.199219 321.96875 529.882812 322.140625 529.582031 322.339844 C 529.285156 322.539062 529.007812 322.761719 528.753906 323.015625 C 528.5 323.269531 528.273438 323.546875 528.074219 323.84375 C 527.875 324.144531 527.703125 324.457031 527.566406 324.789062 C 527.429688 325.121094 527.324219 325.464844 527.253906 325.816406 C 527.183594 326.167969 527.148438 326.523438 527.148438 326.882812 C 527.148438 327.242188 527.183594 327.597656 527.253906 327.949219 C 527.324219 328.300781 527.429688 328.644531 527.566406 328.976562 C 527.703125 329.304688 527.871094 329.621094 528.070312 329.921875 C 528.269531 330.21875 528.496094 330.496094 528.75 330.75 C 529.003906 331.003906 529.28125 331.230469 529.582031 331.429688 C 529.878906 331.628906 530.195312 331.796875 530.527344 331.933594 C 530.859375 332.070312 531.199219 332.175781 531.550781 332.246094 C 531.902344 332.3125 532.261719 332.347656 532.617188 332.347656 C 532.976562 332.347656 533.332031 332.3125 533.6875 332.242188 C 534.039062 332.171875 534.378906 332.070312 534.710938 331.933594 C 535.042969 331.792969 535.359375 331.625 535.65625 331.425781 C 535.957031 331.226562 536.230469 331 536.484375 330.746094 C 536.738281 330.492188 536.964844 330.214844 537.164062 329.917969 C 537.363281 329.617188 537.53125 329.304688 537.671875 328.972656 C 537.808594 328.640625 537.910156 328.296875 537.980469 327.945312 C 538.050781 327.59375 538.085938 327.238281 538.085938 326.878906 C 538.082031 326.519531 538.046875 326.164062 537.976562 325.8125 C 537.90625 325.460938 537.804688 325.121094 537.667969 324.789062 C 537.53125 324.460938 537.359375 324.144531 537.160156 323.847656 C 536.960938 323.550781 536.738281 323.273438 536.484375 323.019531 C 536.230469 322.765625 535.953125 322.539062 535.65625 322.339844 C 535.359375 322.140625 535.042969 321.972656 534.710938 321.835938 C 534.382812 321.699219 534.039062 321.59375 533.6875 321.527344 C 533.335938 321.457031 532.980469 321.421875 532.625 321.417969 Z M 532.625 321.417969 " fill-opacity="1" fill-rule="nonzero"/></g></svg>