<svg xmlns="http://www.w3.org/2000/svg" xmlns:xlink="http://www.w3.org/1999/xlink" width="1122" zoomAndPan="magnify" viewBox="0 0 841.92 595.499987" height="793" preserveAspectRatio="xMidYMid meet" version="1.0"><path fill="#000000" d="M 389.96875 82.71875 C 390.433594 74.226562 395.167969 67.46875 402.625 64.617188 C 403.152344 64.40625 403.683594 64.238281 404.210938 64.089844 C 404.253906 61.089844 406.703125 58.664062 409.726562 58.664062 C 412.769531 58.664062 415.238281 61.132812 415.238281 64.175781 L 415.238281 64.195312 C 418.070312 65.082031 420.691406 66.625 422.847656 68.777344 C 425 70.933594 424.980469 74.417969 422.824219 76.570312 C 420.667969 78.726562 417.183594 78.703125 415.027344 76.550781 C 412.894531 74.394531 409.554688 73.761719 406.535156 74.902344 C 403.195312 76.171875 401.167969 79.234375 400.957031 83.308594 C 400.683594 88.460938 404.316406 93.003906 408.921875 93.253906 C 414.140625 93.53125 418.9375 96 422.382812 100.160156 C 425.71875 104.214844 427.410156 109.410156 427.113281 114.796875 C 426.671875 122.738281 422.148438 129.476562 415.21875 132.578125 L 415.21875 133.425781 C 415.21875 136.464844 412.746094 138.9375 409.703125 138.9375 C 406.851562 138.9375 404.507812 136.761719 404.230469 133.972656 C 400.832031 133.382812 397.617188 131.820312 394.976562 129.371094 C 392.738281 127.300781 392.589844 123.816406 394.660156 121.578125 C 396.730469 119.335938 400.21875 119.191406 402.457031 121.257812 C 404.167969 122.84375 406.386719 123.476562 408.628906 123.140625 C 408.710938 123.117188 408.816406 123.097656 408.902344 123.097656 C 409.429688 122.992188 409.957031 122.84375 410.464844 122.632812 C 413.78125 121.28125 415.894531 118.132812 416.105469 114.207031 C 416.253906 111.585938 415.453125 109.09375 413.886719 107.195312 C 412.429688 105.421875 410.445312 104.386719 408.332031 104.257812 C 397.597656 103.6875 389.335938 94.015625 389.96875 82.714844 Z M 338.667969 98.8125 C 338.667969 60.289062 370.023438 28.96875 408.542969 28.96875 C 447.0625 28.96875 478.417969 60.289062 478.417969 98.8125 C 478.417969 137.3125 447.0625 168.652344 408.542969 168.652344 C 370.023438 168.652344 338.667969 137.3125 338.667969 98.8125 Z M 349.699219 98.8125 C 349.699219 131.25 376.085938 157.628906 408.542969 157.628906 C 440.996094 157.628906 467.386719 131.25 467.386719 98.8125 C 467.386719 66.371094 440.996094 39.992188 408.542969 39.992188 C 376.085938 39.992188 349.699219 66.371094 349.699219 98.8125 Z M 637.5625 530.316406 C 637.5625 533.359375 635.09375 535.828125 632.050781 535.828125 L 185.035156 535.828125 C 181.992188 535.828125 179.523438 533.359375 179.523438 530.316406 C 179.523438 527.277344 181.992188 524.804688 185.035156 524.804688 L 227.484375 524.804688 L 227.484375 461.214844 C 227.484375 458.171875 229.957031 455.703125 233 455.703125 L 299.871094 455.703125 C 302.914062 455.703125 305.386719 458.171875 305.386719 461.214844 L 305.386719 524.804688 L 322.226562 524.804688 L 322.207031 385.585938 C 322.207031 382.546875 324.679688 380.074219 327.722656 380.074219 L 394.59375 380.074219 C 397.636719 380.074219 400.109375 382.546875 400.109375 385.585938 L 400.109375 524.804688 L 416.949219 524.804688 L 416.949219 422.925781 C 416.949219 419.882812 419.421875 417.414062 422.460938 417.414062 L 489.335938 417.414062 C 492.378906 417.414062 494.851562 419.882812 494.851562 422.925781 L 494.851562 524.828125 L 511.691406 524.828125 L 511.691406 307.445312 C 511.691406 304.40625 514.164062 301.933594 517.203125 301.933594 L 584.078125 301.933594 C 587.121094 301.933594 589.59375 304.40625 589.59375 307.445312 L 589.59375 524.804688 L 632.039062 524.804688 C 635.082031 524.804688 637.554688 527.277344 637.554688 530.316406 Z M 522.730469 524.804688 L 578.574219 524.804688 L 578.574219 312.957031 L 522.730469 312.957031 Z M 427.984375 524.804688 L 483.828125 524.804688 L 483.847656 428.4375 L 428.003906 428.4375 Z M 333.238281 524.804688 L 389.082031 524.804688 L 389.101562 391.101562 L 333.257812 391.101562 Z M 238.511719 524.804688 L 294.355469 524.804688 L 294.355469 466.726562 L 238.511719 466.726562 Z M 230.527344 329.09375 C 230.527344 315.980469 241.195312 305.3125 254.316406 305.3125 C 260.320312 305.3125 265.789062 307.550781 269.972656 311.226562 L 353.4375 251.964844 C 352.316406 249.222656 351.683594 246.199219 351.683594 243.054688 C 351.683594 229.9375 362.351562 219.273438 375.472656 219.273438 C 388.59375 219.273438 399.265625 229.941406 399.265625 243.054688 C 399.265625 247.46875 398.039062 251.585938 395.925781 255.136719 L 425.65625 283.792969 C 429.355469 281.40625 433.75 280.011719 438.480469 280.011719 C 444.546875 280.011719 450.058594 282.316406 454.265625 286.054688 L 540.601562 225.761719 C 539.523438 223.058594 538.929688 220.121094 538.929688 217.039062 C 538.929688 203.921875 549.601562 193.257812 562.722656 193.257812 C 575.84375 193.257812 586.511719 203.921875 586.511719 217.039062 C 586.511719 230.152344 575.84375 240.816406 562.722656 240.816406 C 556.65625 240.816406 551.144531 238.515625 546.9375 234.777344 L 460.648438 295.050781 C 461.726562 297.753906 462.316406 300.6875 462.316406 303.773438 C 462.316406 316.886719 451.644531 327.550781 438.523438 327.550781 C 425.402344 327.550781 414.734375 316.886719 414.734375 303.773438 C 414.734375 299.359375 415.960938 295.238281 418.070312 291.691406 L 388.34375 263.03125 C 384.644531 265.417969 380.25 266.8125 375.519531 266.8125 C 369.515625 266.8125 364.042969 264.574219 359.859375 260.898438 L 276.378906 320.203125 C 277.496094 322.949219 278.128906 325.96875 278.128906 329.117188 C 278.128906 342.230469 267.460938 352.894531 254.339844 352.894531 C 241.195312 352.894531 230.527344 342.210938 230.527344 329.09375 Z M 549.980469 217.015625 C 549.980469 224.050781 555.707031 229.792969 562.765625 229.792969 C 569.800781 229.792969 575.546875 224.070312 575.546875 217.015625 C 575.546875 209.984375 569.824219 204.238281 562.765625 204.238281 C 555.730469 204.261719 549.980469 209.984375 549.980469 217.015625 Z M 438.527344 291.019531 C 431.492188 291.019531 425.746094 296.746094 425.746094 303.796875 C 425.746094 310.832031 431.46875 316.574219 438.527344 316.574219 C 445.5625 316.574219 451.3125 310.851562 451.3125 303.796875 C 451.3125 296.746094 445.5625 291.019531 438.527344 291.019531 Z M 362.734375 243.058594 C 362.734375 250.09375 368.460938 255.835938 375.519531 255.835938 C 382.554688 255.835938 388.300781 250.113281 388.300781 243.058594 C 388.300781 236.003906 382.574219 230.28125 375.519531 230.28125 C 368.460938 230.304688 362.734375 236.027344 362.734375 243.058594 Z M 241.5625 329.097656 C 241.5625 336.132812 247.285156 341.875 254.34375 341.875 C 261.378906 341.875 267.128906 336.152344 267.128906 329.097656 C 267.128906 322.066406 261.402344 316.320312 254.34375 316.320312 C 247.285156 316.320312 241.5625 322.066406 241.5625 329.097656 Z M 241.5625 329.097656 " fill-opacity="1" fill-rule="nonzero"/></svg>