<svg xmlns="http://www.w3.org/2000/svg" xmlns:xlink="http://www.w3.org/1999/xlink" width="1122" zoomAndPan="magnify" viewBox="0 0 841.92 595.499987" height="793" preserveAspectRatio="xMidYMid meet" version="1.0"><path fill="#000000" d="M 397.21875 67.207031 L 354.378906 99.320312 L 487.0625 99.320312 L 444.222656 67.207031 C 430.535156 57.097656 411.496094 57.097656 397.21875 67.207031 Z M 397.21875 67.207031 " fill-opacity="1" fill-rule="nonzero"/><path fill="#000000" d="M 598.921875 183.765625 L 598.921875 268.804688 L 654.851562 225.988281 Z M 598.921875 183.765625 " fill-opacity="1" fill-rule="nonzero"/><path fill="#000000" d="M 243.113281 183.765625 L 187.183594 225.988281 L 243.113281 268.804688 Z M 243.113281 183.765625 " fill-opacity="1" fill-rule="nonzero"/><path fill="#000000" d="M 249.0625 272.96875 L 397.21875 384.769531 C 410.902344 394.878906 429.941406 394.878906 444.222656 384.769531 L 592.378906 272.96875 L 592.378906 105.265625 L 249.0625 105.265625 Z M 249.0625 272.96875 " fill-opacity="1" fill-rule="nonzero"/><path fill="#000000" d="M 421.015625 399.042969 C 411.496094 399.042969 401.976562 396.070312 393.648438 390.125 L 184.800781 232.53125 L 184.800781 494.789062 C 184.800781 517.386719 203.246094 535.226562 225.261719 535.226562 L 616.175781 535.226562 C 638.789062 535.226562 656.636719 516.792969 656.636719 494.789062 L 656.636719 232.53125 L 448.386719 390.125 C 440.058594 396.070312 430.535156 399.042969 421.015625 399.042969 Z M 421.015625 399.042969 " fill-opacity="1" fill-rule="nonzero"/></svg>